%
M48
M72
T01C0.0118
T02C0.0402
T03C0.0630
T04C0.0866
T05C0.1181
%
T01
X2032Y3221
X2347Y5583
X2032Y6922
X2032Y10150
X2190Y11252
X2269Y11567
X2741Y11331
X2741Y10937
X3292Y10937
X3292Y11331
X3765Y12591
X3844Y11804
X4158Y12119
X4316Y12591
X4788Y13536
X4867Y12591
X4867Y12119
X5182Y11804
X5418Y11331
X5182Y9835
X4552Y9993
X4237Y9914
X3922Y9756
X3292Y9756
X4395Y8260
X4395Y6922
X4395Y6449
X3844Y5741
X3922Y2827
X3844Y1331
X5340Y4087
X5812Y5662
X5812Y6134
X6206Y6134
X6206Y5662
X6599Y5504
X6678Y6056
X7151Y7473
X6678Y7788
X6206Y8496
X6048Y7473
X7229Y6056
X7781Y7788
X7859Y8496
X8489Y8418
X8489Y8890
X8804Y8654
X9040Y7867
X8174Y5504
X8017Y6764
X8962Y4953
X9355Y1331
X11088Y3063
X11088Y5819
X11088Y8654
X10458Y10780
X11088Y11725
X10064Y12512
X9907Y15111
X9985Y18181
X11088Y18260
X11088Y15189
X8883Y21174
X8489Y20701
X7938Y22040
X8095Y22827
X7859Y24481
X7781Y24953
X7623Y24008
X7623Y23457
X7151Y24008
X6993Y23457
X6599Y24008
X6599Y24481
X6678Y25111
X6678Y25504
X6678Y26134
X6678Y26607
X6678Y27000
X6284Y27867
X6206Y27315
X5812Y27315
X5812Y26449
X6127Y25977
X5340Y25268
X5182Y24323
X4710Y24323
X4473Y26607
X5025Y27788
X5103Y29520
X4867Y29914
X5418Y29914
X5891Y31252
X6127Y29520
X6048Y29205
X6206Y28418
X6914Y29048
X6993Y28024
X7623Y28024
X7781Y26528
X8410Y29126
X8804Y29441
X9040Y28024
X8883Y27000
X8962Y26528
X8883Y26056
X8962Y25583
X8883Y25189
X8962Y24717
X8962Y24087
X9040Y23457
X8804Y22827
X6993Y21882
X6993Y20465
X7387Y19441
X7466Y17079
X8174Y15977
X8647Y14481
X8017Y14087
X7859Y13615
X7859Y13063
X7544Y12827
X7466Y12355
X7544Y13378
X7308Y14087
X8017Y12197
X8095Y11725
X7387Y10859
X6757Y10859
X6363Y12512
X6363Y13063
X6363Y14166
X6206Y15189
X5655Y15268
X5182Y15268
X4710Y15268
X4237Y15268
X3765Y15268
X3135Y15268
X3056Y16213
X2741Y15898
X2505Y15268
X2741Y19363
X3056Y19678
X2741Y20307
X3056Y20622
X2741Y22040
X3056Y22276
X2899Y23221
X2662Y23851
X2662Y24717
X2662Y25741
X3135Y27158
X3292Y27473
X3056Y27709
X3056Y28024
X3135Y28339
X3450Y28654
X3056Y28969
X3056Y29599
X3214Y29914
X3844Y32040
X4237Y29914
X4237Y29520
X4237Y28575
X3529Y25268
X4158Y21725
X4710Y21725
X4710Y20937
X5182Y20150
X4788Y19756
X5182Y18811
X5655Y19126
X5969Y19993
X5969Y18024
X6442Y17788
X6284Y16449
X5655Y16449
X5025Y16449
X5969Y12985
X5261Y21961
X2032Y26449
X2032Y28496
X2032Y30386
X8410Y31410
X9670Y30544
X9670Y28024
X10851Y29048
X11088Y30386
X9670Y23457
X9513Y22827
X9434Y22512
X9592Y21646
X9828Y21882
X10221Y22040
X10773Y22276
X11088Y21567
X6521Y2906
X6599Y1331
T02
X4788Y3662
X4788Y4843
X5969Y3662
X5969Y4843
X7151Y4843
X7151Y3662
X8332Y3662
X8332Y4843
T03
X8332Y23620
X8332Y23620
X8332Y27861
X8332Y27861
T04
X2623Y1922
X10497Y1922
X10497Y31449
X2623Y31449
T05
X5635Y1961
X7485Y1961
M30
