G75*
%MOIN*%
%OFA0B0*%
%FSLAX25Y25*%
%IPPOS*%
%LPD*%
%AMOC8*
5,1,8,0,0,1.08239X$1,22.5*
%
%ADD10R,0.05906X0.03150*%
%ADD11R,0.09843X0.04724*%
%ADD12C,0.00000*%
%ADD13C,0.00500*%
D10*
X0071703Y0244866D03*
X0071703Y0249866D03*
X0071703Y0254866D03*
X0071703Y0259866D03*
X0071703Y0264866D03*
X0071703Y0269866D03*
X0094931Y0269866D03*
X0094931Y0264866D03*
X0094931Y0259866D03*
X0094931Y0254866D03*
X0094931Y0249866D03*
X0094931Y0244866D03*
D11*
X0093356Y0234571D03*
X0093356Y0280240D03*
X0073278Y0280240D03*
X0073278Y0234571D03*
D12*
X0080167Y0236205D02*
X0080169Y0236317D01*
X0080175Y0236428D01*
X0080185Y0236540D01*
X0080199Y0236651D01*
X0080216Y0236761D01*
X0080238Y0236871D01*
X0080264Y0236980D01*
X0080293Y0237088D01*
X0080326Y0237194D01*
X0080363Y0237300D01*
X0080404Y0237404D01*
X0080449Y0237507D01*
X0080497Y0237608D01*
X0080548Y0237707D01*
X0080603Y0237804D01*
X0080662Y0237899D01*
X0080723Y0237993D01*
X0080788Y0238084D01*
X0080857Y0238172D01*
X0080928Y0238258D01*
X0081002Y0238342D01*
X0081080Y0238422D01*
X0081160Y0238500D01*
X0081243Y0238576D01*
X0081328Y0238648D01*
X0081416Y0238717D01*
X0081506Y0238783D01*
X0081599Y0238845D01*
X0081694Y0238905D01*
X0081791Y0238961D01*
X0081889Y0239013D01*
X0081990Y0239062D01*
X0082092Y0239107D01*
X0082196Y0239149D01*
X0082301Y0239187D01*
X0082408Y0239221D01*
X0082515Y0239251D01*
X0082624Y0239278D01*
X0082733Y0239300D01*
X0082844Y0239319D01*
X0082954Y0239334D01*
X0083066Y0239345D01*
X0083177Y0239352D01*
X0083289Y0239355D01*
X0083401Y0239354D01*
X0083513Y0239349D01*
X0083624Y0239340D01*
X0083735Y0239327D01*
X0083846Y0239310D01*
X0083956Y0239290D01*
X0084065Y0239265D01*
X0084173Y0239237D01*
X0084280Y0239204D01*
X0084386Y0239168D01*
X0084490Y0239128D01*
X0084593Y0239085D01*
X0084695Y0239038D01*
X0084794Y0238987D01*
X0084892Y0238933D01*
X0084988Y0238875D01*
X0085082Y0238814D01*
X0085173Y0238750D01*
X0085262Y0238683D01*
X0085349Y0238612D01*
X0085433Y0238538D01*
X0085515Y0238462D01*
X0085593Y0238382D01*
X0085669Y0238300D01*
X0085742Y0238215D01*
X0085812Y0238128D01*
X0085878Y0238038D01*
X0085942Y0237946D01*
X0086002Y0237852D01*
X0086059Y0237756D01*
X0086112Y0237657D01*
X0086162Y0237557D01*
X0086208Y0237456D01*
X0086251Y0237352D01*
X0086290Y0237247D01*
X0086325Y0237141D01*
X0086356Y0237034D01*
X0086384Y0236925D01*
X0086407Y0236816D01*
X0086427Y0236706D01*
X0086443Y0236595D01*
X0086455Y0236484D01*
X0086463Y0236373D01*
X0086467Y0236261D01*
X0086467Y0236149D01*
X0086463Y0236037D01*
X0086455Y0235926D01*
X0086443Y0235815D01*
X0086427Y0235704D01*
X0086407Y0235594D01*
X0086384Y0235485D01*
X0086356Y0235376D01*
X0086325Y0235269D01*
X0086290Y0235163D01*
X0086251Y0235058D01*
X0086208Y0234954D01*
X0086162Y0234853D01*
X0086112Y0234753D01*
X0086059Y0234654D01*
X0086002Y0234558D01*
X0085942Y0234464D01*
X0085878Y0234372D01*
X0085812Y0234282D01*
X0085742Y0234195D01*
X0085669Y0234110D01*
X0085593Y0234028D01*
X0085515Y0233948D01*
X0085433Y0233872D01*
X0085349Y0233798D01*
X0085262Y0233727D01*
X0085173Y0233660D01*
X0085082Y0233596D01*
X0084988Y0233535D01*
X0084892Y0233477D01*
X0084794Y0233423D01*
X0084695Y0233372D01*
X0084593Y0233325D01*
X0084490Y0233282D01*
X0084386Y0233242D01*
X0084280Y0233206D01*
X0084173Y0233173D01*
X0084065Y0233145D01*
X0083956Y0233120D01*
X0083846Y0233100D01*
X0083735Y0233083D01*
X0083624Y0233070D01*
X0083513Y0233061D01*
X0083401Y0233056D01*
X0083289Y0233055D01*
X0083177Y0233058D01*
X0083066Y0233065D01*
X0082954Y0233076D01*
X0082844Y0233091D01*
X0082733Y0233110D01*
X0082624Y0233132D01*
X0082515Y0233159D01*
X0082408Y0233189D01*
X0082301Y0233223D01*
X0082196Y0233261D01*
X0082092Y0233303D01*
X0081990Y0233348D01*
X0081889Y0233397D01*
X0081791Y0233449D01*
X0081694Y0233505D01*
X0081599Y0233565D01*
X0081506Y0233627D01*
X0081416Y0233693D01*
X0081328Y0233762D01*
X0081243Y0233834D01*
X0081160Y0233910D01*
X0081080Y0233988D01*
X0081002Y0234068D01*
X0080928Y0234152D01*
X0080857Y0234238D01*
X0080788Y0234326D01*
X0080723Y0234417D01*
X0080662Y0234511D01*
X0080603Y0234606D01*
X0080548Y0234703D01*
X0080497Y0234802D01*
X0080449Y0234903D01*
X0080404Y0235006D01*
X0080363Y0235110D01*
X0080326Y0235216D01*
X0080293Y0235322D01*
X0080264Y0235430D01*
X0080238Y0235539D01*
X0080216Y0235649D01*
X0080199Y0235759D01*
X0080185Y0235870D01*
X0080175Y0235982D01*
X0080169Y0236093D01*
X0080167Y0236205D01*
X0080169Y0236317D01*
X0080175Y0236428D01*
X0080185Y0236540D01*
X0080199Y0236651D01*
X0080216Y0236761D01*
X0080238Y0236871D01*
X0080264Y0236980D01*
X0080293Y0237088D01*
X0080326Y0237194D01*
X0080363Y0237300D01*
X0080404Y0237404D01*
X0080449Y0237507D01*
X0080497Y0237608D01*
X0080548Y0237707D01*
X0080603Y0237804D01*
X0080662Y0237899D01*
X0080723Y0237993D01*
X0080788Y0238084D01*
X0080857Y0238172D01*
X0080928Y0238258D01*
X0081002Y0238342D01*
X0081080Y0238422D01*
X0081160Y0238500D01*
X0081243Y0238576D01*
X0081328Y0238648D01*
X0081416Y0238717D01*
X0081506Y0238783D01*
X0081599Y0238845D01*
X0081694Y0238905D01*
X0081791Y0238961D01*
X0081889Y0239013D01*
X0081990Y0239062D01*
X0082092Y0239107D01*
X0082196Y0239149D01*
X0082301Y0239187D01*
X0082408Y0239221D01*
X0082515Y0239251D01*
X0082624Y0239278D01*
X0082733Y0239300D01*
X0082844Y0239319D01*
X0082954Y0239334D01*
X0083066Y0239345D01*
X0083177Y0239352D01*
X0083289Y0239355D01*
X0083401Y0239354D01*
X0083513Y0239349D01*
X0083624Y0239340D01*
X0083735Y0239327D01*
X0083846Y0239310D01*
X0083956Y0239290D01*
X0084065Y0239265D01*
X0084173Y0239237D01*
X0084280Y0239204D01*
X0084386Y0239168D01*
X0084490Y0239128D01*
X0084593Y0239085D01*
X0084695Y0239038D01*
X0084794Y0238987D01*
X0084892Y0238933D01*
X0084988Y0238875D01*
X0085082Y0238814D01*
X0085173Y0238750D01*
X0085262Y0238683D01*
X0085349Y0238612D01*
X0085433Y0238538D01*
X0085515Y0238462D01*
X0085593Y0238382D01*
X0085669Y0238300D01*
X0085742Y0238215D01*
X0085812Y0238128D01*
X0085878Y0238038D01*
X0085942Y0237946D01*
X0086002Y0237852D01*
X0086059Y0237756D01*
X0086112Y0237657D01*
X0086162Y0237557D01*
X0086208Y0237456D01*
X0086251Y0237352D01*
X0086290Y0237247D01*
X0086325Y0237141D01*
X0086356Y0237034D01*
X0086384Y0236925D01*
X0086407Y0236816D01*
X0086427Y0236706D01*
X0086443Y0236595D01*
X0086455Y0236484D01*
X0086463Y0236373D01*
X0086467Y0236261D01*
X0086467Y0236149D01*
X0086463Y0236037D01*
X0086455Y0235926D01*
X0086443Y0235815D01*
X0086427Y0235704D01*
X0086407Y0235594D01*
X0086384Y0235485D01*
X0086356Y0235376D01*
X0086325Y0235269D01*
X0086290Y0235163D01*
X0086251Y0235058D01*
X0086208Y0234954D01*
X0086162Y0234853D01*
X0086112Y0234753D01*
X0086059Y0234654D01*
X0086002Y0234558D01*
X0085942Y0234464D01*
X0085878Y0234372D01*
X0085812Y0234282D01*
X0085742Y0234195D01*
X0085669Y0234110D01*
X0085593Y0234028D01*
X0085515Y0233948D01*
X0085433Y0233872D01*
X0085349Y0233798D01*
X0085262Y0233727D01*
X0085173Y0233660D01*
X0085082Y0233596D01*
X0084988Y0233535D01*
X0084892Y0233477D01*
X0084794Y0233423D01*
X0084695Y0233372D01*
X0084593Y0233325D01*
X0084490Y0233282D01*
X0084386Y0233242D01*
X0084280Y0233206D01*
X0084173Y0233173D01*
X0084065Y0233145D01*
X0083956Y0233120D01*
X0083846Y0233100D01*
X0083735Y0233083D01*
X0083624Y0233070D01*
X0083513Y0233061D01*
X0083401Y0233056D01*
X0083289Y0233055D01*
X0083177Y0233058D01*
X0083066Y0233065D01*
X0082954Y0233076D01*
X0082844Y0233091D01*
X0082733Y0233110D01*
X0082624Y0233132D01*
X0082515Y0233159D01*
X0082408Y0233189D01*
X0082301Y0233223D01*
X0082196Y0233261D01*
X0082092Y0233303D01*
X0081990Y0233348D01*
X0081889Y0233397D01*
X0081791Y0233449D01*
X0081694Y0233505D01*
X0081599Y0233565D01*
X0081506Y0233627D01*
X0081416Y0233693D01*
X0081328Y0233762D01*
X0081243Y0233834D01*
X0081160Y0233910D01*
X0081080Y0233988D01*
X0081002Y0234068D01*
X0080928Y0234152D01*
X0080857Y0234238D01*
X0080788Y0234326D01*
X0080723Y0234417D01*
X0080662Y0234511D01*
X0080603Y0234606D01*
X0080548Y0234703D01*
X0080497Y0234802D01*
X0080449Y0234903D01*
X0080404Y0235006D01*
X0080363Y0235110D01*
X0080326Y0235216D01*
X0080293Y0235322D01*
X0080264Y0235430D01*
X0080238Y0235539D01*
X0080216Y0235649D01*
X0080199Y0235759D01*
X0080185Y0235870D01*
X0080175Y0235982D01*
X0080169Y0236093D01*
X0080167Y0236205D01*
X0080167Y0278606D02*
X0080169Y0278718D01*
X0080175Y0278829D01*
X0080185Y0278941D01*
X0080199Y0279052D01*
X0080216Y0279162D01*
X0080238Y0279272D01*
X0080264Y0279381D01*
X0080293Y0279489D01*
X0080326Y0279595D01*
X0080363Y0279701D01*
X0080404Y0279805D01*
X0080449Y0279908D01*
X0080497Y0280009D01*
X0080548Y0280108D01*
X0080603Y0280205D01*
X0080662Y0280300D01*
X0080723Y0280394D01*
X0080788Y0280485D01*
X0080857Y0280573D01*
X0080928Y0280659D01*
X0081002Y0280743D01*
X0081080Y0280823D01*
X0081160Y0280901D01*
X0081243Y0280977D01*
X0081328Y0281049D01*
X0081416Y0281118D01*
X0081506Y0281184D01*
X0081599Y0281246D01*
X0081694Y0281306D01*
X0081791Y0281362D01*
X0081889Y0281414D01*
X0081990Y0281463D01*
X0082092Y0281508D01*
X0082196Y0281550D01*
X0082301Y0281588D01*
X0082408Y0281622D01*
X0082515Y0281652D01*
X0082624Y0281679D01*
X0082733Y0281701D01*
X0082844Y0281720D01*
X0082954Y0281735D01*
X0083066Y0281746D01*
X0083177Y0281753D01*
X0083289Y0281756D01*
X0083401Y0281755D01*
X0083513Y0281750D01*
X0083624Y0281741D01*
X0083735Y0281728D01*
X0083846Y0281711D01*
X0083956Y0281691D01*
X0084065Y0281666D01*
X0084173Y0281638D01*
X0084280Y0281605D01*
X0084386Y0281569D01*
X0084490Y0281529D01*
X0084593Y0281486D01*
X0084695Y0281439D01*
X0084794Y0281388D01*
X0084892Y0281334D01*
X0084988Y0281276D01*
X0085082Y0281215D01*
X0085173Y0281151D01*
X0085262Y0281084D01*
X0085349Y0281013D01*
X0085433Y0280939D01*
X0085515Y0280863D01*
X0085593Y0280783D01*
X0085669Y0280701D01*
X0085742Y0280616D01*
X0085812Y0280529D01*
X0085878Y0280439D01*
X0085942Y0280347D01*
X0086002Y0280253D01*
X0086059Y0280157D01*
X0086112Y0280058D01*
X0086162Y0279958D01*
X0086208Y0279857D01*
X0086251Y0279753D01*
X0086290Y0279648D01*
X0086325Y0279542D01*
X0086356Y0279435D01*
X0086384Y0279326D01*
X0086407Y0279217D01*
X0086427Y0279107D01*
X0086443Y0278996D01*
X0086455Y0278885D01*
X0086463Y0278774D01*
X0086467Y0278662D01*
X0086467Y0278550D01*
X0086463Y0278438D01*
X0086455Y0278327D01*
X0086443Y0278216D01*
X0086427Y0278105D01*
X0086407Y0277995D01*
X0086384Y0277886D01*
X0086356Y0277777D01*
X0086325Y0277670D01*
X0086290Y0277564D01*
X0086251Y0277459D01*
X0086208Y0277355D01*
X0086162Y0277254D01*
X0086112Y0277154D01*
X0086059Y0277055D01*
X0086002Y0276959D01*
X0085942Y0276865D01*
X0085878Y0276773D01*
X0085812Y0276683D01*
X0085742Y0276596D01*
X0085669Y0276511D01*
X0085593Y0276429D01*
X0085515Y0276349D01*
X0085433Y0276273D01*
X0085349Y0276199D01*
X0085262Y0276128D01*
X0085173Y0276061D01*
X0085082Y0275997D01*
X0084988Y0275936D01*
X0084892Y0275878D01*
X0084794Y0275824D01*
X0084695Y0275773D01*
X0084593Y0275726D01*
X0084490Y0275683D01*
X0084386Y0275643D01*
X0084280Y0275607D01*
X0084173Y0275574D01*
X0084065Y0275546D01*
X0083956Y0275521D01*
X0083846Y0275501D01*
X0083735Y0275484D01*
X0083624Y0275471D01*
X0083513Y0275462D01*
X0083401Y0275457D01*
X0083289Y0275456D01*
X0083177Y0275459D01*
X0083066Y0275466D01*
X0082954Y0275477D01*
X0082844Y0275492D01*
X0082733Y0275511D01*
X0082624Y0275533D01*
X0082515Y0275560D01*
X0082408Y0275590D01*
X0082301Y0275624D01*
X0082196Y0275662D01*
X0082092Y0275704D01*
X0081990Y0275749D01*
X0081889Y0275798D01*
X0081791Y0275850D01*
X0081694Y0275906D01*
X0081599Y0275966D01*
X0081506Y0276028D01*
X0081416Y0276094D01*
X0081328Y0276163D01*
X0081243Y0276235D01*
X0081160Y0276311D01*
X0081080Y0276389D01*
X0081002Y0276469D01*
X0080928Y0276553D01*
X0080857Y0276639D01*
X0080788Y0276727D01*
X0080723Y0276818D01*
X0080662Y0276912D01*
X0080603Y0277007D01*
X0080548Y0277104D01*
X0080497Y0277203D01*
X0080449Y0277304D01*
X0080404Y0277407D01*
X0080363Y0277511D01*
X0080326Y0277617D01*
X0080293Y0277723D01*
X0080264Y0277831D01*
X0080238Y0277940D01*
X0080216Y0278050D01*
X0080199Y0278160D01*
X0080185Y0278271D01*
X0080175Y0278383D01*
X0080169Y0278494D01*
X0080167Y0278606D01*
X0080169Y0278718D01*
X0080175Y0278829D01*
X0080185Y0278941D01*
X0080199Y0279052D01*
X0080216Y0279162D01*
X0080238Y0279272D01*
X0080264Y0279381D01*
X0080293Y0279489D01*
X0080326Y0279595D01*
X0080363Y0279701D01*
X0080404Y0279805D01*
X0080449Y0279908D01*
X0080497Y0280009D01*
X0080548Y0280108D01*
X0080603Y0280205D01*
X0080662Y0280300D01*
X0080723Y0280394D01*
X0080788Y0280485D01*
X0080857Y0280573D01*
X0080928Y0280659D01*
X0081002Y0280743D01*
X0081080Y0280823D01*
X0081160Y0280901D01*
X0081243Y0280977D01*
X0081328Y0281049D01*
X0081416Y0281118D01*
X0081506Y0281184D01*
X0081599Y0281246D01*
X0081694Y0281306D01*
X0081791Y0281362D01*
X0081889Y0281414D01*
X0081990Y0281463D01*
X0082092Y0281508D01*
X0082196Y0281550D01*
X0082301Y0281588D01*
X0082408Y0281622D01*
X0082515Y0281652D01*
X0082624Y0281679D01*
X0082733Y0281701D01*
X0082844Y0281720D01*
X0082954Y0281735D01*
X0083066Y0281746D01*
X0083177Y0281753D01*
X0083289Y0281756D01*
X0083401Y0281755D01*
X0083513Y0281750D01*
X0083624Y0281741D01*
X0083735Y0281728D01*
X0083846Y0281711D01*
X0083956Y0281691D01*
X0084065Y0281666D01*
X0084173Y0281638D01*
X0084280Y0281605D01*
X0084386Y0281569D01*
X0084490Y0281529D01*
X0084593Y0281486D01*
X0084695Y0281439D01*
X0084794Y0281388D01*
X0084892Y0281334D01*
X0084988Y0281276D01*
X0085082Y0281215D01*
X0085173Y0281151D01*
X0085262Y0281084D01*
X0085349Y0281013D01*
X0085433Y0280939D01*
X0085515Y0280863D01*
X0085593Y0280783D01*
X0085669Y0280701D01*
X0085742Y0280616D01*
X0085812Y0280529D01*
X0085878Y0280439D01*
X0085942Y0280347D01*
X0086002Y0280253D01*
X0086059Y0280157D01*
X0086112Y0280058D01*
X0086162Y0279958D01*
X0086208Y0279857D01*
X0086251Y0279753D01*
X0086290Y0279648D01*
X0086325Y0279542D01*
X0086356Y0279435D01*
X0086384Y0279326D01*
X0086407Y0279217D01*
X0086427Y0279107D01*
X0086443Y0278996D01*
X0086455Y0278885D01*
X0086463Y0278774D01*
X0086467Y0278662D01*
X0086467Y0278550D01*
X0086463Y0278438D01*
X0086455Y0278327D01*
X0086443Y0278216D01*
X0086427Y0278105D01*
X0086407Y0277995D01*
X0086384Y0277886D01*
X0086356Y0277777D01*
X0086325Y0277670D01*
X0086290Y0277564D01*
X0086251Y0277459D01*
X0086208Y0277355D01*
X0086162Y0277254D01*
X0086112Y0277154D01*
X0086059Y0277055D01*
X0086002Y0276959D01*
X0085942Y0276865D01*
X0085878Y0276773D01*
X0085812Y0276683D01*
X0085742Y0276596D01*
X0085669Y0276511D01*
X0085593Y0276429D01*
X0085515Y0276349D01*
X0085433Y0276273D01*
X0085349Y0276199D01*
X0085262Y0276128D01*
X0085173Y0276061D01*
X0085082Y0275997D01*
X0084988Y0275936D01*
X0084892Y0275878D01*
X0084794Y0275824D01*
X0084695Y0275773D01*
X0084593Y0275726D01*
X0084490Y0275683D01*
X0084386Y0275643D01*
X0084280Y0275607D01*
X0084173Y0275574D01*
X0084065Y0275546D01*
X0083956Y0275521D01*
X0083846Y0275501D01*
X0083735Y0275484D01*
X0083624Y0275471D01*
X0083513Y0275462D01*
X0083401Y0275457D01*
X0083289Y0275456D01*
X0083177Y0275459D01*
X0083066Y0275466D01*
X0082954Y0275477D01*
X0082844Y0275492D01*
X0082733Y0275511D01*
X0082624Y0275533D01*
X0082515Y0275560D01*
X0082408Y0275590D01*
X0082301Y0275624D01*
X0082196Y0275662D01*
X0082092Y0275704D01*
X0081990Y0275749D01*
X0081889Y0275798D01*
X0081791Y0275850D01*
X0081694Y0275906D01*
X0081599Y0275966D01*
X0081506Y0276028D01*
X0081416Y0276094D01*
X0081328Y0276163D01*
X0081243Y0276235D01*
X0081160Y0276311D01*
X0081080Y0276389D01*
X0081002Y0276469D01*
X0080928Y0276553D01*
X0080857Y0276639D01*
X0080788Y0276727D01*
X0080723Y0276818D01*
X0080662Y0276912D01*
X0080603Y0277007D01*
X0080548Y0277104D01*
X0080497Y0277203D01*
X0080449Y0277304D01*
X0080404Y0277407D01*
X0080363Y0277511D01*
X0080326Y0277617D01*
X0080293Y0277723D01*
X0080264Y0277831D01*
X0080238Y0277940D01*
X0080216Y0278050D01*
X0080199Y0278160D01*
X0080185Y0278271D01*
X0080175Y0278383D01*
X0080169Y0278494D01*
X0080167Y0278606D01*
X0068946Y0019610D02*
X0068948Y0019763D01*
X0068954Y0019917D01*
X0068964Y0020070D01*
X0068978Y0020222D01*
X0068996Y0020375D01*
X0069018Y0020526D01*
X0069043Y0020677D01*
X0069073Y0020828D01*
X0069107Y0020978D01*
X0069144Y0021126D01*
X0069185Y0021274D01*
X0069230Y0021420D01*
X0069279Y0021566D01*
X0069332Y0021710D01*
X0069388Y0021852D01*
X0069448Y0021993D01*
X0069512Y0022133D01*
X0069579Y0022271D01*
X0069650Y0022407D01*
X0069725Y0022541D01*
X0069802Y0022673D01*
X0069884Y0022803D01*
X0069968Y0022931D01*
X0070056Y0023057D01*
X0070147Y0023180D01*
X0070241Y0023301D01*
X0070339Y0023419D01*
X0070439Y0023535D01*
X0070543Y0023648D01*
X0070649Y0023759D01*
X0070758Y0023867D01*
X0070870Y0023972D01*
X0070984Y0024073D01*
X0071102Y0024172D01*
X0071221Y0024268D01*
X0071343Y0024361D01*
X0071468Y0024450D01*
X0071595Y0024537D01*
X0071724Y0024619D01*
X0071855Y0024699D01*
X0071988Y0024775D01*
X0072123Y0024848D01*
X0072260Y0024917D01*
X0072399Y0024982D01*
X0072539Y0025044D01*
X0072681Y0025102D01*
X0072824Y0025157D01*
X0072969Y0025208D01*
X0073115Y0025255D01*
X0073262Y0025298D01*
X0073410Y0025337D01*
X0073559Y0025373D01*
X0073709Y0025404D01*
X0073860Y0025432D01*
X0074011Y0025456D01*
X0074164Y0025476D01*
X0074316Y0025492D01*
X0074469Y0025504D01*
X0074622Y0025512D01*
X0074775Y0025516D01*
X0074929Y0025516D01*
X0075082Y0025512D01*
X0075235Y0025504D01*
X0075388Y0025492D01*
X0075540Y0025476D01*
X0075693Y0025456D01*
X0075844Y0025432D01*
X0075995Y0025404D01*
X0076145Y0025373D01*
X0076294Y0025337D01*
X0076442Y0025298D01*
X0076589Y0025255D01*
X0076735Y0025208D01*
X0076880Y0025157D01*
X0077023Y0025102D01*
X0077165Y0025044D01*
X0077305Y0024982D01*
X0077444Y0024917D01*
X0077581Y0024848D01*
X0077716Y0024775D01*
X0077849Y0024699D01*
X0077980Y0024619D01*
X0078109Y0024537D01*
X0078236Y0024450D01*
X0078361Y0024361D01*
X0078483Y0024268D01*
X0078602Y0024172D01*
X0078720Y0024073D01*
X0078834Y0023972D01*
X0078946Y0023867D01*
X0079055Y0023759D01*
X0079161Y0023648D01*
X0079265Y0023535D01*
X0079365Y0023419D01*
X0079463Y0023301D01*
X0079557Y0023180D01*
X0079648Y0023057D01*
X0079736Y0022931D01*
X0079820Y0022803D01*
X0079902Y0022673D01*
X0079979Y0022541D01*
X0080054Y0022407D01*
X0080125Y0022271D01*
X0080192Y0022133D01*
X0080256Y0021993D01*
X0080316Y0021852D01*
X0080372Y0021710D01*
X0080425Y0021566D01*
X0080474Y0021420D01*
X0080519Y0021274D01*
X0080560Y0021126D01*
X0080597Y0020978D01*
X0080631Y0020828D01*
X0080661Y0020677D01*
X0080686Y0020526D01*
X0080708Y0020375D01*
X0080726Y0020222D01*
X0080740Y0020070D01*
X0080750Y0019917D01*
X0080756Y0019763D01*
X0080758Y0019610D01*
X0080756Y0019457D01*
X0080750Y0019303D01*
X0080740Y0019150D01*
X0080726Y0018998D01*
X0080708Y0018845D01*
X0080686Y0018694D01*
X0080661Y0018543D01*
X0080631Y0018392D01*
X0080597Y0018242D01*
X0080560Y0018094D01*
X0080519Y0017946D01*
X0080474Y0017800D01*
X0080425Y0017654D01*
X0080372Y0017510D01*
X0080316Y0017368D01*
X0080256Y0017227D01*
X0080192Y0017087D01*
X0080125Y0016949D01*
X0080054Y0016813D01*
X0079979Y0016679D01*
X0079902Y0016547D01*
X0079820Y0016417D01*
X0079736Y0016289D01*
X0079648Y0016163D01*
X0079557Y0016040D01*
X0079463Y0015919D01*
X0079365Y0015801D01*
X0079265Y0015685D01*
X0079161Y0015572D01*
X0079055Y0015461D01*
X0078946Y0015353D01*
X0078834Y0015248D01*
X0078720Y0015147D01*
X0078602Y0015048D01*
X0078483Y0014952D01*
X0078361Y0014859D01*
X0078236Y0014770D01*
X0078109Y0014683D01*
X0077980Y0014601D01*
X0077849Y0014521D01*
X0077716Y0014445D01*
X0077581Y0014372D01*
X0077444Y0014303D01*
X0077305Y0014238D01*
X0077165Y0014176D01*
X0077023Y0014118D01*
X0076880Y0014063D01*
X0076735Y0014012D01*
X0076589Y0013965D01*
X0076442Y0013922D01*
X0076294Y0013883D01*
X0076145Y0013847D01*
X0075995Y0013816D01*
X0075844Y0013788D01*
X0075693Y0013764D01*
X0075540Y0013744D01*
X0075388Y0013728D01*
X0075235Y0013716D01*
X0075082Y0013708D01*
X0074929Y0013704D01*
X0074775Y0013704D01*
X0074622Y0013708D01*
X0074469Y0013716D01*
X0074316Y0013728D01*
X0074164Y0013744D01*
X0074011Y0013764D01*
X0073860Y0013788D01*
X0073709Y0013816D01*
X0073559Y0013847D01*
X0073410Y0013883D01*
X0073262Y0013922D01*
X0073115Y0013965D01*
X0072969Y0014012D01*
X0072824Y0014063D01*
X0072681Y0014118D01*
X0072539Y0014176D01*
X0072399Y0014238D01*
X0072260Y0014303D01*
X0072123Y0014372D01*
X0071988Y0014445D01*
X0071855Y0014521D01*
X0071724Y0014601D01*
X0071595Y0014683D01*
X0071468Y0014770D01*
X0071343Y0014859D01*
X0071221Y0014952D01*
X0071102Y0015048D01*
X0070984Y0015147D01*
X0070870Y0015248D01*
X0070758Y0015353D01*
X0070649Y0015461D01*
X0070543Y0015572D01*
X0070439Y0015685D01*
X0070339Y0015801D01*
X0070241Y0015919D01*
X0070147Y0016040D01*
X0070056Y0016163D01*
X0069968Y0016289D01*
X0069884Y0016417D01*
X0069802Y0016547D01*
X0069725Y0016679D01*
X0069650Y0016813D01*
X0069579Y0016949D01*
X0069512Y0017087D01*
X0069448Y0017227D01*
X0069388Y0017368D01*
X0069332Y0017510D01*
X0069279Y0017654D01*
X0069230Y0017800D01*
X0069185Y0017946D01*
X0069144Y0018094D01*
X0069107Y0018242D01*
X0069073Y0018392D01*
X0069043Y0018543D01*
X0069018Y0018694D01*
X0068996Y0018845D01*
X0068978Y0018998D01*
X0068964Y0019150D01*
X0068954Y0019303D01*
X0068948Y0019457D01*
X0068946Y0019610D01*
X0050443Y0019610D02*
X0050445Y0019763D01*
X0050451Y0019917D01*
X0050461Y0020070D01*
X0050475Y0020222D01*
X0050493Y0020375D01*
X0050515Y0020526D01*
X0050540Y0020677D01*
X0050570Y0020828D01*
X0050604Y0020978D01*
X0050641Y0021126D01*
X0050682Y0021274D01*
X0050727Y0021420D01*
X0050776Y0021566D01*
X0050829Y0021710D01*
X0050885Y0021852D01*
X0050945Y0021993D01*
X0051009Y0022133D01*
X0051076Y0022271D01*
X0051147Y0022407D01*
X0051222Y0022541D01*
X0051299Y0022673D01*
X0051381Y0022803D01*
X0051465Y0022931D01*
X0051553Y0023057D01*
X0051644Y0023180D01*
X0051738Y0023301D01*
X0051836Y0023419D01*
X0051936Y0023535D01*
X0052040Y0023648D01*
X0052146Y0023759D01*
X0052255Y0023867D01*
X0052367Y0023972D01*
X0052481Y0024073D01*
X0052599Y0024172D01*
X0052718Y0024268D01*
X0052840Y0024361D01*
X0052965Y0024450D01*
X0053092Y0024537D01*
X0053221Y0024619D01*
X0053352Y0024699D01*
X0053485Y0024775D01*
X0053620Y0024848D01*
X0053757Y0024917D01*
X0053896Y0024982D01*
X0054036Y0025044D01*
X0054178Y0025102D01*
X0054321Y0025157D01*
X0054466Y0025208D01*
X0054612Y0025255D01*
X0054759Y0025298D01*
X0054907Y0025337D01*
X0055056Y0025373D01*
X0055206Y0025404D01*
X0055357Y0025432D01*
X0055508Y0025456D01*
X0055661Y0025476D01*
X0055813Y0025492D01*
X0055966Y0025504D01*
X0056119Y0025512D01*
X0056272Y0025516D01*
X0056426Y0025516D01*
X0056579Y0025512D01*
X0056732Y0025504D01*
X0056885Y0025492D01*
X0057037Y0025476D01*
X0057190Y0025456D01*
X0057341Y0025432D01*
X0057492Y0025404D01*
X0057642Y0025373D01*
X0057791Y0025337D01*
X0057939Y0025298D01*
X0058086Y0025255D01*
X0058232Y0025208D01*
X0058377Y0025157D01*
X0058520Y0025102D01*
X0058662Y0025044D01*
X0058802Y0024982D01*
X0058941Y0024917D01*
X0059078Y0024848D01*
X0059213Y0024775D01*
X0059346Y0024699D01*
X0059477Y0024619D01*
X0059606Y0024537D01*
X0059733Y0024450D01*
X0059858Y0024361D01*
X0059980Y0024268D01*
X0060099Y0024172D01*
X0060217Y0024073D01*
X0060331Y0023972D01*
X0060443Y0023867D01*
X0060552Y0023759D01*
X0060658Y0023648D01*
X0060762Y0023535D01*
X0060862Y0023419D01*
X0060960Y0023301D01*
X0061054Y0023180D01*
X0061145Y0023057D01*
X0061233Y0022931D01*
X0061317Y0022803D01*
X0061399Y0022673D01*
X0061476Y0022541D01*
X0061551Y0022407D01*
X0061622Y0022271D01*
X0061689Y0022133D01*
X0061753Y0021993D01*
X0061813Y0021852D01*
X0061869Y0021710D01*
X0061922Y0021566D01*
X0061971Y0021420D01*
X0062016Y0021274D01*
X0062057Y0021126D01*
X0062094Y0020978D01*
X0062128Y0020828D01*
X0062158Y0020677D01*
X0062183Y0020526D01*
X0062205Y0020375D01*
X0062223Y0020222D01*
X0062237Y0020070D01*
X0062247Y0019917D01*
X0062253Y0019763D01*
X0062255Y0019610D01*
X0062253Y0019457D01*
X0062247Y0019303D01*
X0062237Y0019150D01*
X0062223Y0018998D01*
X0062205Y0018845D01*
X0062183Y0018694D01*
X0062158Y0018543D01*
X0062128Y0018392D01*
X0062094Y0018242D01*
X0062057Y0018094D01*
X0062016Y0017946D01*
X0061971Y0017800D01*
X0061922Y0017654D01*
X0061869Y0017510D01*
X0061813Y0017368D01*
X0061753Y0017227D01*
X0061689Y0017087D01*
X0061622Y0016949D01*
X0061551Y0016813D01*
X0061476Y0016679D01*
X0061399Y0016547D01*
X0061317Y0016417D01*
X0061233Y0016289D01*
X0061145Y0016163D01*
X0061054Y0016040D01*
X0060960Y0015919D01*
X0060862Y0015801D01*
X0060762Y0015685D01*
X0060658Y0015572D01*
X0060552Y0015461D01*
X0060443Y0015353D01*
X0060331Y0015248D01*
X0060217Y0015147D01*
X0060099Y0015048D01*
X0059980Y0014952D01*
X0059858Y0014859D01*
X0059733Y0014770D01*
X0059606Y0014683D01*
X0059477Y0014601D01*
X0059346Y0014521D01*
X0059213Y0014445D01*
X0059078Y0014372D01*
X0058941Y0014303D01*
X0058802Y0014238D01*
X0058662Y0014176D01*
X0058520Y0014118D01*
X0058377Y0014063D01*
X0058232Y0014012D01*
X0058086Y0013965D01*
X0057939Y0013922D01*
X0057791Y0013883D01*
X0057642Y0013847D01*
X0057492Y0013816D01*
X0057341Y0013788D01*
X0057190Y0013764D01*
X0057037Y0013744D01*
X0056885Y0013728D01*
X0056732Y0013716D01*
X0056579Y0013708D01*
X0056426Y0013704D01*
X0056272Y0013704D01*
X0056119Y0013708D01*
X0055966Y0013716D01*
X0055813Y0013728D01*
X0055661Y0013744D01*
X0055508Y0013764D01*
X0055357Y0013788D01*
X0055206Y0013816D01*
X0055056Y0013847D01*
X0054907Y0013883D01*
X0054759Y0013922D01*
X0054612Y0013965D01*
X0054466Y0014012D01*
X0054321Y0014063D01*
X0054178Y0014118D01*
X0054036Y0014176D01*
X0053896Y0014238D01*
X0053757Y0014303D01*
X0053620Y0014372D01*
X0053485Y0014445D01*
X0053352Y0014521D01*
X0053221Y0014601D01*
X0053092Y0014683D01*
X0052965Y0014770D01*
X0052840Y0014859D01*
X0052718Y0014952D01*
X0052599Y0015048D01*
X0052481Y0015147D01*
X0052367Y0015248D01*
X0052255Y0015353D01*
X0052146Y0015461D01*
X0052040Y0015572D01*
X0051936Y0015685D01*
X0051836Y0015801D01*
X0051738Y0015919D01*
X0051644Y0016040D01*
X0051553Y0016163D01*
X0051465Y0016289D01*
X0051381Y0016417D01*
X0051299Y0016547D01*
X0051222Y0016679D01*
X0051147Y0016813D01*
X0051076Y0016949D01*
X0051009Y0017087D01*
X0050945Y0017227D01*
X0050885Y0017368D01*
X0050829Y0017510D01*
X0050776Y0017654D01*
X0050727Y0017800D01*
X0050682Y0017946D01*
X0050641Y0018094D01*
X0050604Y0018242D01*
X0050570Y0018392D01*
X0050540Y0018543D01*
X0050515Y0018694D01*
X0050493Y0018845D01*
X0050475Y0018998D01*
X0050461Y0019150D01*
X0050451Y0019303D01*
X0050445Y0019457D01*
X0050443Y0019610D01*
D13*
X0016388Y0013311D02*
X0016388Y0320398D01*
X0016390Y0320522D01*
X0016396Y0320645D01*
X0016405Y0320769D01*
X0016419Y0320891D01*
X0016436Y0321014D01*
X0016458Y0321136D01*
X0016483Y0321257D01*
X0016512Y0321377D01*
X0016544Y0321496D01*
X0016581Y0321615D01*
X0016621Y0321732D01*
X0016664Y0321847D01*
X0016712Y0321962D01*
X0016763Y0322074D01*
X0016817Y0322185D01*
X0016875Y0322295D01*
X0016936Y0322402D01*
X0017001Y0322508D01*
X0017069Y0322611D01*
X0017140Y0322712D01*
X0017214Y0322811D01*
X0017291Y0322908D01*
X0017372Y0323002D01*
X0017455Y0323093D01*
X0017541Y0323182D01*
X0017630Y0323268D01*
X0017721Y0323351D01*
X0017815Y0323432D01*
X0017912Y0323509D01*
X0018011Y0323583D01*
X0018112Y0323654D01*
X0018215Y0323722D01*
X0018321Y0323787D01*
X0018428Y0323848D01*
X0018538Y0323906D01*
X0018649Y0323960D01*
X0018761Y0324011D01*
X0018876Y0324059D01*
X0018991Y0324102D01*
X0019108Y0324142D01*
X0019227Y0324179D01*
X0019346Y0324211D01*
X0019466Y0324240D01*
X0019587Y0324265D01*
X0019709Y0324287D01*
X0019832Y0324304D01*
X0019954Y0324318D01*
X0020078Y0324327D01*
X0020201Y0324333D01*
X0020325Y0324335D01*
X0110876Y0324335D01*
X0111000Y0324333D01*
X0111123Y0324327D01*
X0111247Y0324318D01*
X0111369Y0324304D01*
X0111492Y0324287D01*
X0111614Y0324265D01*
X0111735Y0324240D01*
X0111855Y0324211D01*
X0111974Y0324179D01*
X0112093Y0324142D01*
X0112210Y0324102D01*
X0112325Y0324059D01*
X0112440Y0324011D01*
X0112552Y0323960D01*
X0112663Y0323906D01*
X0112773Y0323848D01*
X0112880Y0323787D01*
X0112986Y0323722D01*
X0113089Y0323654D01*
X0113190Y0323583D01*
X0113289Y0323509D01*
X0113386Y0323432D01*
X0113480Y0323351D01*
X0113571Y0323268D01*
X0113660Y0323182D01*
X0113746Y0323093D01*
X0113829Y0323002D01*
X0113910Y0322908D01*
X0113987Y0322811D01*
X0114061Y0322712D01*
X0114132Y0322611D01*
X0114200Y0322508D01*
X0114265Y0322402D01*
X0114326Y0322295D01*
X0114384Y0322185D01*
X0114438Y0322074D01*
X0114489Y0321962D01*
X0114537Y0321847D01*
X0114580Y0321732D01*
X0114620Y0321615D01*
X0114657Y0321496D01*
X0114689Y0321377D01*
X0114718Y0321257D01*
X0114743Y0321136D01*
X0114765Y0321014D01*
X0114782Y0320891D01*
X0114796Y0320769D01*
X0114805Y0320645D01*
X0114811Y0320522D01*
X0114813Y0320398D01*
X0114813Y0013311D01*
X0114811Y0013187D01*
X0114805Y0013064D01*
X0114796Y0012940D01*
X0114782Y0012818D01*
X0114765Y0012695D01*
X0114743Y0012573D01*
X0114718Y0012452D01*
X0114689Y0012332D01*
X0114657Y0012213D01*
X0114620Y0012094D01*
X0114580Y0011977D01*
X0114537Y0011862D01*
X0114489Y0011747D01*
X0114438Y0011635D01*
X0114384Y0011524D01*
X0114326Y0011414D01*
X0114265Y0011307D01*
X0114200Y0011201D01*
X0114132Y0011098D01*
X0114061Y0010997D01*
X0113987Y0010898D01*
X0113910Y0010801D01*
X0113829Y0010707D01*
X0113746Y0010616D01*
X0113660Y0010527D01*
X0113571Y0010441D01*
X0113480Y0010358D01*
X0113386Y0010277D01*
X0113289Y0010200D01*
X0113190Y0010126D01*
X0113089Y0010055D01*
X0112986Y0009987D01*
X0112880Y0009922D01*
X0112773Y0009861D01*
X0112663Y0009803D01*
X0112552Y0009749D01*
X0112440Y0009698D01*
X0112325Y0009650D01*
X0112210Y0009607D01*
X0112093Y0009567D01*
X0111974Y0009530D01*
X0111855Y0009498D01*
X0111735Y0009469D01*
X0111614Y0009444D01*
X0111492Y0009422D01*
X0111369Y0009405D01*
X0111247Y0009391D01*
X0111123Y0009382D01*
X0111000Y0009376D01*
X0110876Y0009374D01*
X0020325Y0009374D01*
X0020201Y0009376D01*
X0020078Y0009382D01*
X0019954Y0009391D01*
X0019832Y0009405D01*
X0019709Y0009422D01*
X0019587Y0009444D01*
X0019466Y0009469D01*
X0019346Y0009498D01*
X0019227Y0009530D01*
X0019108Y0009567D01*
X0018991Y0009607D01*
X0018876Y0009650D01*
X0018761Y0009698D01*
X0018649Y0009749D01*
X0018538Y0009803D01*
X0018428Y0009861D01*
X0018321Y0009922D01*
X0018215Y0009987D01*
X0018112Y0010055D01*
X0018011Y0010126D01*
X0017912Y0010200D01*
X0017815Y0010277D01*
X0017721Y0010358D01*
X0017630Y0010441D01*
X0017541Y0010527D01*
X0017455Y0010616D01*
X0017372Y0010707D01*
X0017291Y0010801D01*
X0017214Y0010898D01*
X0017140Y0010997D01*
X0017069Y0011098D01*
X0017001Y0011201D01*
X0016936Y0011307D01*
X0016875Y0011414D01*
X0016817Y0011524D01*
X0016763Y0011635D01*
X0016712Y0011747D01*
X0016664Y0011862D01*
X0016621Y0011977D01*
X0016581Y0012094D01*
X0016544Y0012213D01*
X0016512Y0012332D01*
X0016483Y0012452D01*
X0016458Y0012573D01*
X0016436Y0012695D01*
X0016419Y0012818D01*
X0016405Y0012940D01*
X0016396Y0013064D01*
X0016390Y0013187D01*
X0016388Y0013311D01*
M02*
