G75*
%MOIN*%
%OFA0B0*%
%FSLAX25Y25*%
%IPPOS*%
%LPD*%
%AMOC8*
5,1,8,0,0,1.08239X$1,22.5*
%
%ADD10R,0.05906X0.03150*%
%ADD11R,0.09843X0.04724*%
%ADD12C,0.00000*%
%ADD13C,0.00500*%
%ADD14C,0.17717*%
%ADD15C,0.06024*%
%ADD16R,0.06024X0.06024*%
%ADD17C,0.02381*%
%ADD18C,0.00787*%
D10*
X0071703Y0244866D03*
X0071703Y0249866D03*
X0071703Y0254866D03*
X0071703Y0259866D03*
X0071703Y0264866D03*
X0071703Y0269866D03*
X0094931Y0269866D03*
X0094931Y0264866D03*
X0094931Y0259866D03*
X0094931Y0254866D03*
X0094931Y0249866D03*
X0094931Y0244866D03*
D11*
X0093356Y0234571D03*
X0093356Y0280240D03*
X0073278Y0280240D03*
X0073278Y0234571D03*
D12*
X0080167Y0236205D02*
X0080169Y0236317D01*
X0080175Y0236428D01*
X0080185Y0236540D01*
X0080199Y0236651D01*
X0080216Y0236761D01*
X0080238Y0236871D01*
X0080264Y0236980D01*
X0080293Y0237088D01*
X0080326Y0237194D01*
X0080363Y0237300D01*
X0080404Y0237404D01*
X0080449Y0237507D01*
X0080497Y0237608D01*
X0080548Y0237707D01*
X0080603Y0237804D01*
X0080662Y0237899D01*
X0080723Y0237993D01*
X0080788Y0238084D01*
X0080857Y0238172D01*
X0080928Y0238258D01*
X0081002Y0238342D01*
X0081080Y0238422D01*
X0081160Y0238500D01*
X0081243Y0238576D01*
X0081328Y0238648D01*
X0081416Y0238717D01*
X0081506Y0238783D01*
X0081599Y0238845D01*
X0081694Y0238905D01*
X0081791Y0238961D01*
X0081889Y0239013D01*
X0081990Y0239062D01*
X0082092Y0239107D01*
X0082196Y0239149D01*
X0082301Y0239187D01*
X0082408Y0239221D01*
X0082515Y0239251D01*
X0082624Y0239278D01*
X0082733Y0239300D01*
X0082844Y0239319D01*
X0082954Y0239334D01*
X0083066Y0239345D01*
X0083177Y0239352D01*
X0083289Y0239355D01*
X0083401Y0239354D01*
X0083513Y0239349D01*
X0083624Y0239340D01*
X0083735Y0239327D01*
X0083846Y0239310D01*
X0083956Y0239290D01*
X0084065Y0239265D01*
X0084173Y0239237D01*
X0084280Y0239204D01*
X0084386Y0239168D01*
X0084490Y0239128D01*
X0084593Y0239085D01*
X0084695Y0239038D01*
X0084794Y0238987D01*
X0084892Y0238933D01*
X0084988Y0238875D01*
X0085082Y0238814D01*
X0085173Y0238750D01*
X0085262Y0238683D01*
X0085349Y0238612D01*
X0085433Y0238538D01*
X0085515Y0238462D01*
X0085593Y0238382D01*
X0085669Y0238300D01*
X0085742Y0238215D01*
X0085812Y0238128D01*
X0085878Y0238038D01*
X0085942Y0237946D01*
X0086002Y0237852D01*
X0086059Y0237756D01*
X0086112Y0237657D01*
X0086162Y0237557D01*
X0086208Y0237456D01*
X0086251Y0237352D01*
X0086290Y0237247D01*
X0086325Y0237141D01*
X0086356Y0237034D01*
X0086384Y0236925D01*
X0086407Y0236816D01*
X0086427Y0236706D01*
X0086443Y0236595D01*
X0086455Y0236484D01*
X0086463Y0236373D01*
X0086467Y0236261D01*
X0086467Y0236149D01*
X0086463Y0236037D01*
X0086455Y0235926D01*
X0086443Y0235815D01*
X0086427Y0235704D01*
X0086407Y0235594D01*
X0086384Y0235485D01*
X0086356Y0235376D01*
X0086325Y0235269D01*
X0086290Y0235163D01*
X0086251Y0235058D01*
X0086208Y0234954D01*
X0086162Y0234853D01*
X0086112Y0234753D01*
X0086059Y0234654D01*
X0086002Y0234558D01*
X0085942Y0234464D01*
X0085878Y0234372D01*
X0085812Y0234282D01*
X0085742Y0234195D01*
X0085669Y0234110D01*
X0085593Y0234028D01*
X0085515Y0233948D01*
X0085433Y0233872D01*
X0085349Y0233798D01*
X0085262Y0233727D01*
X0085173Y0233660D01*
X0085082Y0233596D01*
X0084988Y0233535D01*
X0084892Y0233477D01*
X0084794Y0233423D01*
X0084695Y0233372D01*
X0084593Y0233325D01*
X0084490Y0233282D01*
X0084386Y0233242D01*
X0084280Y0233206D01*
X0084173Y0233173D01*
X0084065Y0233145D01*
X0083956Y0233120D01*
X0083846Y0233100D01*
X0083735Y0233083D01*
X0083624Y0233070D01*
X0083513Y0233061D01*
X0083401Y0233056D01*
X0083289Y0233055D01*
X0083177Y0233058D01*
X0083066Y0233065D01*
X0082954Y0233076D01*
X0082844Y0233091D01*
X0082733Y0233110D01*
X0082624Y0233132D01*
X0082515Y0233159D01*
X0082408Y0233189D01*
X0082301Y0233223D01*
X0082196Y0233261D01*
X0082092Y0233303D01*
X0081990Y0233348D01*
X0081889Y0233397D01*
X0081791Y0233449D01*
X0081694Y0233505D01*
X0081599Y0233565D01*
X0081506Y0233627D01*
X0081416Y0233693D01*
X0081328Y0233762D01*
X0081243Y0233834D01*
X0081160Y0233910D01*
X0081080Y0233988D01*
X0081002Y0234068D01*
X0080928Y0234152D01*
X0080857Y0234238D01*
X0080788Y0234326D01*
X0080723Y0234417D01*
X0080662Y0234511D01*
X0080603Y0234606D01*
X0080548Y0234703D01*
X0080497Y0234802D01*
X0080449Y0234903D01*
X0080404Y0235006D01*
X0080363Y0235110D01*
X0080326Y0235216D01*
X0080293Y0235322D01*
X0080264Y0235430D01*
X0080238Y0235539D01*
X0080216Y0235649D01*
X0080199Y0235759D01*
X0080185Y0235870D01*
X0080175Y0235982D01*
X0080169Y0236093D01*
X0080167Y0236205D01*
X0080169Y0236317D01*
X0080175Y0236428D01*
X0080185Y0236540D01*
X0080199Y0236651D01*
X0080216Y0236761D01*
X0080238Y0236871D01*
X0080264Y0236980D01*
X0080293Y0237088D01*
X0080326Y0237194D01*
X0080363Y0237300D01*
X0080404Y0237404D01*
X0080449Y0237507D01*
X0080497Y0237608D01*
X0080548Y0237707D01*
X0080603Y0237804D01*
X0080662Y0237899D01*
X0080723Y0237993D01*
X0080788Y0238084D01*
X0080857Y0238172D01*
X0080928Y0238258D01*
X0081002Y0238342D01*
X0081080Y0238422D01*
X0081160Y0238500D01*
X0081243Y0238576D01*
X0081328Y0238648D01*
X0081416Y0238717D01*
X0081506Y0238783D01*
X0081599Y0238845D01*
X0081694Y0238905D01*
X0081791Y0238961D01*
X0081889Y0239013D01*
X0081990Y0239062D01*
X0082092Y0239107D01*
X0082196Y0239149D01*
X0082301Y0239187D01*
X0082408Y0239221D01*
X0082515Y0239251D01*
X0082624Y0239278D01*
X0082733Y0239300D01*
X0082844Y0239319D01*
X0082954Y0239334D01*
X0083066Y0239345D01*
X0083177Y0239352D01*
X0083289Y0239355D01*
X0083401Y0239354D01*
X0083513Y0239349D01*
X0083624Y0239340D01*
X0083735Y0239327D01*
X0083846Y0239310D01*
X0083956Y0239290D01*
X0084065Y0239265D01*
X0084173Y0239237D01*
X0084280Y0239204D01*
X0084386Y0239168D01*
X0084490Y0239128D01*
X0084593Y0239085D01*
X0084695Y0239038D01*
X0084794Y0238987D01*
X0084892Y0238933D01*
X0084988Y0238875D01*
X0085082Y0238814D01*
X0085173Y0238750D01*
X0085262Y0238683D01*
X0085349Y0238612D01*
X0085433Y0238538D01*
X0085515Y0238462D01*
X0085593Y0238382D01*
X0085669Y0238300D01*
X0085742Y0238215D01*
X0085812Y0238128D01*
X0085878Y0238038D01*
X0085942Y0237946D01*
X0086002Y0237852D01*
X0086059Y0237756D01*
X0086112Y0237657D01*
X0086162Y0237557D01*
X0086208Y0237456D01*
X0086251Y0237352D01*
X0086290Y0237247D01*
X0086325Y0237141D01*
X0086356Y0237034D01*
X0086384Y0236925D01*
X0086407Y0236816D01*
X0086427Y0236706D01*
X0086443Y0236595D01*
X0086455Y0236484D01*
X0086463Y0236373D01*
X0086467Y0236261D01*
X0086467Y0236149D01*
X0086463Y0236037D01*
X0086455Y0235926D01*
X0086443Y0235815D01*
X0086427Y0235704D01*
X0086407Y0235594D01*
X0086384Y0235485D01*
X0086356Y0235376D01*
X0086325Y0235269D01*
X0086290Y0235163D01*
X0086251Y0235058D01*
X0086208Y0234954D01*
X0086162Y0234853D01*
X0086112Y0234753D01*
X0086059Y0234654D01*
X0086002Y0234558D01*
X0085942Y0234464D01*
X0085878Y0234372D01*
X0085812Y0234282D01*
X0085742Y0234195D01*
X0085669Y0234110D01*
X0085593Y0234028D01*
X0085515Y0233948D01*
X0085433Y0233872D01*
X0085349Y0233798D01*
X0085262Y0233727D01*
X0085173Y0233660D01*
X0085082Y0233596D01*
X0084988Y0233535D01*
X0084892Y0233477D01*
X0084794Y0233423D01*
X0084695Y0233372D01*
X0084593Y0233325D01*
X0084490Y0233282D01*
X0084386Y0233242D01*
X0084280Y0233206D01*
X0084173Y0233173D01*
X0084065Y0233145D01*
X0083956Y0233120D01*
X0083846Y0233100D01*
X0083735Y0233083D01*
X0083624Y0233070D01*
X0083513Y0233061D01*
X0083401Y0233056D01*
X0083289Y0233055D01*
X0083177Y0233058D01*
X0083066Y0233065D01*
X0082954Y0233076D01*
X0082844Y0233091D01*
X0082733Y0233110D01*
X0082624Y0233132D01*
X0082515Y0233159D01*
X0082408Y0233189D01*
X0082301Y0233223D01*
X0082196Y0233261D01*
X0082092Y0233303D01*
X0081990Y0233348D01*
X0081889Y0233397D01*
X0081791Y0233449D01*
X0081694Y0233505D01*
X0081599Y0233565D01*
X0081506Y0233627D01*
X0081416Y0233693D01*
X0081328Y0233762D01*
X0081243Y0233834D01*
X0081160Y0233910D01*
X0081080Y0233988D01*
X0081002Y0234068D01*
X0080928Y0234152D01*
X0080857Y0234238D01*
X0080788Y0234326D01*
X0080723Y0234417D01*
X0080662Y0234511D01*
X0080603Y0234606D01*
X0080548Y0234703D01*
X0080497Y0234802D01*
X0080449Y0234903D01*
X0080404Y0235006D01*
X0080363Y0235110D01*
X0080326Y0235216D01*
X0080293Y0235322D01*
X0080264Y0235430D01*
X0080238Y0235539D01*
X0080216Y0235649D01*
X0080199Y0235759D01*
X0080185Y0235870D01*
X0080175Y0235982D01*
X0080169Y0236093D01*
X0080167Y0236205D01*
X0080167Y0278606D02*
X0080169Y0278718D01*
X0080175Y0278829D01*
X0080185Y0278941D01*
X0080199Y0279052D01*
X0080216Y0279162D01*
X0080238Y0279272D01*
X0080264Y0279381D01*
X0080293Y0279489D01*
X0080326Y0279595D01*
X0080363Y0279701D01*
X0080404Y0279805D01*
X0080449Y0279908D01*
X0080497Y0280009D01*
X0080548Y0280108D01*
X0080603Y0280205D01*
X0080662Y0280300D01*
X0080723Y0280394D01*
X0080788Y0280485D01*
X0080857Y0280573D01*
X0080928Y0280659D01*
X0081002Y0280743D01*
X0081080Y0280823D01*
X0081160Y0280901D01*
X0081243Y0280977D01*
X0081328Y0281049D01*
X0081416Y0281118D01*
X0081506Y0281184D01*
X0081599Y0281246D01*
X0081694Y0281306D01*
X0081791Y0281362D01*
X0081889Y0281414D01*
X0081990Y0281463D01*
X0082092Y0281508D01*
X0082196Y0281550D01*
X0082301Y0281588D01*
X0082408Y0281622D01*
X0082515Y0281652D01*
X0082624Y0281679D01*
X0082733Y0281701D01*
X0082844Y0281720D01*
X0082954Y0281735D01*
X0083066Y0281746D01*
X0083177Y0281753D01*
X0083289Y0281756D01*
X0083401Y0281755D01*
X0083513Y0281750D01*
X0083624Y0281741D01*
X0083735Y0281728D01*
X0083846Y0281711D01*
X0083956Y0281691D01*
X0084065Y0281666D01*
X0084173Y0281638D01*
X0084280Y0281605D01*
X0084386Y0281569D01*
X0084490Y0281529D01*
X0084593Y0281486D01*
X0084695Y0281439D01*
X0084794Y0281388D01*
X0084892Y0281334D01*
X0084988Y0281276D01*
X0085082Y0281215D01*
X0085173Y0281151D01*
X0085262Y0281084D01*
X0085349Y0281013D01*
X0085433Y0280939D01*
X0085515Y0280863D01*
X0085593Y0280783D01*
X0085669Y0280701D01*
X0085742Y0280616D01*
X0085812Y0280529D01*
X0085878Y0280439D01*
X0085942Y0280347D01*
X0086002Y0280253D01*
X0086059Y0280157D01*
X0086112Y0280058D01*
X0086162Y0279958D01*
X0086208Y0279857D01*
X0086251Y0279753D01*
X0086290Y0279648D01*
X0086325Y0279542D01*
X0086356Y0279435D01*
X0086384Y0279326D01*
X0086407Y0279217D01*
X0086427Y0279107D01*
X0086443Y0278996D01*
X0086455Y0278885D01*
X0086463Y0278774D01*
X0086467Y0278662D01*
X0086467Y0278550D01*
X0086463Y0278438D01*
X0086455Y0278327D01*
X0086443Y0278216D01*
X0086427Y0278105D01*
X0086407Y0277995D01*
X0086384Y0277886D01*
X0086356Y0277777D01*
X0086325Y0277670D01*
X0086290Y0277564D01*
X0086251Y0277459D01*
X0086208Y0277355D01*
X0086162Y0277254D01*
X0086112Y0277154D01*
X0086059Y0277055D01*
X0086002Y0276959D01*
X0085942Y0276865D01*
X0085878Y0276773D01*
X0085812Y0276683D01*
X0085742Y0276596D01*
X0085669Y0276511D01*
X0085593Y0276429D01*
X0085515Y0276349D01*
X0085433Y0276273D01*
X0085349Y0276199D01*
X0085262Y0276128D01*
X0085173Y0276061D01*
X0085082Y0275997D01*
X0084988Y0275936D01*
X0084892Y0275878D01*
X0084794Y0275824D01*
X0084695Y0275773D01*
X0084593Y0275726D01*
X0084490Y0275683D01*
X0084386Y0275643D01*
X0084280Y0275607D01*
X0084173Y0275574D01*
X0084065Y0275546D01*
X0083956Y0275521D01*
X0083846Y0275501D01*
X0083735Y0275484D01*
X0083624Y0275471D01*
X0083513Y0275462D01*
X0083401Y0275457D01*
X0083289Y0275456D01*
X0083177Y0275459D01*
X0083066Y0275466D01*
X0082954Y0275477D01*
X0082844Y0275492D01*
X0082733Y0275511D01*
X0082624Y0275533D01*
X0082515Y0275560D01*
X0082408Y0275590D01*
X0082301Y0275624D01*
X0082196Y0275662D01*
X0082092Y0275704D01*
X0081990Y0275749D01*
X0081889Y0275798D01*
X0081791Y0275850D01*
X0081694Y0275906D01*
X0081599Y0275966D01*
X0081506Y0276028D01*
X0081416Y0276094D01*
X0081328Y0276163D01*
X0081243Y0276235D01*
X0081160Y0276311D01*
X0081080Y0276389D01*
X0081002Y0276469D01*
X0080928Y0276553D01*
X0080857Y0276639D01*
X0080788Y0276727D01*
X0080723Y0276818D01*
X0080662Y0276912D01*
X0080603Y0277007D01*
X0080548Y0277104D01*
X0080497Y0277203D01*
X0080449Y0277304D01*
X0080404Y0277407D01*
X0080363Y0277511D01*
X0080326Y0277617D01*
X0080293Y0277723D01*
X0080264Y0277831D01*
X0080238Y0277940D01*
X0080216Y0278050D01*
X0080199Y0278160D01*
X0080185Y0278271D01*
X0080175Y0278383D01*
X0080169Y0278494D01*
X0080167Y0278606D01*
X0080169Y0278718D01*
X0080175Y0278829D01*
X0080185Y0278941D01*
X0080199Y0279052D01*
X0080216Y0279162D01*
X0080238Y0279272D01*
X0080264Y0279381D01*
X0080293Y0279489D01*
X0080326Y0279595D01*
X0080363Y0279701D01*
X0080404Y0279805D01*
X0080449Y0279908D01*
X0080497Y0280009D01*
X0080548Y0280108D01*
X0080603Y0280205D01*
X0080662Y0280300D01*
X0080723Y0280394D01*
X0080788Y0280485D01*
X0080857Y0280573D01*
X0080928Y0280659D01*
X0081002Y0280743D01*
X0081080Y0280823D01*
X0081160Y0280901D01*
X0081243Y0280977D01*
X0081328Y0281049D01*
X0081416Y0281118D01*
X0081506Y0281184D01*
X0081599Y0281246D01*
X0081694Y0281306D01*
X0081791Y0281362D01*
X0081889Y0281414D01*
X0081990Y0281463D01*
X0082092Y0281508D01*
X0082196Y0281550D01*
X0082301Y0281588D01*
X0082408Y0281622D01*
X0082515Y0281652D01*
X0082624Y0281679D01*
X0082733Y0281701D01*
X0082844Y0281720D01*
X0082954Y0281735D01*
X0083066Y0281746D01*
X0083177Y0281753D01*
X0083289Y0281756D01*
X0083401Y0281755D01*
X0083513Y0281750D01*
X0083624Y0281741D01*
X0083735Y0281728D01*
X0083846Y0281711D01*
X0083956Y0281691D01*
X0084065Y0281666D01*
X0084173Y0281638D01*
X0084280Y0281605D01*
X0084386Y0281569D01*
X0084490Y0281529D01*
X0084593Y0281486D01*
X0084695Y0281439D01*
X0084794Y0281388D01*
X0084892Y0281334D01*
X0084988Y0281276D01*
X0085082Y0281215D01*
X0085173Y0281151D01*
X0085262Y0281084D01*
X0085349Y0281013D01*
X0085433Y0280939D01*
X0085515Y0280863D01*
X0085593Y0280783D01*
X0085669Y0280701D01*
X0085742Y0280616D01*
X0085812Y0280529D01*
X0085878Y0280439D01*
X0085942Y0280347D01*
X0086002Y0280253D01*
X0086059Y0280157D01*
X0086112Y0280058D01*
X0086162Y0279958D01*
X0086208Y0279857D01*
X0086251Y0279753D01*
X0086290Y0279648D01*
X0086325Y0279542D01*
X0086356Y0279435D01*
X0086384Y0279326D01*
X0086407Y0279217D01*
X0086427Y0279107D01*
X0086443Y0278996D01*
X0086455Y0278885D01*
X0086463Y0278774D01*
X0086467Y0278662D01*
X0086467Y0278550D01*
X0086463Y0278438D01*
X0086455Y0278327D01*
X0086443Y0278216D01*
X0086427Y0278105D01*
X0086407Y0277995D01*
X0086384Y0277886D01*
X0086356Y0277777D01*
X0086325Y0277670D01*
X0086290Y0277564D01*
X0086251Y0277459D01*
X0086208Y0277355D01*
X0086162Y0277254D01*
X0086112Y0277154D01*
X0086059Y0277055D01*
X0086002Y0276959D01*
X0085942Y0276865D01*
X0085878Y0276773D01*
X0085812Y0276683D01*
X0085742Y0276596D01*
X0085669Y0276511D01*
X0085593Y0276429D01*
X0085515Y0276349D01*
X0085433Y0276273D01*
X0085349Y0276199D01*
X0085262Y0276128D01*
X0085173Y0276061D01*
X0085082Y0275997D01*
X0084988Y0275936D01*
X0084892Y0275878D01*
X0084794Y0275824D01*
X0084695Y0275773D01*
X0084593Y0275726D01*
X0084490Y0275683D01*
X0084386Y0275643D01*
X0084280Y0275607D01*
X0084173Y0275574D01*
X0084065Y0275546D01*
X0083956Y0275521D01*
X0083846Y0275501D01*
X0083735Y0275484D01*
X0083624Y0275471D01*
X0083513Y0275462D01*
X0083401Y0275457D01*
X0083289Y0275456D01*
X0083177Y0275459D01*
X0083066Y0275466D01*
X0082954Y0275477D01*
X0082844Y0275492D01*
X0082733Y0275511D01*
X0082624Y0275533D01*
X0082515Y0275560D01*
X0082408Y0275590D01*
X0082301Y0275624D01*
X0082196Y0275662D01*
X0082092Y0275704D01*
X0081990Y0275749D01*
X0081889Y0275798D01*
X0081791Y0275850D01*
X0081694Y0275906D01*
X0081599Y0275966D01*
X0081506Y0276028D01*
X0081416Y0276094D01*
X0081328Y0276163D01*
X0081243Y0276235D01*
X0081160Y0276311D01*
X0081080Y0276389D01*
X0081002Y0276469D01*
X0080928Y0276553D01*
X0080857Y0276639D01*
X0080788Y0276727D01*
X0080723Y0276818D01*
X0080662Y0276912D01*
X0080603Y0277007D01*
X0080548Y0277104D01*
X0080497Y0277203D01*
X0080449Y0277304D01*
X0080404Y0277407D01*
X0080363Y0277511D01*
X0080326Y0277617D01*
X0080293Y0277723D01*
X0080264Y0277831D01*
X0080238Y0277940D01*
X0080216Y0278050D01*
X0080199Y0278160D01*
X0080185Y0278271D01*
X0080175Y0278383D01*
X0080169Y0278494D01*
X0080167Y0278606D01*
X0068946Y0019610D02*
X0068948Y0019763D01*
X0068954Y0019917D01*
X0068964Y0020070D01*
X0068978Y0020222D01*
X0068996Y0020375D01*
X0069018Y0020526D01*
X0069043Y0020677D01*
X0069073Y0020828D01*
X0069107Y0020978D01*
X0069144Y0021126D01*
X0069185Y0021274D01*
X0069230Y0021420D01*
X0069279Y0021566D01*
X0069332Y0021710D01*
X0069388Y0021852D01*
X0069448Y0021993D01*
X0069512Y0022133D01*
X0069579Y0022271D01*
X0069650Y0022407D01*
X0069725Y0022541D01*
X0069802Y0022673D01*
X0069884Y0022803D01*
X0069968Y0022931D01*
X0070056Y0023057D01*
X0070147Y0023180D01*
X0070241Y0023301D01*
X0070339Y0023419D01*
X0070439Y0023535D01*
X0070543Y0023648D01*
X0070649Y0023759D01*
X0070758Y0023867D01*
X0070870Y0023972D01*
X0070984Y0024073D01*
X0071102Y0024172D01*
X0071221Y0024268D01*
X0071343Y0024361D01*
X0071468Y0024450D01*
X0071595Y0024537D01*
X0071724Y0024619D01*
X0071855Y0024699D01*
X0071988Y0024775D01*
X0072123Y0024848D01*
X0072260Y0024917D01*
X0072399Y0024982D01*
X0072539Y0025044D01*
X0072681Y0025102D01*
X0072824Y0025157D01*
X0072969Y0025208D01*
X0073115Y0025255D01*
X0073262Y0025298D01*
X0073410Y0025337D01*
X0073559Y0025373D01*
X0073709Y0025404D01*
X0073860Y0025432D01*
X0074011Y0025456D01*
X0074164Y0025476D01*
X0074316Y0025492D01*
X0074469Y0025504D01*
X0074622Y0025512D01*
X0074775Y0025516D01*
X0074929Y0025516D01*
X0075082Y0025512D01*
X0075235Y0025504D01*
X0075388Y0025492D01*
X0075540Y0025476D01*
X0075693Y0025456D01*
X0075844Y0025432D01*
X0075995Y0025404D01*
X0076145Y0025373D01*
X0076294Y0025337D01*
X0076442Y0025298D01*
X0076589Y0025255D01*
X0076735Y0025208D01*
X0076880Y0025157D01*
X0077023Y0025102D01*
X0077165Y0025044D01*
X0077305Y0024982D01*
X0077444Y0024917D01*
X0077581Y0024848D01*
X0077716Y0024775D01*
X0077849Y0024699D01*
X0077980Y0024619D01*
X0078109Y0024537D01*
X0078236Y0024450D01*
X0078361Y0024361D01*
X0078483Y0024268D01*
X0078602Y0024172D01*
X0078720Y0024073D01*
X0078834Y0023972D01*
X0078946Y0023867D01*
X0079055Y0023759D01*
X0079161Y0023648D01*
X0079265Y0023535D01*
X0079365Y0023419D01*
X0079463Y0023301D01*
X0079557Y0023180D01*
X0079648Y0023057D01*
X0079736Y0022931D01*
X0079820Y0022803D01*
X0079902Y0022673D01*
X0079979Y0022541D01*
X0080054Y0022407D01*
X0080125Y0022271D01*
X0080192Y0022133D01*
X0080256Y0021993D01*
X0080316Y0021852D01*
X0080372Y0021710D01*
X0080425Y0021566D01*
X0080474Y0021420D01*
X0080519Y0021274D01*
X0080560Y0021126D01*
X0080597Y0020978D01*
X0080631Y0020828D01*
X0080661Y0020677D01*
X0080686Y0020526D01*
X0080708Y0020375D01*
X0080726Y0020222D01*
X0080740Y0020070D01*
X0080750Y0019917D01*
X0080756Y0019763D01*
X0080758Y0019610D01*
X0080756Y0019457D01*
X0080750Y0019303D01*
X0080740Y0019150D01*
X0080726Y0018998D01*
X0080708Y0018845D01*
X0080686Y0018694D01*
X0080661Y0018543D01*
X0080631Y0018392D01*
X0080597Y0018242D01*
X0080560Y0018094D01*
X0080519Y0017946D01*
X0080474Y0017800D01*
X0080425Y0017654D01*
X0080372Y0017510D01*
X0080316Y0017368D01*
X0080256Y0017227D01*
X0080192Y0017087D01*
X0080125Y0016949D01*
X0080054Y0016813D01*
X0079979Y0016679D01*
X0079902Y0016547D01*
X0079820Y0016417D01*
X0079736Y0016289D01*
X0079648Y0016163D01*
X0079557Y0016040D01*
X0079463Y0015919D01*
X0079365Y0015801D01*
X0079265Y0015685D01*
X0079161Y0015572D01*
X0079055Y0015461D01*
X0078946Y0015353D01*
X0078834Y0015248D01*
X0078720Y0015147D01*
X0078602Y0015048D01*
X0078483Y0014952D01*
X0078361Y0014859D01*
X0078236Y0014770D01*
X0078109Y0014683D01*
X0077980Y0014601D01*
X0077849Y0014521D01*
X0077716Y0014445D01*
X0077581Y0014372D01*
X0077444Y0014303D01*
X0077305Y0014238D01*
X0077165Y0014176D01*
X0077023Y0014118D01*
X0076880Y0014063D01*
X0076735Y0014012D01*
X0076589Y0013965D01*
X0076442Y0013922D01*
X0076294Y0013883D01*
X0076145Y0013847D01*
X0075995Y0013816D01*
X0075844Y0013788D01*
X0075693Y0013764D01*
X0075540Y0013744D01*
X0075388Y0013728D01*
X0075235Y0013716D01*
X0075082Y0013708D01*
X0074929Y0013704D01*
X0074775Y0013704D01*
X0074622Y0013708D01*
X0074469Y0013716D01*
X0074316Y0013728D01*
X0074164Y0013744D01*
X0074011Y0013764D01*
X0073860Y0013788D01*
X0073709Y0013816D01*
X0073559Y0013847D01*
X0073410Y0013883D01*
X0073262Y0013922D01*
X0073115Y0013965D01*
X0072969Y0014012D01*
X0072824Y0014063D01*
X0072681Y0014118D01*
X0072539Y0014176D01*
X0072399Y0014238D01*
X0072260Y0014303D01*
X0072123Y0014372D01*
X0071988Y0014445D01*
X0071855Y0014521D01*
X0071724Y0014601D01*
X0071595Y0014683D01*
X0071468Y0014770D01*
X0071343Y0014859D01*
X0071221Y0014952D01*
X0071102Y0015048D01*
X0070984Y0015147D01*
X0070870Y0015248D01*
X0070758Y0015353D01*
X0070649Y0015461D01*
X0070543Y0015572D01*
X0070439Y0015685D01*
X0070339Y0015801D01*
X0070241Y0015919D01*
X0070147Y0016040D01*
X0070056Y0016163D01*
X0069968Y0016289D01*
X0069884Y0016417D01*
X0069802Y0016547D01*
X0069725Y0016679D01*
X0069650Y0016813D01*
X0069579Y0016949D01*
X0069512Y0017087D01*
X0069448Y0017227D01*
X0069388Y0017368D01*
X0069332Y0017510D01*
X0069279Y0017654D01*
X0069230Y0017800D01*
X0069185Y0017946D01*
X0069144Y0018094D01*
X0069107Y0018242D01*
X0069073Y0018392D01*
X0069043Y0018543D01*
X0069018Y0018694D01*
X0068996Y0018845D01*
X0068978Y0018998D01*
X0068964Y0019150D01*
X0068954Y0019303D01*
X0068948Y0019457D01*
X0068946Y0019610D01*
X0050443Y0019610D02*
X0050445Y0019763D01*
X0050451Y0019917D01*
X0050461Y0020070D01*
X0050475Y0020222D01*
X0050493Y0020375D01*
X0050515Y0020526D01*
X0050540Y0020677D01*
X0050570Y0020828D01*
X0050604Y0020978D01*
X0050641Y0021126D01*
X0050682Y0021274D01*
X0050727Y0021420D01*
X0050776Y0021566D01*
X0050829Y0021710D01*
X0050885Y0021852D01*
X0050945Y0021993D01*
X0051009Y0022133D01*
X0051076Y0022271D01*
X0051147Y0022407D01*
X0051222Y0022541D01*
X0051299Y0022673D01*
X0051381Y0022803D01*
X0051465Y0022931D01*
X0051553Y0023057D01*
X0051644Y0023180D01*
X0051738Y0023301D01*
X0051836Y0023419D01*
X0051936Y0023535D01*
X0052040Y0023648D01*
X0052146Y0023759D01*
X0052255Y0023867D01*
X0052367Y0023972D01*
X0052481Y0024073D01*
X0052599Y0024172D01*
X0052718Y0024268D01*
X0052840Y0024361D01*
X0052965Y0024450D01*
X0053092Y0024537D01*
X0053221Y0024619D01*
X0053352Y0024699D01*
X0053485Y0024775D01*
X0053620Y0024848D01*
X0053757Y0024917D01*
X0053896Y0024982D01*
X0054036Y0025044D01*
X0054178Y0025102D01*
X0054321Y0025157D01*
X0054466Y0025208D01*
X0054612Y0025255D01*
X0054759Y0025298D01*
X0054907Y0025337D01*
X0055056Y0025373D01*
X0055206Y0025404D01*
X0055357Y0025432D01*
X0055508Y0025456D01*
X0055661Y0025476D01*
X0055813Y0025492D01*
X0055966Y0025504D01*
X0056119Y0025512D01*
X0056272Y0025516D01*
X0056426Y0025516D01*
X0056579Y0025512D01*
X0056732Y0025504D01*
X0056885Y0025492D01*
X0057037Y0025476D01*
X0057190Y0025456D01*
X0057341Y0025432D01*
X0057492Y0025404D01*
X0057642Y0025373D01*
X0057791Y0025337D01*
X0057939Y0025298D01*
X0058086Y0025255D01*
X0058232Y0025208D01*
X0058377Y0025157D01*
X0058520Y0025102D01*
X0058662Y0025044D01*
X0058802Y0024982D01*
X0058941Y0024917D01*
X0059078Y0024848D01*
X0059213Y0024775D01*
X0059346Y0024699D01*
X0059477Y0024619D01*
X0059606Y0024537D01*
X0059733Y0024450D01*
X0059858Y0024361D01*
X0059980Y0024268D01*
X0060099Y0024172D01*
X0060217Y0024073D01*
X0060331Y0023972D01*
X0060443Y0023867D01*
X0060552Y0023759D01*
X0060658Y0023648D01*
X0060762Y0023535D01*
X0060862Y0023419D01*
X0060960Y0023301D01*
X0061054Y0023180D01*
X0061145Y0023057D01*
X0061233Y0022931D01*
X0061317Y0022803D01*
X0061399Y0022673D01*
X0061476Y0022541D01*
X0061551Y0022407D01*
X0061622Y0022271D01*
X0061689Y0022133D01*
X0061753Y0021993D01*
X0061813Y0021852D01*
X0061869Y0021710D01*
X0061922Y0021566D01*
X0061971Y0021420D01*
X0062016Y0021274D01*
X0062057Y0021126D01*
X0062094Y0020978D01*
X0062128Y0020828D01*
X0062158Y0020677D01*
X0062183Y0020526D01*
X0062205Y0020375D01*
X0062223Y0020222D01*
X0062237Y0020070D01*
X0062247Y0019917D01*
X0062253Y0019763D01*
X0062255Y0019610D01*
X0062253Y0019457D01*
X0062247Y0019303D01*
X0062237Y0019150D01*
X0062223Y0018998D01*
X0062205Y0018845D01*
X0062183Y0018694D01*
X0062158Y0018543D01*
X0062128Y0018392D01*
X0062094Y0018242D01*
X0062057Y0018094D01*
X0062016Y0017946D01*
X0061971Y0017800D01*
X0061922Y0017654D01*
X0061869Y0017510D01*
X0061813Y0017368D01*
X0061753Y0017227D01*
X0061689Y0017087D01*
X0061622Y0016949D01*
X0061551Y0016813D01*
X0061476Y0016679D01*
X0061399Y0016547D01*
X0061317Y0016417D01*
X0061233Y0016289D01*
X0061145Y0016163D01*
X0061054Y0016040D01*
X0060960Y0015919D01*
X0060862Y0015801D01*
X0060762Y0015685D01*
X0060658Y0015572D01*
X0060552Y0015461D01*
X0060443Y0015353D01*
X0060331Y0015248D01*
X0060217Y0015147D01*
X0060099Y0015048D01*
X0059980Y0014952D01*
X0059858Y0014859D01*
X0059733Y0014770D01*
X0059606Y0014683D01*
X0059477Y0014601D01*
X0059346Y0014521D01*
X0059213Y0014445D01*
X0059078Y0014372D01*
X0058941Y0014303D01*
X0058802Y0014238D01*
X0058662Y0014176D01*
X0058520Y0014118D01*
X0058377Y0014063D01*
X0058232Y0014012D01*
X0058086Y0013965D01*
X0057939Y0013922D01*
X0057791Y0013883D01*
X0057642Y0013847D01*
X0057492Y0013816D01*
X0057341Y0013788D01*
X0057190Y0013764D01*
X0057037Y0013744D01*
X0056885Y0013728D01*
X0056732Y0013716D01*
X0056579Y0013708D01*
X0056426Y0013704D01*
X0056272Y0013704D01*
X0056119Y0013708D01*
X0055966Y0013716D01*
X0055813Y0013728D01*
X0055661Y0013744D01*
X0055508Y0013764D01*
X0055357Y0013788D01*
X0055206Y0013816D01*
X0055056Y0013847D01*
X0054907Y0013883D01*
X0054759Y0013922D01*
X0054612Y0013965D01*
X0054466Y0014012D01*
X0054321Y0014063D01*
X0054178Y0014118D01*
X0054036Y0014176D01*
X0053896Y0014238D01*
X0053757Y0014303D01*
X0053620Y0014372D01*
X0053485Y0014445D01*
X0053352Y0014521D01*
X0053221Y0014601D01*
X0053092Y0014683D01*
X0052965Y0014770D01*
X0052840Y0014859D01*
X0052718Y0014952D01*
X0052599Y0015048D01*
X0052481Y0015147D01*
X0052367Y0015248D01*
X0052255Y0015353D01*
X0052146Y0015461D01*
X0052040Y0015572D01*
X0051936Y0015685D01*
X0051836Y0015801D01*
X0051738Y0015919D01*
X0051644Y0016040D01*
X0051553Y0016163D01*
X0051465Y0016289D01*
X0051381Y0016417D01*
X0051299Y0016547D01*
X0051222Y0016679D01*
X0051147Y0016813D01*
X0051076Y0016949D01*
X0051009Y0017087D01*
X0050945Y0017227D01*
X0050885Y0017368D01*
X0050829Y0017510D01*
X0050776Y0017654D01*
X0050727Y0017800D01*
X0050682Y0017946D01*
X0050641Y0018094D01*
X0050604Y0018242D01*
X0050570Y0018392D01*
X0050540Y0018543D01*
X0050515Y0018694D01*
X0050493Y0018845D01*
X0050475Y0018998D01*
X0050461Y0019150D01*
X0050451Y0019303D01*
X0050445Y0019457D01*
X0050443Y0019610D01*
D13*
X0016388Y0013311D02*
X0016388Y0320398D01*
X0016390Y0320522D01*
X0016396Y0320645D01*
X0016405Y0320769D01*
X0016419Y0320891D01*
X0016436Y0321014D01*
X0016458Y0321136D01*
X0016483Y0321257D01*
X0016512Y0321377D01*
X0016544Y0321496D01*
X0016581Y0321615D01*
X0016621Y0321732D01*
X0016664Y0321847D01*
X0016712Y0321962D01*
X0016763Y0322074D01*
X0016817Y0322185D01*
X0016875Y0322295D01*
X0016936Y0322402D01*
X0017001Y0322508D01*
X0017069Y0322611D01*
X0017140Y0322712D01*
X0017214Y0322811D01*
X0017291Y0322908D01*
X0017372Y0323002D01*
X0017455Y0323093D01*
X0017541Y0323182D01*
X0017630Y0323268D01*
X0017721Y0323351D01*
X0017815Y0323432D01*
X0017912Y0323509D01*
X0018011Y0323583D01*
X0018112Y0323654D01*
X0018215Y0323722D01*
X0018321Y0323787D01*
X0018428Y0323848D01*
X0018538Y0323906D01*
X0018649Y0323960D01*
X0018761Y0324011D01*
X0018876Y0324059D01*
X0018991Y0324102D01*
X0019108Y0324142D01*
X0019227Y0324179D01*
X0019346Y0324211D01*
X0019466Y0324240D01*
X0019587Y0324265D01*
X0019709Y0324287D01*
X0019832Y0324304D01*
X0019954Y0324318D01*
X0020078Y0324327D01*
X0020201Y0324333D01*
X0020325Y0324335D01*
X0110876Y0324335D01*
X0111000Y0324333D01*
X0111123Y0324327D01*
X0111247Y0324318D01*
X0111369Y0324304D01*
X0111492Y0324287D01*
X0111614Y0324265D01*
X0111735Y0324240D01*
X0111855Y0324211D01*
X0111974Y0324179D01*
X0112093Y0324142D01*
X0112210Y0324102D01*
X0112325Y0324059D01*
X0112440Y0324011D01*
X0112552Y0323960D01*
X0112663Y0323906D01*
X0112773Y0323848D01*
X0112880Y0323787D01*
X0112986Y0323722D01*
X0113089Y0323654D01*
X0113190Y0323583D01*
X0113289Y0323509D01*
X0113386Y0323432D01*
X0113480Y0323351D01*
X0113571Y0323268D01*
X0113660Y0323182D01*
X0113746Y0323093D01*
X0113829Y0323002D01*
X0113910Y0322908D01*
X0113987Y0322811D01*
X0114061Y0322712D01*
X0114132Y0322611D01*
X0114200Y0322508D01*
X0114265Y0322402D01*
X0114326Y0322295D01*
X0114384Y0322185D01*
X0114438Y0322074D01*
X0114489Y0321962D01*
X0114537Y0321847D01*
X0114580Y0321732D01*
X0114620Y0321615D01*
X0114657Y0321496D01*
X0114689Y0321377D01*
X0114718Y0321257D01*
X0114743Y0321136D01*
X0114765Y0321014D01*
X0114782Y0320891D01*
X0114796Y0320769D01*
X0114805Y0320645D01*
X0114811Y0320522D01*
X0114813Y0320398D01*
X0114813Y0013311D01*
X0114811Y0013187D01*
X0114805Y0013064D01*
X0114796Y0012940D01*
X0114782Y0012818D01*
X0114765Y0012695D01*
X0114743Y0012573D01*
X0114718Y0012452D01*
X0114689Y0012332D01*
X0114657Y0012213D01*
X0114620Y0012094D01*
X0114580Y0011977D01*
X0114537Y0011862D01*
X0114489Y0011747D01*
X0114438Y0011635D01*
X0114384Y0011524D01*
X0114326Y0011414D01*
X0114265Y0011307D01*
X0114200Y0011201D01*
X0114132Y0011098D01*
X0114061Y0010997D01*
X0113987Y0010898D01*
X0113910Y0010801D01*
X0113829Y0010707D01*
X0113746Y0010616D01*
X0113660Y0010527D01*
X0113571Y0010441D01*
X0113480Y0010358D01*
X0113386Y0010277D01*
X0113289Y0010200D01*
X0113190Y0010126D01*
X0113089Y0010055D01*
X0112986Y0009987D01*
X0112880Y0009922D01*
X0112773Y0009861D01*
X0112663Y0009803D01*
X0112552Y0009749D01*
X0112440Y0009698D01*
X0112325Y0009650D01*
X0112210Y0009607D01*
X0112093Y0009567D01*
X0111974Y0009530D01*
X0111855Y0009498D01*
X0111735Y0009469D01*
X0111614Y0009444D01*
X0111492Y0009422D01*
X0111369Y0009405D01*
X0111247Y0009391D01*
X0111123Y0009382D01*
X0111000Y0009376D01*
X0110876Y0009374D01*
X0020325Y0009374D01*
X0020201Y0009376D01*
X0020078Y0009382D01*
X0019954Y0009391D01*
X0019832Y0009405D01*
X0019709Y0009422D01*
X0019587Y0009444D01*
X0019466Y0009469D01*
X0019346Y0009498D01*
X0019227Y0009530D01*
X0019108Y0009567D01*
X0018991Y0009607D01*
X0018876Y0009650D01*
X0018761Y0009698D01*
X0018649Y0009749D01*
X0018538Y0009803D01*
X0018428Y0009861D01*
X0018321Y0009922D01*
X0018215Y0009987D01*
X0018112Y0010055D01*
X0018011Y0010126D01*
X0017912Y0010200D01*
X0017815Y0010277D01*
X0017721Y0010358D01*
X0017630Y0010441D01*
X0017541Y0010527D01*
X0017455Y0010616D01*
X0017372Y0010707D01*
X0017291Y0010801D01*
X0017214Y0010898D01*
X0017140Y0010997D01*
X0017069Y0011098D01*
X0017001Y0011201D01*
X0016936Y0011307D01*
X0016875Y0011414D01*
X0016817Y0011524D01*
X0016763Y0011635D01*
X0016712Y0011747D01*
X0016664Y0011862D01*
X0016621Y0011977D01*
X0016581Y0012094D01*
X0016544Y0012213D01*
X0016512Y0012332D01*
X0016483Y0012452D01*
X0016458Y0012573D01*
X0016436Y0012695D01*
X0016419Y0012818D01*
X0016405Y0012940D01*
X0016396Y0013064D01*
X0016390Y0013187D01*
X0016388Y0013311D01*
D14*
X0026230Y0019217D03*
X0104971Y0019217D03*
X0104971Y0314492D03*
X0026230Y0314492D03*
D15*
X0047884Y0048429D03*
X0047884Y0036618D03*
X0059695Y0036618D03*
X0059695Y0048429D03*
X0071506Y0048429D03*
X0071506Y0036618D03*
X0083317Y0048429D03*
D16*
X0083317Y0036618D03*
D17*
X0089616Y0049531D03*
X0081742Y0055043D03*
X0080167Y0067642D03*
X0077805Y0077878D03*
X0078593Y0084965D03*
X0084892Y0084177D03*
X0084892Y0088902D03*
X0088041Y0086539D03*
X0090404Y0078665D03*
X0104577Y0107799D03*
X0110876Y0117248D03*
X0100640Y0125122D03*
X0099065Y0151106D03*
X0099852Y0181815D03*
X0110876Y0182602D03*
X0110876Y0151894D03*
X0088829Y0211736D03*
X0084892Y0207012D03*
X0079380Y0220398D03*
X0080955Y0228272D03*
X0076230Y0234571D03*
X0076230Y0240083D03*
X0078593Y0244807D03*
X0077805Y0249531D03*
X0077805Y0265280D03*
X0076230Y0280240D03*
X0069931Y0280240D03*
X0069144Y0290476D03*
X0062845Y0278665D03*
X0062057Y0273154D03*
X0058120Y0273154D03*
X0058120Y0264492D03*
X0061270Y0259768D03*
X0066782Y0261343D03*
X0066782Y0266067D03*
X0066782Y0270004D03*
X0062057Y0284177D03*
X0060482Y0292051D03*
X0061270Y0295201D03*
X0054183Y0299138D03*
X0051034Y0295201D03*
X0048671Y0299138D03*
X0042372Y0299138D03*
X0042372Y0295201D03*
X0042372Y0285752D03*
X0050246Y0277878D03*
X0044734Y0266067D03*
X0053396Y0252681D03*
X0051821Y0243232D03*
X0047097Y0243232D03*
X0052608Y0219610D03*
X0047097Y0217248D03*
X0047097Y0209374D03*
X0051821Y0201500D03*
X0047884Y0197563D03*
X0051821Y0188114D03*
X0056545Y0191264D03*
X0059695Y0199925D03*
X0059695Y0180240D03*
X0064419Y0177878D03*
X0062845Y0164492D03*
X0062057Y0151894D03*
X0063632Y0141657D03*
X0063632Y0130634D03*
X0063632Y0125122D03*
X0059695Y0129846D03*
X0054183Y0113311D03*
X0051821Y0118035D03*
X0048671Y0121185D03*
X0048671Y0125909D03*
X0047884Y0135358D03*
X0043160Y0125909D03*
X0041585Y0121185D03*
X0038435Y0118035D03*
X0037648Y0125909D03*
X0032923Y0113311D03*
X0032923Y0109374D03*
X0032923Y0097563D03*
X0039223Y0097563D03*
X0042372Y0099138D03*
X0045522Y0099925D03*
X0051821Y0098350D03*
X0043947Y0082602D03*
X0043947Y0069217D03*
X0043947Y0064492D03*
X0038435Y0057406D03*
X0039223Y0028272D03*
X0038435Y0013311D03*
X0053396Y0040870D03*
X0058120Y0056618D03*
X0058120Y0061343D03*
X0062057Y0061343D03*
X0062057Y0056618D03*
X0065994Y0055043D03*
X0066782Y0060555D03*
X0071506Y0074728D03*
X0066782Y0077878D03*
X0062057Y0084965D03*
X0060482Y0074728D03*
X0072293Y0060555D03*
X0065207Y0029059D03*
X0065994Y0013311D03*
X0093553Y0013311D03*
X0110876Y0030634D03*
X0110876Y0058193D03*
X0110876Y0086539D03*
X0086467Y0144807D03*
X0081742Y0159768D03*
X0074656Y0170791D03*
X0073868Y0194413D03*
X0069931Y0204650D03*
X0069931Y0218823D03*
X0069931Y0234571D03*
X0071506Y0240083D03*
X0065994Y0240083D03*
X0065994Y0244807D03*
X0066782Y0251106D03*
X0066782Y0255043D03*
X0084104Y0291264D03*
X0088041Y0294413D03*
X0090404Y0280240D03*
X0088829Y0270004D03*
X0089616Y0265280D03*
X0088829Y0260555D03*
X0089616Y0255831D03*
X0088829Y0251894D03*
X0089616Y0247169D03*
X0089616Y0240870D03*
X0090404Y0234571D03*
X0088041Y0228272D03*
X0094341Y0225122D03*
X0095128Y0228272D03*
X0096703Y0234571D03*
X0102215Y0220398D03*
X0098278Y0218823D03*
X0095915Y0216461D03*
X0107726Y0222760D03*
X0110876Y0215673D03*
X0096703Y0280240D03*
X0096703Y0305437D03*
X0084104Y0314098D03*
X0108514Y0290476D03*
X0110876Y0303862D03*
X0058908Y0312524D03*
X0038435Y0320398D03*
X0032136Y0299138D03*
X0030561Y0295988D03*
X0030561Y0289689D03*
X0031349Y0283390D03*
X0030561Y0280240D03*
X0030561Y0277091D03*
X0032923Y0274728D03*
X0031349Y0271579D03*
X0026624Y0257406D03*
X0026624Y0247169D03*
X0026624Y0238508D03*
X0028986Y0232209D03*
X0030561Y0222760D03*
X0027412Y0220398D03*
X0030561Y0206224D03*
X0027412Y0203075D03*
X0030561Y0196776D03*
X0027412Y0193626D03*
X0030561Y0162130D03*
X0027412Y0158980D03*
X0025049Y0152681D03*
X0031349Y0152681D03*
X0037648Y0152681D03*
X0042372Y0152681D03*
X0047097Y0152681D03*
X0051821Y0152681D03*
X0056545Y0152681D03*
X0056545Y0164492D03*
X0050246Y0164492D03*
X0041585Y0217248D03*
X0035286Y0252681D03*
X0034498Y0286539D03*
X0020325Y0284965D03*
X0020325Y0303862D03*
X0020325Y0264492D03*
X0073081Y0140870D03*
X0075443Y0133783D03*
X0075443Y0128272D03*
X0074656Y0123547D03*
X0078593Y0130634D03*
X0078593Y0136146D03*
X0080167Y0140870D03*
X0080167Y0121972D03*
X0080955Y0117248D03*
X0073868Y0108587D03*
X0067569Y0108587D03*
X0027412Y0109374D03*
X0027412Y0113311D03*
X0022687Y0115673D03*
X0021900Y0112524D03*
X0020325Y0101500D03*
X0020325Y0069217D03*
X0023475Y0055831D03*
X0020325Y0032209D03*
D18*
X0018606Y0032165D02*
X0112595Y0032165D01*
X0112595Y0031380D02*
X0018606Y0031380D01*
X0018606Y0030594D02*
X0112595Y0030594D01*
X0112595Y0029808D02*
X0018606Y0029808D01*
X0018606Y0029022D02*
X0023212Y0029022D01*
X0023388Y0029083D02*
X0022301Y0028703D01*
X0021264Y0028203D01*
X0020289Y0027591D01*
X0019388Y0026873D01*
X0018606Y0026091D01*
X0018606Y0307618D01*
X0019388Y0306836D01*
X0020289Y0306118D01*
X0021264Y0305505D01*
X0022301Y0305006D01*
X0023388Y0304625D01*
X0024510Y0304369D01*
X0025655Y0304240D01*
X0025837Y0304240D01*
X0025837Y0314098D01*
X0026624Y0314098D01*
X0026624Y0304240D01*
X0026806Y0304240D01*
X0027950Y0304369D01*
X0029073Y0304625D01*
X0030160Y0305006D01*
X0031197Y0305505D01*
X0032172Y0306118D01*
X0033073Y0306836D01*
X0033887Y0307650D01*
X0034605Y0308550D01*
X0035217Y0309525D01*
X0035717Y0310563D01*
X0036097Y0311650D01*
X0036353Y0312772D01*
X0036482Y0313916D01*
X0036482Y0314098D01*
X0026624Y0314098D01*
X0026624Y0314886D01*
X0036482Y0314886D01*
X0036482Y0315068D01*
X0036353Y0316212D01*
X0036097Y0317335D01*
X0035717Y0318422D01*
X0035217Y0319459D01*
X0034605Y0320434D01*
X0033887Y0321334D01*
X0033105Y0322116D01*
X0098096Y0322116D01*
X0097314Y0321334D01*
X0096596Y0320434D01*
X0095984Y0319459D01*
X0095484Y0318422D01*
X0095104Y0317335D01*
X0094848Y0316212D01*
X0094719Y0315068D01*
X0094719Y0314886D01*
X0104577Y0314886D01*
X0104577Y0314098D01*
X0105364Y0314098D01*
X0105364Y0304240D01*
X0105546Y0304240D01*
X0106691Y0304369D01*
X0107813Y0304625D01*
X0108900Y0305006D01*
X0109937Y0305505D01*
X0110912Y0306118D01*
X0111813Y0306836D01*
X0112595Y0307618D01*
X0112595Y0026091D01*
X0111813Y0026873D01*
X0110912Y0027591D01*
X0109937Y0028203D01*
X0108900Y0028703D01*
X0107813Y0029083D01*
X0106691Y0029340D01*
X0105546Y0029468D01*
X0105364Y0029468D01*
X0105364Y0019610D01*
X0104577Y0019610D01*
X0104577Y0018823D01*
X0094719Y0018823D01*
X0094719Y0018641D01*
X0094848Y0017497D01*
X0095104Y0016374D01*
X0095484Y0015287D01*
X0095984Y0014250D01*
X0096596Y0013275D01*
X0097314Y0012374D01*
X0098096Y0011593D01*
X0033105Y0011593D01*
X0033887Y0012374D01*
X0034605Y0013275D01*
X0035217Y0014250D01*
X0035717Y0015287D01*
X0036097Y0016374D01*
X0036353Y0017497D01*
X0036482Y0018641D01*
X0036482Y0018823D01*
X0026624Y0018823D01*
X0026624Y0019610D01*
X0036482Y0019610D01*
X0036482Y0019792D01*
X0036353Y0020937D01*
X0036097Y0022059D01*
X0035717Y0023146D01*
X0035217Y0024183D01*
X0034605Y0025158D01*
X0033887Y0026059D01*
X0033073Y0026873D01*
X0032172Y0027591D01*
X0031197Y0028203D01*
X0030160Y0028703D01*
X0029073Y0029083D01*
X0027950Y0029340D01*
X0026806Y0029468D01*
X0026624Y0029468D01*
X0026624Y0019610D01*
X0025837Y0019610D01*
X0025837Y0029468D01*
X0025655Y0029468D01*
X0024510Y0029340D01*
X0023388Y0029083D01*
X0021331Y0028236D02*
X0018606Y0028236D01*
X0018606Y0027450D02*
X0020112Y0027450D01*
X0019180Y0026664D02*
X0018606Y0026664D01*
X0018606Y0032951D02*
X0046294Y0032951D01*
X0045620Y0033230D02*
X0044496Y0034355D01*
X0043888Y0035823D01*
X0043888Y0037413D01*
X0044496Y0038882D01*
X0045620Y0040006D01*
X0047089Y0040614D01*
X0048679Y0040614D01*
X0050148Y0040006D01*
X0051272Y0038882D01*
X0051880Y0037413D01*
X0051880Y0035823D01*
X0051272Y0034355D01*
X0050148Y0033230D01*
X0048679Y0032622D01*
X0047089Y0032622D01*
X0045620Y0033230D01*
X0045113Y0033737D02*
X0018606Y0033737D01*
X0018606Y0034523D02*
X0044426Y0034523D01*
X0044101Y0035309D02*
X0018606Y0035309D01*
X0018606Y0036095D02*
X0043888Y0036095D01*
X0043888Y0036881D02*
X0018606Y0036881D01*
X0018606Y0037667D02*
X0043993Y0037667D01*
X0044319Y0038453D02*
X0018606Y0038453D01*
X0018606Y0039239D02*
X0044853Y0039239D01*
X0045666Y0040025D02*
X0018606Y0040025D01*
X0018606Y0040811D02*
X0112595Y0040811D01*
X0112595Y0041596D02*
X0018606Y0041596D01*
X0018606Y0042382D02*
X0112595Y0042382D01*
X0112595Y0043168D02*
X0018606Y0043168D01*
X0018606Y0043954D02*
X0112595Y0043954D01*
X0112595Y0044740D02*
X0085735Y0044740D01*
X0085626Y0044661D02*
X0086187Y0045069D01*
X0086677Y0045559D01*
X0087085Y0046120D01*
X0087400Y0046738D01*
X0087614Y0047398D01*
X0087715Y0048035D01*
X0083711Y0048035D01*
X0083711Y0044031D01*
X0084349Y0044132D01*
X0085008Y0044346D01*
X0085626Y0044661D01*
X0086644Y0045526D02*
X0112595Y0045526D01*
X0112595Y0046312D02*
X0087183Y0046312D01*
X0087517Y0047098D02*
X0112595Y0047098D01*
X0112595Y0047884D02*
X0087691Y0047884D01*
X0087715Y0048823D02*
X0087614Y0049461D01*
X0087400Y0050120D01*
X0087085Y0050738D01*
X0086677Y0051299D01*
X0086187Y0051789D01*
X0085626Y0052197D01*
X0085008Y0052512D01*
X0084349Y0052726D01*
X0083711Y0052827D01*
X0083711Y0048823D01*
X0087715Y0048823D01*
X0087615Y0049456D02*
X0112595Y0049456D01*
X0112595Y0050241D02*
X0087338Y0050241D01*
X0086875Y0051027D02*
X0112595Y0051027D01*
X0112595Y0051813D02*
X0086154Y0051813D01*
X0084739Y0052599D02*
X0112595Y0052599D01*
X0112595Y0053385D02*
X0018606Y0053385D01*
X0018606Y0052599D02*
X0081895Y0052599D01*
X0081626Y0052512D02*
X0081008Y0052197D01*
X0080447Y0051789D01*
X0079957Y0051299D01*
X0079549Y0050738D01*
X0079234Y0050120D01*
X0079020Y0049461D01*
X0078919Y0048823D01*
X0082923Y0048823D01*
X0082923Y0048035D01*
X0083711Y0048035D01*
X0083711Y0048823D01*
X0082923Y0048823D01*
X0082923Y0052827D01*
X0082285Y0052726D01*
X0081626Y0052512D01*
X0082923Y0052599D02*
X0083711Y0052599D01*
X0083711Y0051813D02*
X0082923Y0051813D01*
X0082923Y0051027D02*
X0083711Y0051027D01*
X0083711Y0050241D02*
X0082923Y0050241D01*
X0082923Y0049456D02*
X0083711Y0049456D01*
X0083711Y0048670D02*
X0112595Y0048670D01*
X0112595Y0054171D02*
X0018606Y0054171D01*
X0018606Y0054957D02*
X0112595Y0054957D01*
X0112595Y0055743D02*
X0018606Y0055743D01*
X0018606Y0056529D02*
X0112595Y0056529D01*
X0112595Y0057315D02*
X0018606Y0057315D01*
X0018606Y0058101D02*
X0112595Y0058101D01*
X0112595Y0058887D02*
X0018606Y0058887D01*
X0018606Y0059672D02*
X0112595Y0059672D01*
X0112595Y0060458D02*
X0018606Y0060458D01*
X0018606Y0061244D02*
X0112595Y0061244D01*
X0112595Y0062030D02*
X0018606Y0062030D01*
X0018606Y0062816D02*
X0112595Y0062816D01*
X0112595Y0063602D02*
X0018606Y0063602D01*
X0018606Y0064388D02*
X0112595Y0064388D01*
X0112595Y0065174D02*
X0018606Y0065174D01*
X0018606Y0065960D02*
X0112595Y0065960D01*
X0112595Y0066746D02*
X0018606Y0066746D01*
X0018606Y0067532D02*
X0112595Y0067532D01*
X0112595Y0068317D02*
X0018606Y0068317D01*
X0018606Y0069103D02*
X0112595Y0069103D01*
X0112595Y0069889D02*
X0018606Y0069889D01*
X0018606Y0070675D02*
X0112595Y0070675D01*
X0112595Y0071461D02*
X0018606Y0071461D01*
X0018606Y0072247D02*
X0112595Y0072247D01*
X0112595Y0073033D02*
X0018606Y0073033D01*
X0018606Y0073819D02*
X0112595Y0073819D01*
X0112595Y0074605D02*
X0018606Y0074605D01*
X0018606Y0075391D02*
X0112595Y0075391D01*
X0112595Y0076177D02*
X0018606Y0076177D01*
X0018606Y0076963D02*
X0112595Y0076963D01*
X0112595Y0077748D02*
X0018606Y0077748D01*
X0018606Y0078534D02*
X0112595Y0078534D01*
X0112595Y0079320D02*
X0018606Y0079320D01*
X0018606Y0080106D02*
X0112595Y0080106D01*
X0112595Y0080892D02*
X0018606Y0080892D01*
X0018606Y0081678D02*
X0112595Y0081678D01*
X0112595Y0082464D02*
X0018606Y0082464D01*
X0018606Y0083250D02*
X0112595Y0083250D01*
X0112595Y0084036D02*
X0018606Y0084036D01*
X0018606Y0084822D02*
X0112595Y0084822D01*
X0112595Y0085608D02*
X0018606Y0085608D01*
X0018606Y0086393D02*
X0112595Y0086393D01*
X0112595Y0087179D02*
X0018606Y0087179D01*
X0018606Y0087965D02*
X0112595Y0087965D01*
X0112595Y0088751D02*
X0018606Y0088751D01*
X0018606Y0089537D02*
X0112595Y0089537D01*
X0112595Y0090323D02*
X0018606Y0090323D01*
X0018606Y0091109D02*
X0112595Y0091109D01*
X0112595Y0091895D02*
X0018606Y0091895D01*
X0018606Y0092681D02*
X0112595Y0092681D01*
X0112595Y0093467D02*
X0018606Y0093467D01*
X0018606Y0094253D02*
X0112595Y0094253D01*
X0112595Y0095039D02*
X0018606Y0095039D01*
X0018606Y0095824D02*
X0112595Y0095824D01*
X0112595Y0096610D02*
X0018606Y0096610D01*
X0018606Y0097396D02*
X0041038Y0097396D01*
X0041471Y0096963D02*
X0043273Y0096963D01*
X0044341Y0098031D01*
X0044621Y0097750D01*
X0046423Y0097750D01*
X0047697Y0099024D01*
X0047697Y0100826D01*
X0046423Y0102100D01*
X0045296Y0102100D01*
X0040581Y0106815D01*
X0034675Y0106815D01*
X0035876Y0108016D01*
X0035876Y0140299D01*
X0042943Y0147366D01*
X0055541Y0147366D01*
X0056349Y0148173D01*
X0056349Y0148173D01*
X0060286Y0152110D01*
X0060286Y0155614D01*
X0058691Y0157209D01*
X0057549Y0157209D01*
X0037864Y0157209D01*
X0037057Y0156401D01*
X0022884Y0142228D01*
X0022884Y0118252D01*
X0023288Y0117848D01*
X0021786Y0117848D01*
X0020512Y0116574D01*
X0020512Y0114772D01*
X0020793Y0114492D01*
X0019725Y0113424D01*
X0019725Y0111623D01*
X0020999Y0110349D01*
X0021309Y0110349D01*
X0021309Y0106441D01*
X0024459Y0103291D01*
X0025266Y0102484D01*
X0038652Y0102484D01*
X0040647Y0100489D01*
X0040197Y0100039D01*
X0040197Y0098237D01*
X0041471Y0096963D01*
X0040252Y0098182D02*
X0018606Y0098182D01*
X0018606Y0098968D02*
X0040197Y0098968D01*
X0040197Y0099754D02*
X0018606Y0099754D01*
X0018606Y0100540D02*
X0040596Y0100540D01*
X0039810Y0101326D02*
X0018606Y0101326D01*
X0018606Y0102112D02*
X0039024Y0102112D01*
X0039223Y0103862D02*
X0042372Y0100713D01*
X0042372Y0099138D01*
X0043706Y0097396D02*
X0112595Y0097396D01*
X0112595Y0098182D02*
X0046854Y0098182D01*
X0047640Y0098968D02*
X0112595Y0098968D01*
X0112595Y0099754D02*
X0047697Y0099754D01*
X0047697Y0100540D02*
X0112595Y0100540D01*
X0112595Y0101326D02*
X0047197Y0101326D01*
X0045284Y0102112D02*
X0112595Y0102112D01*
X0112595Y0102898D02*
X0044498Y0102898D01*
X0043712Y0103684D02*
X0112595Y0103684D01*
X0112595Y0104469D02*
X0042926Y0104469D01*
X0042140Y0105255D02*
X0112595Y0105255D01*
X0112595Y0106041D02*
X0041354Y0106041D01*
X0040010Y0105437D02*
X0045522Y0099925D01*
X0040010Y0105437D02*
X0026624Y0105437D01*
X0024262Y0107799D01*
X0024262Y0114098D01*
X0022687Y0115673D01*
X0020512Y0115472D02*
X0018606Y0115472D01*
X0018606Y0114686D02*
X0020598Y0114686D01*
X0020201Y0113900D02*
X0018606Y0113900D01*
X0018606Y0113115D02*
X0019725Y0113115D01*
X0019725Y0112329D02*
X0018606Y0112329D01*
X0018606Y0111543D02*
X0019805Y0111543D01*
X0020591Y0110757D02*
X0018606Y0110757D01*
X0018606Y0109971D02*
X0021309Y0109971D01*
X0021309Y0109185D02*
X0018606Y0109185D01*
X0018606Y0108399D02*
X0021309Y0108399D01*
X0021309Y0107613D02*
X0018606Y0107613D01*
X0018606Y0106827D02*
X0021309Y0106827D01*
X0021709Y0106041D02*
X0018606Y0106041D01*
X0018606Y0105255D02*
X0022495Y0105255D01*
X0023281Y0104469D02*
X0018606Y0104469D01*
X0018606Y0103684D02*
X0024067Y0103684D01*
X0024853Y0102898D02*
X0018606Y0102898D01*
X0022687Y0107012D02*
X0022687Y0110949D01*
X0021900Y0111736D01*
X0021900Y0112524D01*
X0022687Y0107012D02*
X0025837Y0103862D01*
X0039223Y0103862D01*
X0035473Y0107613D02*
X0112595Y0107613D01*
X0112595Y0106827D02*
X0034687Y0106827D01*
X0033525Y0107613D02*
X0026810Y0107613D01*
X0027412Y0107012D02*
X0025837Y0108587D01*
X0025837Y0117248D01*
X0024262Y0118823D01*
X0024262Y0141657D01*
X0038435Y0155831D01*
X0058120Y0155831D01*
X0058908Y0155043D01*
X0058908Y0152681D01*
X0054971Y0148744D01*
X0042372Y0148744D01*
X0034498Y0140870D01*
X0034498Y0108587D01*
X0032923Y0107012D01*
X0027412Y0107012D01*
X0026024Y0108399D02*
X0034311Y0108399D01*
X0034498Y0109185D02*
X0025837Y0109185D01*
X0025837Y0109971D02*
X0034498Y0109971D01*
X0034498Y0110757D02*
X0025837Y0110757D01*
X0025837Y0111543D02*
X0034498Y0111543D01*
X0034498Y0112329D02*
X0025837Y0112329D01*
X0025837Y0113115D02*
X0034498Y0113115D01*
X0034498Y0113900D02*
X0025837Y0113900D01*
X0025837Y0114686D02*
X0034498Y0114686D01*
X0034498Y0115472D02*
X0025837Y0115472D01*
X0025837Y0116258D02*
X0034498Y0116258D01*
X0034498Y0117044D02*
X0025837Y0117044D01*
X0025255Y0117830D02*
X0034498Y0117830D01*
X0034498Y0118616D02*
X0024469Y0118616D01*
X0024262Y0119402D02*
X0034498Y0119402D01*
X0034498Y0120188D02*
X0024262Y0120188D01*
X0024262Y0120974D02*
X0034498Y0120974D01*
X0034498Y0121760D02*
X0024262Y0121760D01*
X0024262Y0122545D02*
X0034498Y0122545D01*
X0034498Y0123331D02*
X0024262Y0123331D01*
X0024262Y0124117D02*
X0034498Y0124117D01*
X0034498Y0124903D02*
X0024262Y0124903D01*
X0024262Y0125689D02*
X0034498Y0125689D01*
X0034498Y0126475D02*
X0024262Y0126475D01*
X0024262Y0127261D02*
X0034498Y0127261D01*
X0034498Y0128047D02*
X0024262Y0128047D01*
X0024262Y0128833D02*
X0034498Y0128833D01*
X0034498Y0129619D02*
X0024262Y0129619D01*
X0024262Y0130405D02*
X0034498Y0130405D01*
X0034498Y0131191D02*
X0024262Y0131191D01*
X0024262Y0131976D02*
X0034498Y0131976D01*
X0034498Y0132762D02*
X0024262Y0132762D01*
X0024262Y0133548D02*
X0034498Y0133548D01*
X0034498Y0134334D02*
X0024262Y0134334D01*
X0024262Y0135120D02*
X0034498Y0135120D01*
X0034498Y0135906D02*
X0024262Y0135906D01*
X0024262Y0136692D02*
X0034498Y0136692D01*
X0034498Y0137478D02*
X0024262Y0137478D01*
X0024262Y0138264D02*
X0034498Y0138264D01*
X0034498Y0139050D02*
X0024262Y0139050D01*
X0024262Y0139836D02*
X0034498Y0139836D01*
X0034498Y0140621D02*
X0024262Y0140621D01*
X0024262Y0141407D02*
X0035035Y0141407D01*
X0035821Y0142193D02*
X0024798Y0142193D01*
X0025584Y0142979D02*
X0036607Y0142979D01*
X0037393Y0143765D02*
X0026370Y0143765D01*
X0027155Y0144551D02*
X0038179Y0144551D01*
X0038965Y0145337D02*
X0027941Y0145337D01*
X0028727Y0146123D02*
X0039751Y0146123D01*
X0040537Y0146909D02*
X0029513Y0146909D01*
X0030299Y0147695D02*
X0041323Y0147695D01*
X0042109Y0148481D02*
X0031085Y0148481D01*
X0031871Y0149267D02*
X0055493Y0149267D01*
X0056279Y0150052D02*
X0032657Y0150052D01*
X0033443Y0150838D02*
X0057065Y0150838D01*
X0057851Y0151624D02*
X0034229Y0151624D01*
X0035015Y0152410D02*
X0058637Y0152410D01*
X0058908Y0153196D02*
X0035801Y0153196D01*
X0036586Y0153982D02*
X0058908Y0153982D01*
X0058908Y0154768D02*
X0037372Y0154768D01*
X0038158Y0155554D02*
X0058397Y0155554D01*
X0059560Y0156340D02*
X0112595Y0156340D01*
X0112595Y0157126D02*
X0058774Y0157126D01*
X0060286Y0155554D02*
X0112595Y0155554D01*
X0112595Y0154768D02*
X0060286Y0154768D01*
X0060286Y0153982D02*
X0112595Y0153982D01*
X0112595Y0153196D02*
X0060286Y0153196D01*
X0060286Y0152410D02*
X0112595Y0152410D01*
X0112595Y0151624D02*
X0059799Y0151624D01*
X0059014Y0150838D02*
X0112595Y0150838D01*
X0112595Y0150052D02*
X0058228Y0150052D01*
X0057442Y0149267D02*
X0112595Y0149267D01*
X0112595Y0148481D02*
X0056656Y0148481D01*
X0055870Y0147695D02*
X0112595Y0147695D01*
X0112595Y0146909D02*
X0042486Y0146909D01*
X0041700Y0146123D02*
X0112595Y0146123D01*
X0112595Y0145337D02*
X0040914Y0145337D01*
X0040128Y0144551D02*
X0112595Y0144551D01*
X0112595Y0143765D02*
X0039342Y0143765D01*
X0038556Y0142979D02*
X0112595Y0142979D01*
X0112595Y0142193D02*
X0037770Y0142193D01*
X0036984Y0141407D02*
X0112595Y0141407D01*
X0112595Y0140621D02*
X0036198Y0140621D01*
X0035876Y0139836D02*
X0112595Y0139836D01*
X0112595Y0139050D02*
X0035876Y0139050D01*
X0035876Y0138264D02*
X0112595Y0138264D01*
X0112595Y0137478D02*
X0048840Y0137478D01*
X0048785Y0137533D02*
X0046983Y0137533D01*
X0045709Y0136259D01*
X0045709Y0134457D01*
X0046983Y0133183D01*
X0048110Y0133183D01*
X0049675Y0131618D01*
X0058391Y0131618D01*
X0057520Y0130747D01*
X0057520Y0128946D01*
X0058794Y0127672D01*
X0059892Y0127672D01*
X0059892Y0120968D01*
X0054409Y0115486D01*
X0053282Y0115486D01*
X0052008Y0114212D01*
X0052008Y0112410D01*
X0053282Y0111136D01*
X0055084Y0111136D01*
X0056358Y0112410D01*
X0056358Y0113537D01*
X0061841Y0119020D01*
X0062648Y0119827D01*
X0062648Y0120221D01*
X0066191Y0116677D01*
X0066998Y0115870D01*
X0079257Y0115870D01*
X0080054Y0115073D01*
X0081856Y0115073D01*
X0083130Y0116347D01*
X0083130Y0118149D01*
X0081856Y0119423D01*
X0080054Y0119423D01*
X0079257Y0118626D01*
X0068140Y0118626D01*
X0065010Y0121756D01*
X0065010Y0123424D01*
X0065807Y0124221D01*
X0065807Y0126023D01*
X0064533Y0127297D01*
X0062731Y0127297D01*
X0062648Y0127213D01*
X0062648Y0128542D01*
X0062731Y0128459D01*
X0064533Y0128459D01*
X0065807Y0129733D01*
X0065807Y0131535D01*
X0064533Y0132809D01*
X0062731Y0132809D01*
X0062675Y0132752D01*
X0061860Y0133567D01*
X0061053Y0134374D01*
X0050817Y0134374D01*
X0050059Y0135132D01*
X0050059Y0136259D01*
X0048785Y0137533D01*
X0049626Y0136692D02*
X0112595Y0136692D01*
X0112595Y0135906D02*
X0050059Y0135906D01*
X0050071Y0135120D02*
X0112595Y0135120D01*
X0112595Y0134334D02*
X0061093Y0134334D01*
X0061879Y0133548D02*
X0112595Y0133548D01*
X0112595Y0132762D02*
X0064579Y0132762D01*
X0065365Y0131976D02*
X0112595Y0131976D01*
X0112595Y0131191D02*
X0065807Y0131191D01*
X0065807Y0130405D02*
X0112595Y0130405D01*
X0112595Y0129619D02*
X0065692Y0129619D01*
X0064907Y0128833D02*
X0112595Y0128833D01*
X0112595Y0128047D02*
X0062648Y0128047D01*
X0062648Y0127261D02*
X0062695Y0127261D01*
X0061270Y0128272D02*
X0059695Y0129846D01*
X0057520Y0129619D02*
X0035876Y0129619D01*
X0035876Y0130405D02*
X0057520Y0130405D01*
X0057963Y0131191D02*
X0035876Y0131191D01*
X0035876Y0131976D02*
X0049317Y0131976D01*
X0048531Y0132762D02*
X0035876Y0132762D01*
X0035876Y0133548D02*
X0046618Y0133548D01*
X0045832Y0134334D02*
X0035876Y0134334D01*
X0035876Y0135120D02*
X0045709Y0135120D01*
X0045709Y0135906D02*
X0035876Y0135906D01*
X0035876Y0136692D02*
X0046142Y0136692D01*
X0046928Y0137478D02*
X0035876Y0137478D01*
X0035876Y0128833D02*
X0057633Y0128833D01*
X0058419Y0128047D02*
X0035876Y0128047D01*
X0035876Y0127261D02*
X0059892Y0127261D01*
X0059892Y0126475D02*
X0035876Y0126475D01*
X0035876Y0125689D02*
X0059892Y0125689D01*
X0059892Y0124903D02*
X0035876Y0124903D01*
X0035876Y0124117D02*
X0059892Y0124117D01*
X0059892Y0123331D02*
X0035876Y0123331D01*
X0035876Y0122545D02*
X0059892Y0122545D01*
X0059892Y0121760D02*
X0035876Y0121760D01*
X0035876Y0120974D02*
X0059892Y0120974D01*
X0059111Y0120188D02*
X0035876Y0120188D01*
X0035876Y0119402D02*
X0058325Y0119402D01*
X0057539Y0118616D02*
X0035876Y0118616D01*
X0035876Y0117830D02*
X0056753Y0117830D01*
X0055968Y0117044D02*
X0035876Y0117044D01*
X0035876Y0116258D02*
X0055182Y0116258D01*
X0057507Y0114686D02*
X0112595Y0114686D01*
X0112595Y0113900D02*
X0056721Y0113900D01*
X0056358Y0113115D02*
X0112595Y0113115D01*
X0112595Y0112329D02*
X0056276Y0112329D01*
X0055490Y0111543D02*
X0112595Y0111543D01*
X0112595Y0110757D02*
X0035876Y0110757D01*
X0035876Y0111543D02*
X0052876Y0111543D01*
X0052090Y0112329D02*
X0035876Y0112329D01*
X0035876Y0113115D02*
X0052008Y0113115D01*
X0052008Y0113900D02*
X0035876Y0113900D01*
X0035876Y0114686D02*
X0052483Y0114686D01*
X0053269Y0115472D02*
X0035876Y0115472D01*
X0035876Y0109971D02*
X0112595Y0109971D01*
X0112595Y0109185D02*
X0035876Y0109185D01*
X0035876Y0108399D02*
X0112595Y0108399D01*
X0112595Y0115472D02*
X0082255Y0115472D01*
X0083041Y0116258D02*
X0112595Y0116258D01*
X0112595Y0117044D02*
X0083130Y0117044D01*
X0083130Y0117830D02*
X0112595Y0117830D01*
X0112595Y0118616D02*
X0082663Y0118616D01*
X0081877Y0119402D02*
X0112595Y0119402D01*
X0112595Y0120188D02*
X0066578Y0120188D01*
X0065792Y0120974D02*
X0112595Y0120974D01*
X0112595Y0121760D02*
X0065010Y0121760D01*
X0065010Y0122545D02*
X0112595Y0122545D01*
X0112595Y0123331D02*
X0065010Y0123331D01*
X0065703Y0124117D02*
X0112595Y0124117D01*
X0112595Y0124903D02*
X0065807Y0124903D01*
X0065807Y0125689D02*
X0112595Y0125689D01*
X0112595Y0126475D02*
X0065355Y0126475D01*
X0064569Y0127261D02*
X0112595Y0127261D01*
X0112595Y0157912D02*
X0018606Y0157912D01*
X0018606Y0158697D02*
X0112595Y0158697D01*
X0112595Y0159483D02*
X0018606Y0159483D01*
X0018606Y0160269D02*
X0112595Y0160269D01*
X0112595Y0161055D02*
X0018606Y0161055D01*
X0018606Y0161841D02*
X0112595Y0161841D01*
X0112595Y0162627D02*
X0018606Y0162627D01*
X0018606Y0163413D02*
X0112595Y0163413D01*
X0112595Y0164199D02*
X0018606Y0164199D01*
X0018606Y0164985D02*
X0112595Y0164985D01*
X0112595Y0165771D02*
X0018606Y0165771D01*
X0018606Y0166557D02*
X0112595Y0166557D01*
X0112595Y0167343D02*
X0018606Y0167343D01*
X0018606Y0168128D02*
X0112595Y0168128D01*
X0112595Y0168914D02*
X0018606Y0168914D01*
X0018606Y0169700D02*
X0112595Y0169700D01*
X0112595Y0170486D02*
X0018606Y0170486D01*
X0018606Y0171272D02*
X0112595Y0171272D01*
X0112595Y0172058D02*
X0018606Y0172058D01*
X0018606Y0172844D02*
X0112595Y0172844D01*
X0112595Y0173630D02*
X0018606Y0173630D01*
X0018606Y0174416D02*
X0112595Y0174416D01*
X0112595Y0175202D02*
X0018606Y0175202D01*
X0018606Y0175988D02*
X0112595Y0175988D01*
X0112595Y0176773D02*
X0018606Y0176773D01*
X0018606Y0177559D02*
X0112595Y0177559D01*
X0112595Y0178345D02*
X0018606Y0178345D01*
X0018606Y0179131D02*
X0112595Y0179131D01*
X0112595Y0179917D02*
X0018606Y0179917D01*
X0018606Y0180703D02*
X0112595Y0180703D01*
X0112595Y0181489D02*
X0018606Y0181489D01*
X0018606Y0182275D02*
X0112595Y0182275D01*
X0112595Y0183061D02*
X0018606Y0183061D01*
X0018606Y0183847D02*
X0112595Y0183847D01*
X0112595Y0184633D02*
X0018606Y0184633D01*
X0018606Y0185419D02*
X0112595Y0185419D01*
X0112595Y0186204D02*
X0018606Y0186204D01*
X0018606Y0186990D02*
X0112595Y0186990D01*
X0112595Y0187776D02*
X0018606Y0187776D01*
X0018606Y0188562D02*
X0112595Y0188562D01*
X0112595Y0189348D02*
X0018606Y0189348D01*
X0018606Y0190134D02*
X0112595Y0190134D01*
X0112595Y0190920D02*
X0018606Y0190920D01*
X0018606Y0191706D02*
X0112595Y0191706D01*
X0112595Y0192492D02*
X0018606Y0192492D01*
X0018606Y0193278D02*
X0112595Y0193278D01*
X0112595Y0194064D02*
X0018606Y0194064D01*
X0018606Y0194849D02*
X0112595Y0194849D01*
X0112595Y0195635D02*
X0049032Y0195635D01*
X0048785Y0195388D02*
X0049582Y0196185D01*
X0057904Y0196185D01*
X0058711Y0196992D01*
X0059469Y0197750D01*
X0060596Y0197750D01*
X0061870Y0199024D01*
X0061870Y0200826D01*
X0060596Y0202100D01*
X0058794Y0202100D01*
X0057520Y0200826D01*
X0057520Y0199699D01*
X0056762Y0198941D01*
X0049582Y0198941D01*
X0048785Y0199738D01*
X0046983Y0199738D01*
X0045709Y0198464D01*
X0045709Y0196662D01*
X0046983Y0195388D01*
X0048785Y0195388D01*
X0046736Y0195635D02*
X0018606Y0195635D01*
X0018606Y0196421D02*
X0045950Y0196421D01*
X0045709Y0197207D02*
X0018606Y0197207D01*
X0018606Y0197993D02*
X0045709Y0197993D01*
X0046024Y0198779D02*
X0018606Y0198779D01*
X0018606Y0199565D02*
X0046810Y0199565D01*
X0048958Y0199565D02*
X0057386Y0199565D01*
X0057520Y0200351D02*
X0018606Y0200351D01*
X0018606Y0201137D02*
X0057831Y0201137D01*
X0058617Y0201923D02*
X0018606Y0201923D01*
X0018606Y0202709D02*
X0112595Y0202709D01*
X0112595Y0203495D02*
X0018606Y0203495D01*
X0018606Y0204280D02*
X0112595Y0204280D01*
X0112595Y0205066D02*
X0018606Y0205066D01*
X0018606Y0205852D02*
X0112595Y0205852D01*
X0112595Y0206638D02*
X0018606Y0206638D01*
X0018606Y0207424D02*
X0112595Y0207424D01*
X0112595Y0208210D02*
X0018606Y0208210D01*
X0018606Y0208996D02*
X0112595Y0208996D01*
X0112595Y0209782D02*
X0089950Y0209782D01*
X0089730Y0209561D02*
X0090527Y0210358D01*
X0095699Y0210358D01*
X0096506Y0211165D01*
X0099656Y0214315D01*
X0099656Y0217125D01*
X0100452Y0217922D01*
X0100452Y0219084D01*
X0101314Y0218223D01*
X0103115Y0218223D01*
X0104389Y0219497D01*
X0104389Y0221298D01*
X0103115Y0222572D01*
X0101314Y0222572D01*
X0101304Y0222563D01*
X0099636Y0222563D01*
X0098868Y0223331D01*
X0098868Y0224905D01*
X0098081Y0225693D01*
X0098081Y0227268D01*
X0097303Y0228046D01*
X0097303Y0229172D01*
X0096029Y0230446D01*
X0094227Y0230446D01*
X0092953Y0229172D01*
X0092953Y0227371D01*
X0093234Y0227091D01*
X0092166Y0226023D01*
X0092166Y0224221D01*
X0093440Y0222947D01*
X0094537Y0222947D01*
X0094537Y0218158D01*
X0093741Y0217361D01*
X0093741Y0215560D01*
X0095015Y0214286D01*
X0095729Y0214286D01*
X0094557Y0213114D01*
X0090527Y0213114D01*
X0089730Y0213911D01*
X0087928Y0213911D01*
X0086654Y0212637D01*
X0086654Y0210835D01*
X0087928Y0209561D01*
X0089730Y0209561D01*
X0087708Y0209782D02*
X0018606Y0209782D01*
X0018606Y0210568D02*
X0086922Y0210568D01*
X0086654Y0211354D02*
X0018606Y0211354D01*
X0018606Y0212140D02*
X0086654Y0212140D01*
X0086942Y0212925D02*
X0018606Y0212925D01*
X0018606Y0213711D02*
X0087728Y0213711D01*
X0088829Y0211736D02*
X0095128Y0211736D01*
X0098278Y0214886D01*
X0098278Y0218823D01*
X0100452Y0218427D02*
X0101110Y0218427D01*
X0100171Y0217641D02*
X0112595Y0217641D01*
X0112595Y0218427D02*
X0103320Y0218427D01*
X0104105Y0219213D02*
X0112595Y0219213D01*
X0112595Y0219999D02*
X0104389Y0219999D01*
X0104389Y0220785D02*
X0112595Y0220785D01*
X0112595Y0221570D02*
X0104117Y0221570D01*
X0103332Y0222356D02*
X0112595Y0222356D01*
X0112595Y0223142D02*
X0099056Y0223142D01*
X0098868Y0223928D02*
X0112595Y0223928D01*
X0112595Y0224714D02*
X0098868Y0224714D01*
X0098274Y0225500D02*
X0112595Y0225500D01*
X0112595Y0226286D02*
X0098081Y0226286D01*
X0098081Y0227072D02*
X0112595Y0227072D01*
X0112595Y0227858D02*
X0097491Y0227858D01*
X0097303Y0228644D02*
X0112595Y0228644D01*
X0112595Y0229430D02*
X0097046Y0229430D01*
X0096260Y0230216D02*
X0112595Y0230216D01*
X0112595Y0231001D02*
X0098974Y0231001D01*
X0098816Y0230910D02*
X0099133Y0231093D01*
X0099393Y0231353D01*
X0099576Y0231671D01*
X0099671Y0232025D01*
X0099671Y0234177D01*
X0093750Y0234177D01*
X0093750Y0230815D01*
X0098461Y0230815D01*
X0098816Y0230910D01*
X0099608Y0231787D02*
X0112595Y0231787D01*
X0112595Y0232573D02*
X0099671Y0232573D01*
X0099671Y0233359D02*
X0112595Y0233359D01*
X0112595Y0234145D02*
X0099671Y0234145D01*
X0099671Y0234965D02*
X0099671Y0237117D01*
X0099576Y0237471D01*
X0099393Y0237789D01*
X0099133Y0238048D01*
X0098816Y0238232D01*
X0098461Y0238327D01*
X0093750Y0238327D01*
X0093750Y0234965D01*
X0092963Y0234965D01*
X0092963Y0238327D01*
X0088252Y0238327D01*
X0088005Y0238261D01*
X0087656Y0239104D01*
X0086216Y0240544D01*
X0084335Y0241323D01*
X0082299Y0241323D01*
X0081416Y0240957D01*
X0081545Y0241087D01*
X0081545Y0246165D01*
X0080738Y0246972D01*
X0079951Y0247760D01*
X0075516Y0247760D01*
X0075640Y0247884D01*
X0075640Y0251849D01*
X0075122Y0252366D01*
X0075640Y0252884D01*
X0075640Y0256849D01*
X0075122Y0257366D01*
X0075640Y0257884D01*
X0075640Y0261849D01*
X0075122Y0262366D01*
X0075640Y0262884D01*
X0075640Y0266849D01*
X0075122Y0267366D01*
X0075640Y0267884D01*
X0075640Y0271849D01*
X0075063Y0272425D01*
X0068342Y0272425D01*
X0067889Y0271972D01*
X0067682Y0272179D01*
X0065881Y0272179D01*
X0064607Y0270905D01*
X0064607Y0270190D01*
X0064223Y0270575D01*
X0063415Y0271382D01*
X0063361Y0271382D01*
X0064232Y0272253D01*
X0064232Y0274054D01*
X0064176Y0274111D01*
X0065778Y0275713D01*
X0066585Y0276520D01*
X0066585Y0284394D01*
X0067352Y0285161D01*
X0072077Y0285161D01*
X0075226Y0288311D01*
X0081171Y0288311D01*
X0081959Y0287524D01*
X0086250Y0287524D01*
X0088132Y0289406D01*
X0088493Y0289646D01*
X0088523Y0289797D01*
X0088632Y0289906D01*
X0088632Y0290340D01*
X0089029Y0292325D01*
X0090216Y0293513D01*
X0090216Y0295314D01*
X0088942Y0296588D01*
X0087141Y0296588D01*
X0085867Y0295314D01*
X0085867Y0293513D01*
X0086358Y0293021D01*
X0086202Y0292242D01*
X0085005Y0293439D01*
X0083204Y0293439D01*
X0082407Y0292642D01*
X0073297Y0292642D01*
X0071319Y0290663D01*
X0071319Y0291377D01*
X0070045Y0292651D01*
X0068243Y0292651D01*
X0067446Y0291854D01*
X0062657Y0291854D01*
X0062657Y0292952D01*
X0062377Y0293232D01*
X0063445Y0294300D01*
X0063445Y0296102D01*
X0062171Y0297376D01*
X0060369Y0297376D01*
X0059095Y0296102D01*
X0059095Y0295791D01*
X0058337Y0295791D01*
X0057549Y0295004D01*
X0055187Y0295004D01*
X0054380Y0294197D01*
X0054380Y0294197D01*
X0048101Y0287917D01*
X0046526Y0287917D01*
X0043376Y0284768D01*
X0038219Y0284768D01*
X0036673Y0286313D01*
X0036673Y0287440D01*
X0035399Y0288714D01*
X0033597Y0288714D01*
X0032323Y0287440D01*
X0032323Y0285639D01*
X0033597Y0284365D01*
X0034724Y0284365D01*
X0035896Y0283193D01*
X0033927Y0283193D01*
X0033523Y0282789D01*
X0033523Y0284291D01*
X0032249Y0285565D01*
X0031939Y0285565D01*
X0031939Y0287991D01*
X0032736Y0288788D01*
X0032736Y0290590D01*
X0031462Y0291864D01*
X0029960Y0291864D01*
X0030344Y0292248D01*
X0039439Y0292248D01*
X0040227Y0291461D01*
X0044518Y0291461D01*
X0045325Y0292268D01*
X0046112Y0293055D01*
X0046112Y0296992D01*
X0046880Y0297760D01*
X0046974Y0297760D01*
X0047771Y0296963D01*
X0049572Y0296963D01*
X0050846Y0298237D01*
X0050846Y0300039D01*
X0049572Y0301313D01*
X0047771Y0301313D01*
X0046974Y0300516D01*
X0045738Y0300516D01*
X0044547Y0299324D01*
X0044547Y0300039D01*
X0043273Y0301313D01*
X0041471Y0301313D01*
X0040197Y0300039D01*
X0040197Y0298912D01*
X0039439Y0298154D01*
X0035069Y0298154D01*
X0034311Y0298912D01*
X0034311Y0300039D01*
X0033037Y0301313D01*
X0031235Y0301313D01*
X0029961Y0300039D01*
X0029961Y0298237D01*
X0030035Y0298163D01*
X0029660Y0298163D01*
X0028386Y0296889D01*
X0028386Y0295087D01*
X0028836Y0294637D01*
X0026841Y0292642D01*
X0026034Y0291835D01*
X0026034Y0271008D01*
X0031545Y0265496D01*
X0032353Y0264689D01*
X0043037Y0264689D01*
X0043834Y0263892D01*
X0045635Y0263892D01*
X0046909Y0265166D01*
X0046909Y0266968D01*
X0045635Y0268242D01*
X0043834Y0268242D01*
X0043037Y0267445D01*
X0033494Y0267445D01*
X0028789Y0272150D01*
X0028789Y0275787D01*
X0029660Y0274916D01*
X0030749Y0274916D01*
X0030749Y0273828D01*
X0032022Y0272554D01*
X0033824Y0272554D01*
X0035098Y0273828D01*
X0035098Y0275629D01*
X0035042Y0275685D01*
X0036644Y0277287D01*
X0046880Y0277287D01*
X0047687Y0278095D01*
X0050030Y0280437D01*
X0051604Y0280437D01*
X0052412Y0281244D01*
X0057904Y0286736D01*
X0065030Y0286736D01*
X0063829Y0285535D01*
X0063829Y0285481D01*
X0062958Y0286352D01*
X0061156Y0286352D01*
X0059882Y0285078D01*
X0059882Y0283276D01*
X0061156Y0282002D01*
X0061467Y0282002D01*
X0061467Y0280363D01*
X0060670Y0279566D01*
X0060670Y0277765D01*
X0061944Y0276491D01*
X0062658Y0276491D01*
X0061496Y0275328D01*
X0061156Y0275328D01*
X0060089Y0274261D01*
X0059021Y0275328D01*
X0057219Y0275328D01*
X0055945Y0274054D01*
X0055945Y0272253D01*
X0057219Y0270979D01*
X0058346Y0270979D01*
X0060699Y0268626D01*
X0062254Y0268626D01*
X0062254Y0264709D01*
X0063061Y0263902D01*
X0064663Y0262300D01*
X0064607Y0262243D01*
X0064607Y0260442D01*
X0065881Y0259168D01*
X0067008Y0259168D01*
X0067687Y0258488D01*
X0067766Y0258488D01*
X0067766Y0257884D01*
X0068283Y0257366D01*
X0067909Y0256992D01*
X0067682Y0257218D01*
X0065881Y0257218D01*
X0064607Y0255944D01*
X0064607Y0254142D01*
X0065674Y0253075D01*
X0064607Y0252007D01*
X0064607Y0250205D01*
X0065881Y0248931D01*
X0067008Y0248931D01*
X0067451Y0248488D01*
X0067766Y0248488D01*
X0067766Y0247884D01*
X0067890Y0247760D01*
X0064636Y0247760D01*
X0063041Y0246165D01*
X0063041Y0238724D01*
X0063849Y0237917D01*
X0064636Y0237130D01*
X0066966Y0237130D01*
X0066963Y0237117D01*
X0066963Y0234965D01*
X0072884Y0234965D01*
X0072884Y0234177D01*
X0073671Y0234177D01*
X0073671Y0230815D01*
X0078382Y0230815D01*
X0078737Y0230910D01*
X0079055Y0231093D01*
X0079314Y0231353D01*
X0079498Y0231671D01*
X0079593Y0232025D01*
X0079593Y0232691D01*
X0080418Y0231866D01*
X0082299Y0231087D01*
X0084335Y0231087D01*
X0086216Y0231866D01*
X0087041Y0232691D01*
X0087041Y0232025D01*
X0087136Y0231671D01*
X0087320Y0231353D01*
X0087579Y0231093D01*
X0087897Y0230910D01*
X0088252Y0230815D01*
X0092963Y0230815D01*
X0092963Y0234177D01*
X0093750Y0234177D01*
X0093750Y0234965D01*
X0099671Y0234965D01*
X0099671Y0235717D02*
X0112595Y0235717D01*
X0112595Y0236503D02*
X0099671Y0236503D01*
X0099625Y0237289D02*
X0112595Y0237289D01*
X0112595Y0238075D02*
X0099088Y0238075D01*
X0098292Y0242307D02*
X0098868Y0242884D01*
X0098868Y0246849D01*
X0098614Y0247103D01*
X0098740Y0247176D01*
X0098999Y0247436D01*
X0099183Y0247753D01*
X0099278Y0248108D01*
X0099278Y0249472D01*
X0095325Y0249472D01*
X0095325Y0250260D01*
X0099278Y0250260D01*
X0099278Y0251624D01*
X0099183Y0251979D01*
X0098999Y0252297D01*
X0098740Y0252556D01*
X0098614Y0252629D01*
X0098868Y0252884D01*
X0098868Y0256849D01*
X0098614Y0257103D01*
X0098740Y0257176D01*
X0098999Y0257436D01*
X0099183Y0257753D01*
X0099278Y0258108D01*
X0099278Y0259472D01*
X0095325Y0259472D01*
X0095325Y0260260D01*
X0099278Y0260260D01*
X0099278Y0261624D01*
X0099183Y0261979D01*
X0098999Y0262297D01*
X0098740Y0262556D01*
X0098614Y0262629D01*
X0098868Y0262884D01*
X0098868Y0266849D01*
X0098614Y0267103D01*
X0098740Y0267176D01*
X0098999Y0267436D01*
X0099183Y0267753D01*
X0099278Y0268108D01*
X0099278Y0269472D01*
X0095325Y0269472D01*
X0095325Y0270260D01*
X0094538Y0270260D01*
X0094538Y0272835D01*
X0091795Y0272835D01*
X0091440Y0272740D01*
X0091123Y0272556D01*
X0090863Y0272297D01*
X0090680Y0271979D01*
X0090585Y0271624D01*
X0090585Y0270260D01*
X0094537Y0270260D01*
X0094537Y0269472D01*
X0090585Y0269472D01*
X0090585Y0268108D01*
X0090680Y0267753D01*
X0090863Y0267436D01*
X0091123Y0267176D01*
X0091249Y0267103D01*
X0091058Y0266913D01*
X0090517Y0267454D01*
X0088715Y0267454D01*
X0087441Y0266180D01*
X0087441Y0264379D01*
X0088715Y0263105D01*
X0090517Y0263105D01*
X0090901Y0263488D01*
X0090994Y0263488D01*
X0090994Y0262884D01*
X0091249Y0262629D01*
X0091123Y0262556D01*
X0090863Y0262297D01*
X0090680Y0261979D01*
X0090585Y0261624D01*
X0090585Y0260260D01*
X0094537Y0260260D01*
X0094537Y0259472D01*
X0090585Y0259472D01*
X0090585Y0258108D01*
X0090647Y0257876D01*
X0090517Y0258005D01*
X0088715Y0258005D01*
X0087441Y0256732D01*
X0087441Y0254930D01*
X0088715Y0253656D01*
X0089842Y0253656D01*
X0090010Y0253488D01*
X0090994Y0253488D01*
X0090994Y0252884D01*
X0091249Y0252629D01*
X0091123Y0252556D01*
X0090863Y0252297D01*
X0090680Y0251979D01*
X0090585Y0251624D01*
X0090585Y0250260D01*
X0094537Y0250260D01*
X0094537Y0249472D01*
X0090585Y0249472D01*
X0090585Y0249276D01*
X0090517Y0249344D01*
X0088715Y0249344D01*
X0087441Y0248070D01*
X0087441Y0246268D01*
X0088715Y0244994D01*
X0089842Y0244994D01*
X0090994Y0243843D01*
X0090994Y0242884D01*
X0091571Y0242307D01*
X0098292Y0242307D01*
X0098775Y0242790D02*
X0112595Y0242790D01*
X0112595Y0242004D02*
X0081545Y0242004D01*
X0081545Y0241218D02*
X0082047Y0241218D01*
X0081545Y0242790D02*
X0091088Y0242790D01*
X0090994Y0243576D02*
X0081545Y0243576D01*
X0081545Y0244362D02*
X0090475Y0244362D01*
X0091919Y0244866D02*
X0089616Y0247169D01*
X0087776Y0245934D02*
X0081545Y0245934D01*
X0081545Y0245148D02*
X0088562Y0245148D01*
X0087441Y0246720D02*
X0080991Y0246720D01*
X0080205Y0247506D02*
X0087441Y0247506D01*
X0087663Y0248292D02*
X0075640Y0248292D01*
X0075640Y0249077D02*
X0088449Y0249077D01*
X0088578Y0253793D02*
X0075640Y0253793D01*
X0075640Y0254579D02*
X0087792Y0254579D01*
X0087441Y0255365D02*
X0075640Y0255365D01*
X0075640Y0256151D02*
X0087441Y0256151D01*
X0087646Y0256937D02*
X0075552Y0256937D01*
X0075479Y0257722D02*
X0088432Y0257722D01*
X0089616Y0255831D02*
X0090581Y0254866D01*
X0094931Y0254866D01*
X0094537Y0249863D02*
X0075640Y0249863D01*
X0075640Y0250649D02*
X0090585Y0250649D01*
X0090585Y0251435D02*
X0075640Y0251435D01*
X0075267Y0252221D02*
X0090820Y0252221D01*
X0090994Y0253007D02*
X0075640Y0253007D01*
X0075640Y0258508D02*
X0090585Y0258508D01*
X0090585Y0259294D02*
X0075640Y0259294D01*
X0075640Y0260080D02*
X0094537Y0260080D01*
X0095325Y0260080D02*
X0112595Y0260080D01*
X0112595Y0259294D02*
X0099278Y0259294D01*
X0099278Y0258508D02*
X0112595Y0258508D01*
X0112595Y0257722D02*
X0099165Y0257722D01*
X0098780Y0256937D02*
X0112595Y0256937D01*
X0112595Y0256151D02*
X0098868Y0256151D01*
X0098868Y0255365D02*
X0112595Y0255365D01*
X0112595Y0254579D02*
X0098868Y0254579D01*
X0098868Y0253793D02*
X0112595Y0253793D01*
X0112595Y0253007D02*
X0098868Y0253007D01*
X0099043Y0252221D02*
X0112595Y0252221D01*
X0112595Y0251435D02*
X0099278Y0251435D01*
X0099278Y0250649D02*
X0112595Y0250649D01*
X0112595Y0249863D02*
X0095325Y0249863D01*
X0094931Y0244866D02*
X0091919Y0244866D01*
X0092963Y0238075D02*
X0093750Y0238075D01*
X0093750Y0237289D02*
X0092963Y0237289D01*
X0092963Y0236503D02*
X0093750Y0236503D01*
X0093750Y0235717D02*
X0092963Y0235717D01*
X0092963Y0234965D02*
X0088343Y0234965D01*
X0088017Y0234177D01*
X0092963Y0234177D01*
X0092963Y0234965D01*
X0092963Y0234931D02*
X0088329Y0234931D01*
X0087041Y0232573D02*
X0086924Y0232573D01*
X0087105Y0231787D02*
X0086027Y0231787D01*
X0087739Y0231001D02*
X0078895Y0231001D01*
X0079529Y0231787D02*
X0080607Y0231787D01*
X0079710Y0232573D02*
X0079593Y0232573D01*
X0078617Y0234177D02*
X0073671Y0234177D01*
X0073671Y0234965D01*
X0078291Y0234965D01*
X0078617Y0234177D01*
X0078305Y0234931D02*
X0073671Y0234931D01*
X0073671Y0234145D02*
X0072884Y0234145D01*
X0072884Y0234177D02*
X0072884Y0230815D01*
X0068173Y0230815D01*
X0067818Y0230910D01*
X0067501Y0231093D01*
X0067241Y0231353D01*
X0067058Y0231671D01*
X0066963Y0232025D01*
X0066963Y0234177D01*
X0072884Y0234177D01*
X0072884Y0234931D02*
X0018606Y0234931D01*
X0018606Y0234145D02*
X0066963Y0234145D01*
X0066963Y0233359D02*
X0018606Y0233359D01*
X0018606Y0232573D02*
X0066963Y0232573D01*
X0067026Y0231787D02*
X0018606Y0231787D01*
X0018606Y0231001D02*
X0067660Y0231001D01*
X0066963Y0235717D02*
X0018606Y0235717D01*
X0018606Y0236503D02*
X0066963Y0236503D01*
X0065207Y0238508D02*
X0064419Y0239295D01*
X0064419Y0245594D01*
X0065207Y0246382D01*
X0079380Y0246382D01*
X0080167Y0245594D01*
X0080167Y0241657D01*
X0078593Y0240083D01*
X0078593Y0239295D01*
X0077805Y0238508D01*
X0065207Y0238508D01*
X0064854Y0238861D02*
X0078158Y0238861D01*
X0078593Y0239646D02*
X0064419Y0239646D01*
X0064419Y0240432D02*
X0078942Y0240432D01*
X0079728Y0241218D02*
X0064419Y0241218D01*
X0064419Y0242004D02*
X0080167Y0242004D01*
X0080167Y0242790D02*
X0064419Y0242790D01*
X0064419Y0243576D02*
X0080167Y0243576D01*
X0080167Y0244362D02*
X0064419Y0244362D01*
X0064419Y0245148D02*
X0080167Y0245148D01*
X0079828Y0245934D02*
X0064759Y0245934D01*
X0063596Y0246720D02*
X0018606Y0246720D01*
X0018606Y0247506D02*
X0064382Y0247506D01*
X0063041Y0245934D02*
X0018606Y0245934D01*
X0018606Y0245148D02*
X0063041Y0245148D01*
X0063041Y0244362D02*
X0018606Y0244362D01*
X0018606Y0243576D02*
X0063041Y0243576D01*
X0063041Y0242790D02*
X0018606Y0242790D01*
X0018606Y0242004D02*
X0063041Y0242004D01*
X0063041Y0241218D02*
X0018606Y0241218D01*
X0018606Y0240432D02*
X0063041Y0240432D01*
X0063041Y0239646D02*
X0018606Y0239646D01*
X0018606Y0238861D02*
X0063041Y0238861D01*
X0063691Y0238075D02*
X0018606Y0238075D01*
X0018606Y0237289D02*
X0064477Y0237289D01*
X0067766Y0248292D02*
X0018606Y0248292D01*
X0018606Y0249077D02*
X0065735Y0249077D01*
X0064949Y0249863D02*
X0018606Y0249863D01*
X0018606Y0250649D02*
X0064607Y0250649D01*
X0064607Y0251435D02*
X0018606Y0251435D01*
X0018606Y0252221D02*
X0064821Y0252221D01*
X0065607Y0253007D02*
X0018606Y0253007D01*
X0018606Y0253793D02*
X0064956Y0253793D01*
X0064607Y0254579D02*
X0018606Y0254579D01*
X0018606Y0255365D02*
X0064607Y0255365D01*
X0064813Y0256151D02*
X0018606Y0256151D01*
X0018606Y0256937D02*
X0065599Y0256937D01*
X0066782Y0255043D02*
X0066959Y0254866D01*
X0071703Y0254866D01*
X0071703Y0249866D02*
X0068022Y0249866D01*
X0066782Y0251106D01*
X0067927Y0257722D02*
X0018606Y0257722D01*
X0018606Y0258508D02*
X0067667Y0258508D01*
X0068258Y0259866D02*
X0066782Y0261343D01*
X0066782Y0262130D01*
X0063632Y0265280D01*
X0063632Y0269217D01*
X0062845Y0270004D01*
X0061270Y0270004D01*
X0058120Y0273154D01*
X0056329Y0271869D02*
X0029070Y0271869D01*
X0028789Y0272655D02*
X0031921Y0272655D01*
X0031135Y0273441D02*
X0028789Y0273441D01*
X0028789Y0274227D02*
X0030749Y0274227D01*
X0029563Y0275013D02*
X0028789Y0275013D01*
X0030561Y0277091D02*
X0032136Y0277091D01*
X0035286Y0280240D01*
X0045522Y0280240D01*
X0048671Y0283390D01*
X0050246Y0283390D01*
X0056545Y0289689D01*
X0062057Y0289689D01*
X0062845Y0290476D01*
X0069144Y0290476D01*
X0070393Y0292303D02*
X0072958Y0292303D01*
X0072172Y0291517D02*
X0071179Y0291517D01*
X0071319Y0290731D02*
X0071387Y0290731D01*
X0073868Y0291264D02*
X0070719Y0288114D01*
X0057333Y0288114D01*
X0051034Y0281815D01*
X0049459Y0281815D01*
X0046309Y0278665D01*
X0036073Y0278665D01*
X0032923Y0275516D01*
X0032923Y0274728D01*
X0034711Y0273441D02*
X0055945Y0273441D01*
X0055945Y0272655D02*
X0033925Y0272655D01*
X0035098Y0274227D02*
X0056118Y0274227D01*
X0056904Y0275013D02*
X0035098Y0275013D01*
X0035155Y0275798D02*
X0061966Y0275798D01*
X0061850Y0276584D02*
X0035941Y0276584D01*
X0032923Y0280240D02*
X0034498Y0281815D01*
X0044734Y0281815D01*
X0047884Y0284965D01*
X0049459Y0284965D01*
X0056545Y0292051D01*
X0060482Y0292051D01*
X0060482Y0294413D02*
X0058908Y0294413D01*
X0058120Y0293626D01*
X0055758Y0293626D01*
X0048671Y0286539D01*
X0047097Y0286539D01*
X0043947Y0283390D01*
X0037648Y0283390D01*
X0034498Y0286539D01*
X0032732Y0285229D02*
X0032584Y0285229D01*
X0032323Y0286015D02*
X0031939Y0286015D01*
X0031939Y0286801D02*
X0032323Y0286801D01*
X0032470Y0287587D02*
X0031939Y0287587D01*
X0032321Y0288373D02*
X0033256Y0288373D01*
X0032736Y0289159D02*
X0049342Y0289159D01*
X0048556Y0288373D02*
X0035740Y0288373D01*
X0036526Y0287587D02*
X0046196Y0287587D01*
X0045410Y0286801D02*
X0036673Y0286801D01*
X0036971Y0286015D02*
X0044624Y0286015D01*
X0043838Y0285229D02*
X0037757Y0285229D01*
X0035431Y0283658D02*
X0033523Y0283658D01*
X0033518Y0284444D02*
X0033370Y0284444D01*
X0033523Y0282872D02*
X0033606Y0282872D01*
X0032923Y0280240D02*
X0030561Y0280240D01*
X0031349Y0283390D02*
X0030561Y0284177D01*
X0030561Y0289689D01*
X0031809Y0291517D02*
X0040170Y0291517D01*
X0040797Y0292839D02*
X0040010Y0293626D01*
X0029774Y0293626D01*
X0027412Y0291264D01*
X0027412Y0271579D01*
X0032923Y0266067D01*
X0044734Y0266067D01*
X0046539Y0264796D02*
X0062254Y0264796D01*
X0062254Y0265582D02*
X0046909Y0265582D01*
X0046909Y0266368D02*
X0062254Y0266368D01*
X0062254Y0267153D02*
X0046723Y0267153D01*
X0045938Y0267939D02*
X0062254Y0267939D01*
X0060600Y0268725D02*
X0032214Y0268725D01*
X0033000Y0267939D02*
X0043531Y0267939D01*
X0043716Y0264010D02*
X0018606Y0264010D01*
X0018606Y0264796D02*
X0032246Y0264796D01*
X0031460Y0265582D02*
X0018606Y0265582D01*
X0018606Y0266368D02*
X0030674Y0266368D01*
X0029888Y0267153D02*
X0018606Y0267153D01*
X0018606Y0267939D02*
X0029102Y0267939D01*
X0028316Y0268725D02*
X0018606Y0268725D01*
X0018606Y0269511D02*
X0027530Y0269511D01*
X0026744Y0270297D02*
X0018606Y0270297D01*
X0018606Y0271083D02*
X0026034Y0271083D01*
X0026034Y0271869D02*
X0018606Y0271869D01*
X0018606Y0272655D02*
X0026034Y0272655D01*
X0026034Y0273441D02*
X0018606Y0273441D01*
X0018606Y0274227D02*
X0026034Y0274227D01*
X0026034Y0275013D02*
X0018606Y0275013D01*
X0018606Y0275798D02*
X0026034Y0275798D01*
X0026034Y0276584D02*
X0018606Y0276584D01*
X0018606Y0277370D02*
X0026034Y0277370D01*
X0026034Y0278156D02*
X0018606Y0278156D01*
X0018606Y0278942D02*
X0026034Y0278942D01*
X0026034Y0279728D02*
X0018606Y0279728D01*
X0018606Y0280514D02*
X0026034Y0280514D01*
X0026034Y0281300D02*
X0018606Y0281300D01*
X0018606Y0282086D02*
X0026034Y0282086D01*
X0026034Y0282872D02*
X0018606Y0282872D01*
X0018606Y0283658D02*
X0026034Y0283658D01*
X0026034Y0284444D02*
X0018606Y0284444D01*
X0018606Y0285229D02*
X0026034Y0285229D01*
X0026034Y0286015D02*
X0018606Y0286015D01*
X0018606Y0286801D02*
X0026034Y0286801D01*
X0026034Y0287587D02*
X0018606Y0287587D01*
X0018606Y0288373D02*
X0026034Y0288373D01*
X0026034Y0289159D02*
X0018606Y0289159D01*
X0018606Y0289945D02*
X0026034Y0289945D01*
X0026034Y0290731D02*
X0018606Y0290731D01*
X0018606Y0291517D02*
X0026034Y0291517D01*
X0026502Y0292303D02*
X0018606Y0292303D01*
X0018606Y0293089D02*
X0027288Y0293089D01*
X0028074Y0293874D02*
X0018606Y0293874D01*
X0018606Y0294660D02*
X0028813Y0294660D01*
X0028386Y0295446D02*
X0018606Y0295446D01*
X0018606Y0296232D02*
X0028386Y0296232D01*
X0028515Y0297018D02*
X0018606Y0297018D01*
X0018606Y0297804D02*
X0029301Y0297804D01*
X0029961Y0298590D02*
X0018606Y0298590D01*
X0018606Y0299376D02*
X0029961Y0299376D01*
X0030084Y0300162D02*
X0018606Y0300162D01*
X0018606Y0300948D02*
X0030870Y0300948D01*
X0032136Y0299138D02*
X0034498Y0296776D01*
X0040010Y0296776D01*
X0042372Y0299138D01*
X0041106Y0300948D02*
X0033402Y0300948D01*
X0034188Y0300162D02*
X0040321Y0300162D01*
X0040197Y0299376D02*
X0034311Y0299376D01*
X0034632Y0298590D02*
X0039876Y0298590D01*
X0040797Y0292839D02*
X0043947Y0292839D01*
X0044734Y0293626D01*
X0044734Y0297563D01*
X0046309Y0299138D01*
X0048671Y0299138D01*
X0047406Y0300948D02*
X0043638Y0300948D01*
X0044424Y0300162D02*
X0045384Y0300162D01*
X0044599Y0299376D02*
X0044547Y0299376D01*
X0046138Y0297018D02*
X0047715Y0297018D01*
X0046112Y0296232D02*
X0059226Y0296232D01*
X0060012Y0297018D02*
X0049627Y0297018D01*
X0050413Y0297804D02*
X0112595Y0297804D01*
X0112595Y0297018D02*
X0062528Y0297018D01*
X0063314Y0296232D02*
X0086785Y0296232D01*
X0085999Y0295446D02*
X0063445Y0295446D01*
X0063445Y0294660D02*
X0085867Y0294660D01*
X0085867Y0293874D02*
X0063019Y0293874D01*
X0062521Y0293089D02*
X0082854Y0293089D01*
X0084104Y0291264D02*
X0073868Y0291264D01*
X0074656Y0289689D02*
X0081742Y0289689D01*
X0082530Y0288902D01*
X0085679Y0288902D01*
X0087254Y0290476D01*
X0088041Y0294413D01*
X0086291Y0293089D02*
X0085355Y0293089D01*
X0086141Y0292303D02*
X0086214Y0292303D01*
X0088632Y0289945D02*
X0112595Y0289945D01*
X0112595Y0290731D02*
X0088710Y0290731D01*
X0088867Y0291517D02*
X0112595Y0291517D01*
X0112595Y0292303D02*
X0089025Y0292303D01*
X0089792Y0293089D02*
X0112595Y0293089D01*
X0112595Y0293874D02*
X0090216Y0293874D01*
X0090216Y0294660D02*
X0112595Y0294660D01*
X0112595Y0295446D02*
X0090084Y0295446D01*
X0089298Y0296232D02*
X0112595Y0296232D01*
X0112595Y0298590D02*
X0050846Y0298590D01*
X0050846Y0299376D02*
X0112595Y0299376D01*
X0112595Y0300162D02*
X0050723Y0300162D01*
X0049937Y0300948D02*
X0112595Y0300948D01*
X0112595Y0301734D02*
X0018606Y0301734D01*
X0018606Y0302520D02*
X0112595Y0302520D01*
X0112595Y0303305D02*
X0018606Y0303305D01*
X0018606Y0304091D02*
X0112595Y0304091D01*
X0112595Y0304877D02*
X0108533Y0304877D01*
X0110189Y0305663D02*
X0112595Y0305663D01*
X0112595Y0306449D02*
X0111328Y0306449D01*
X0112212Y0307235D02*
X0112595Y0307235D01*
X0112595Y0289159D02*
X0087885Y0289159D01*
X0087099Y0288373D02*
X0112595Y0288373D01*
X0112595Y0287587D02*
X0086314Y0287587D01*
X0087897Y0283901D02*
X0087579Y0283718D01*
X0087320Y0283458D01*
X0087136Y0283140D01*
X0087041Y0282786D01*
X0087041Y0282120D01*
X0086216Y0282945D01*
X0084335Y0283724D01*
X0082299Y0283724D01*
X0080418Y0282945D01*
X0079593Y0282120D01*
X0079593Y0282786D01*
X0079498Y0283140D01*
X0079314Y0283458D01*
X0079055Y0283718D01*
X0078737Y0283901D01*
X0078382Y0283996D01*
X0073671Y0283996D01*
X0073671Y0280634D01*
X0072884Y0280634D01*
X0072884Y0283996D01*
X0068173Y0283996D01*
X0067818Y0283901D01*
X0067501Y0283718D01*
X0067241Y0283458D01*
X0067058Y0283140D01*
X0066963Y0282786D01*
X0066963Y0280634D01*
X0072884Y0280634D01*
X0072884Y0279846D01*
X0073671Y0279846D01*
X0073671Y0276484D01*
X0078382Y0276484D01*
X0078629Y0276550D01*
X0078978Y0275707D01*
X0080418Y0274267D01*
X0082299Y0273488D01*
X0084335Y0273488D01*
X0086216Y0274267D01*
X0087656Y0275707D01*
X0088005Y0276550D01*
X0088252Y0276484D01*
X0092963Y0276484D01*
X0092963Y0279846D01*
X0093750Y0279846D01*
X0093750Y0276484D01*
X0098461Y0276484D01*
X0098816Y0276579D01*
X0099133Y0276763D01*
X0099393Y0277022D01*
X0099576Y0277340D01*
X0099671Y0277694D01*
X0099671Y0279846D01*
X0093750Y0279846D01*
X0093750Y0280634D01*
X0092963Y0280634D01*
X0092963Y0283996D01*
X0088252Y0283996D01*
X0087897Y0283901D01*
X0087519Y0283658D02*
X0084496Y0283658D01*
X0086290Y0282872D02*
X0087064Y0282872D01*
X0088017Y0280634D02*
X0092963Y0280634D01*
X0092963Y0279846D01*
X0088343Y0279846D01*
X0088017Y0280634D01*
X0088067Y0280514D02*
X0092963Y0280514D01*
X0092963Y0281300D02*
X0093750Y0281300D01*
X0093750Y0280634D02*
X0093750Y0283996D01*
X0098461Y0283996D01*
X0098816Y0283901D01*
X0099133Y0283718D01*
X0099393Y0283458D01*
X0099576Y0283140D01*
X0099671Y0282786D01*
X0099671Y0280634D01*
X0093750Y0280634D01*
X0093750Y0280514D02*
X0112595Y0280514D01*
X0112595Y0281300D02*
X0099671Y0281300D01*
X0099671Y0282086D02*
X0112595Y0282086D01*
X0112595Y0282872D02*
X0099648Y0282872D01*
X0099193Y0283658D02*
X0112595Y0283658D01*
X0112595Y0284444D02*
X0066634Y0284444D01*
X0066585Y0283658D02*
X0067441Y0283658D01*
X0066986Y0282872D02*
X0066585Y0282872D01*
X0066585Y0282086D02*
X0066963Y0282086D01*
X0066963Y0281300D02*
X0066585Y0281300D01*
X0066585Y0280514D02*
X0072884Y0280514D01*
X0072884Y0279846D02*
X0066963Y0279846D01*
X0066963Y0277694D01*
X0067058Y0277340D01*
X0067241Y0277022D01*
X0067501Y0276763D01*
X0067818Y0276579D01*
X0068173Y0276484D01*
X0072884Y0276484D01*
X0072884Y0279846D01*
X0072884Y0279728D02*
X0073671Y0279728D01*
X0073671Y0279846D02*
X0078291Y0279846D01*
X0078617Y0280634D01*
X0073671Y0280634D01*
X0073671Y0279846D01*
X0073671Y0280514D02*
X0078567Y0280514D01*
X0079570Y0282872D02*
X0080344Y0282872D01*
X0079115Y0283658D02*
X0082138Y0283658D01*
X0081895Y0287587D02*
X0074503Y0287587D01*
X0073717Y0286801D02*
X0112595Y0286801D01*
X0112595Y0286015D02*
X0072931Y0286015D01*
X0072145Y0285229D02*
X0112595Y0285229D01*
X0112595Y0279728D02*
X0099671Y0279728D01*
X0099671Y0278942D02*
X0112595Y0278942D01*
X0112595Y0278156D02*
X0099671Y0278156D01*
X0099584Y0277370D02*
X0112595Y0277370D01*
X0112595Y0276584D02*
X0098825Y0276584D01*
X0098067Y0272835D02*
X0095325Y0272835D01*
X0095325Y0270260D01*
X0099278Y0270260D01*
X0099278Y0271624D01*
X0099183Y0271979D01*
X0098999Y0272297D01*
X0098740Y0272556D01*
X0098422Y0272740D01*
X0098067Y0272835D01*
X0098569Y0272655D02*
X0112595Y0272655D01*
X0112595Y0273441D02*
X0064232Y0273441D01*
X0064232Y0272655D02*
X0091294Y0272655D01*
X0090650Y0271869D02*
X0075620Y0271869D01*
X0075640Y0271083D02*
X0090585Y0271083D01*
X0090585Y0270297D02*
X0075640Y0270297D01*
X0075640Y0269511D02*
X0094537Y0269511D01*
X0094538Y0270297D02*
X0095325Y0270297D01*
X0095325Y0269511D02*
X0112595Y0269511D01*
X0112595Y0268725D02*
X0099278Y0268725D01*
X0099232Y0267939D02*
X0112595Y0267939D01*
X0112595Y0267153D02*
X0098700Y0267153D01*
X0098868Y0266368D02*
X0112595Y0266368D01*
X0112595Y0265582D02*
X0098868Y0265582D01*
X0098868Y0264796D02*
X0112595Y0264796D01*
X0112595Y0264010D02*
X0098868Y0264010D01*
X0098868Y0263224D02*
X0112595Y0263224D01*
X0112595Y0262438D02*
X0098858Y0262438D01*
X0099270Y0261652D02*
X0112595Y0261652D01*
X0112595Y0260866D02*
X0099278Y0260866D01*
X0094931Y0264866D02*
X0090030Y0264866D01*
X0089616Y0265280D01*
X0087810Y0264010D02*
X0075640Y0264010D01*
X0075640Y0264796D02*
X0087441Y0264796D01*
X0087441Y0265582D02*
X0075640Y0265582D01*
X0075640Y0266368D02*
X0087629Y0266368D01*
X0088415Y0267153D02*
X0075335Y0267153D01*
X0075640Y0267939D02*
X0090630Y0267939D01*
X0090585Y0268725D02*
X0075640Y0268725D01*
X0075640Y0263224D02*
X0088596Y0263224D01*
X0090636Y0263224D02*
X0090994Y0263224D01*
X0091004Y0262438D02*
X0075194Y0262438D01*
X0075640Y0261652D02*
X0090592Y0261652D01*
X0090585Y0260866D02*
X0075640Y0260866D01*
X0071703Y0259866D02*
X0068258Y0259866D01*
X0067982Y0264866D02*
X0066782Y0266067D01*
X0067982Y0264866D02*
X0071703Y0264866D01*
X0071703Y0269866D02*
X0066919Y0269866D01*
X0066782Y0270004D01*
X0065571Y0271869D02*
X0063848Y0271869D01*
X0063714Y0271083D02*
X0064785Y0271083D01*
X0064607Y0270297D02*
X0064500Y0270297D01*
X0064292Y0274227D02*
X0080516Y0274227D01*
X0079673Y0275013D02*
X0065078Y0275013D01*
X0065863Y0275798D02*
X0078940Y0275798D01*
X0073671Y0276584D02*
X0072884Y0276584D01*
X0072884Y0277370D02*
X0073671Y0277370D01*
X0073671Y0278156D02*
X0072884Y0278156D01*
X0072884Y0278942D02*
X0073671Y0278942D01*
X0073671Y0281300D02*
X0072884Y0281300D01*
X0072884Y0282086D02*
X0073671Y0282086D01*
X0073671Y0282872D02*
X0072884Y0282872D01*
X0072884Y0283658D02*
X0073671Y0283658D01*
X0071506Y0286539D02*
X0074656Y0289689D01*
X0071506Y0286539D02*
X0066782Y0286539D01*
X0065207Y0284965D01*
X0065207Y0277091D01*
X0062057Y0273941D01*
X0062057Y0273154D01*
X0060841Y0275013D02*
X0059337Y0275013D01*
X0061064Y0277370D02*
X0046963Y0277370D01*
X0047749Y0278156D02*
X0060670Y0278156D01*
X0060670Y0278942D02*
X0048535Y0278942D01*
X0049321Y0279728D02*
X0060832Y0279728D01*
X0061467Y0280514D02*
X0051681Y0280514D01*
X0052467Y0281300D02*
X0061467Y0281300D01*
X0061073Y0282086D02*
X0053253Y0282086D01*
X0054039Y0282872D02*
X0060287Y0282872D01*
X0059882Y0283658D02*
X0054825Y0283658D01*
X0055611Y0284444D02*
X0059882Y0284444D01*
X0060034Y0285229D02*
X0056397Y0285229D01*
X0057183Y0286015D02*
X0060820Y0286015D01*
X0062057Y0284177D02*
X0062845Y0283390D01*
X0062845Y0278665D01*
X0066585Y0278942D02*
X0066963Y0278942D01*
X0066963Y0278156D02*
X0066585Y0278156D01*
X0066585Y0277370D02*
X0067050Y0277370D01*
X0066585Y0276584D02*
X0067809Y0276584D01*
X0066963Y0279728D02*
X0066585Y0279728D01*
X0064309Y0286015D02*
X0063295Y0286015D01*
X0062657Y0292303D02*
X0067894Y0292303D01*
X0061270Y0295201D02*
X0060482Y0294413D01*
X0057992Y0295446D02*
X0046112Y0295446D01*
X0046112Y0294660D02*
X0054844Y0294660D01*
X0054058Y0293874D02*
X0046112Y0293874D01*
X0046112Y0293089D02*
X0053272Y0293089D01*
X0052486Y0292303D02*
X0045360Y0292303D01*
X0044574Y0291517D02*
X0051700Y0291517D01*
X0050914Y0290731D02*
X0032595Y0290731D01*
X0032736Y0289945D02*
X0050128Y0289945D01*
X0042372Y0295201D02*
X0031349Y0295201D01*
X0030561Y0295988D01*
X0029793Y0304877D02*
X0101408Y0304877D01*
X0101041Y0305006D02*
X0102128Y0304625D01*
X0103251Y0304369D01*
X0104395Y0304240D01*
X0104577Y0304240D01*
X0104577Y0314098D01*
X0094719Y0314098D01*
X0094719Y0313916D01*
X0094848Y0312772D01*
X0095104Y0311650D01*
X0095484Y0310563D01*
X0095984Y0309525D01*
X0096596Y0308550D01*
X0097314Y0307650D01*
X0098128Y0306836D01*
X0099029Y0306118D01*
X0100004Y0305505D01*
X0101041Y0305006D01*
X0099752Y0305663D02*
X0031449Y0305663D01*
X0032588Y0306449D02*
X0098613Y0306449D01*
X0097729Y0307235D02*
X0033472Y0307235D01*
X0034183Y0308021D02*
X0097018Y0308021D01*
X0096435Y0308807D02*
X0034766Y0308807D01*
X0035250Y0309593D02*
X0095951Y0309593D01*
X0095573Y0310379D02*
X0035628Y0310379D01*
X0035928Y0311165D02*
X0095273Y0311165D01*
X0095035Y0311950D02*
X0036166Y0311950D01*
X0036345Y0312736D02*
X0094856Y0312736D01*
X0094763Y0313522D02*
X0036438Y0313522D01*
X0036479Y0315094D02*
X0094722Y0315094D01*
X0094810Y0315880D02*
X0036391Y0315880D01*
X0036250Y0316666D02*
X0094951Y0316666D01*
X0095145Y0317452D02*
X0036056Y0317452D01*
X0035781Y0318238D02*
X0095420Y0318238D01*
X0095774Y0319024D02*
X0035427Y0319024D01*
X0034997Y0319810D02*
X0096204Y0319810D01*
X0096725Y0320596D02*
X0034476Y0320596D01*
X0033840Y0321381D02*
X0097361Y0321381D01*
X0104577Y0314308D02*
X0026624Y0314308D01*
X0026624Y0313522D02*
X0025837Y0313522D01*
X0025837Y0312736D02*
X0026624Y0312736D01*
X0026624Y0311950D02*
X0025837Y0311950D01*
X0025837Y0311165D02*
X0026624Y0311165D01*
X0026624Y0310379D02*
X0025837Y0310379D01*
X0025837Y0309593D02*
X0026624Y0309593D01*
X0026624Y0308807D02*
X0025837Y0308807D01*
X0025837Y0308021D02*
X0026624Y0308021D01*
X0026624Y0307235D02*
X0025837Y0307235D01*
X0025837Y0306449D02*
X0026624Y0306449D01*
X0026624Y0305663D02*
X0025837Y0305663D01*
X0025837Y0304877D02*
X0026624Y0304877D01*
X0022668Y0304877D02*
X0018606Y0304877D01*
X0018606Y0305663D02*
X0021012Y0305663D01*
X0019873Y0306449D02*
X0018606Y0306449D01*
X0018606Y0307235D02*
X0018989Y0307235D01*
X0029856Y0271083D02*
X0057115Y0271083D01*
X0059028Y0270297D02*
X0030642Y0270297D01*
X0031428Y0269511D02*
X0059814Y0269511D01*
X0062953Y0264010D02*
X0045753Y0264010D01*
X0063739Y0263224D02*
X0018606Y0263224D01*
X0018606Y0262438D02*
X0064525Y0262438D01*
X0064607Y0261652D02*
X0018606Y0261652D01*
X0018606Y0260866D02*
X0064607Y0260866D01*
X0064968Y0260080D02*
X0018606Y0260080D01*
X0018606Y0259294D02*
X0065754Y0259294D01*
X0072884Y0233359D02*
X0073671Y0233359D01*
X0073671Y0232573D02*
X0072884Y0232573D01*
X0072884Y0231787D02*
X0073671Y0231787D01*
X0073671Y0231001D02*
X0072884Y0231001D01*
X0061559Y0201137D02*
X0112595Y0201137D01*
X0112595Y0201923D02*
X0060773Y0201923D01*
X0061870Y0200351D02*
X0112595Y0200351D01*
X0112595Y0199565D02*
X0061870Y0199565D01*
X0061624Y0198779D02*
X0112595Y0198779D01*
X0112595Y0197993D02*
X0060839Y0197993D01*
X0058926Y0197207D02*
X0112595Y0197207D01*
X0112595Y0196421D02*
X0058140Y0196421D01*
X0057333Y0197563D02*
X0059695Y0199925D01*
X0057333Y0197563D02*
X0047884Y0197563D01*
X0037781Y0157126D02*
X0018606Y0157126D01*
X0018606Y0156340D02*
X0036995Y0156340D01*
X0037057Y0156401D02*
X0037057Y0156401D01*
X0036210Y0155554D02*
X0018606Y0155554D01*
X0018606Y0154768D02*
X0035424Y0154768D01*
X0034638Y0153982D02*
X0018606Y0153982D01*
X0018606Y0153196D02*
X0033852Y0153196D01*
X0033066Y0152410D02*
X0018606Y0152410D01*
X0018606Y0151624D02*
X0032280Y0151624D01*
X0031494Y0150838D02*
X0018606Y0150838D01*
X0018606Y0150052D02*
X0030708Y0150052D01*
X0029922Y0149267D02*
X0018606Y0149267D01*
X0018606Y0148481D02*
X0029136Y0148481D01*
X0028350Y0147695D02*
X0018606Y0147695D01*
X0018606Y0146909D02*
X0027564Y0146909D01*
X0026779Y0146123D02*
X0018606Y0146123D01*
X0018606Y0145337D02*
X0025993Y0145337D01*
X0025207Y0144551D02*
X0018606Y0144551D01*
X0018606Y0143765D02*
X0024421Y0143765D01*
X0023635Y0142979D02*
X0018606Y0142979D01*
X0018606Y0142193D02*
X0022884Y0142193D01*
X0022884Y0141407D02*
X0018606Y0141407D01*
X0018606Y0140621D02*
X0022884Y0140621D01*
X0022884Y0139836D02*
X0018606Y0139836D01*
X0018606Y0139050D02*
X0022884Y0139050D01*
X0022884Y0138264D02*
X0018606Y0138264D01*
X0018606Y0137478D02*
X0022884Y0137478D01*
X0022884Y0136692D02*
X0018606Y0136692D01*
X0018606Y0135906D02*
X0022884Y0135906D01*
X0022884Y0135120D02*
X0018606Y0135120D01*
X0018606Y0134334D02*
X0022884Y0134334D01*
X0022884Y0133548D02*
X0018606Y0133548D01*
X0018606Y0132762D02*
X0022884Y0132762D01*
X0022884Y0131976D02*
X0018606Y0131976D01*
X0018606Y0131191D02*
X0022884Y0131191D01*
X0022884Y0130405D02*
X0018606Y0130405D01*
X0018606Y0129619D02*
X0022884Y0129619D01*
X0022884Y0128833D02*
X0018606Y0128833D01*
X0018606Y0128047D02*
X0022884Y0128047D01*
X0022884Y0127261D02*
X0018606Y0127261D01*
X0018606Y0126475D02*
X0022884Y0126475D01*
X0022884Y0125689D02*
X0018606Y0125689D01*
X0018606Y0124903D02*
X0022884Y0124903D01*
X0022884Y0124117D02*
X0018606Y0124117D01*
X0018606Y0123331D02*
X0022884Y0123331D01*
X0022884Y0122545D02*
X0018606Y0122545D01*
X0018606Y0121760D02*
X0022884Y0121760D01*
X0022884Y0120974D02*
X0018606Y0120974D01*
X0018606Y0120188D02*
X0022884Y0120188D01*
X0022884Y0119402D02*
X0018606Y0119402D01*
X0018606Y0118616D02*
X0022884Y0118616D01*
X0021768Y0117830D02*
X0018606Y0117830D01*
X0018606Y0117044D02*
X0020982Y0117044D01*
X0020512Y0116258D02*
X0018606Y0116258D01*
X0018606Y0051813D02*
X0045617Y0051813D01*
X0045620Y0051817D02*
X0044496Y0050693D01*
X0043888Y0049224D01*
X0043888Y0047634D01*
X0044496Y0046166D01*
X0045620Y0045041D01*
X0047089Y0044433D01*
X0048679Y0044433D01*
X0050148Y0045041D01*
X0051272Y0046166D01*
X0051880Y0047634D01*
X0051880Y0049224D01*
X0051272Y0050693D01*
X0050148Y0051817D01*
X0048679Y0052425D01*
X0047089Y0052425D01*
X0045620Y0051817D01*
X0044831Y0051027D02*
X0018606Y0051027D01*
X0018606Y0050241D02*
X0044309Y0050241D01*
X0043984Y0049456D02*
X0018606Y0049456D01*
X0018606Y0048670D02*
X0043888Y0048670D01*
X0043888Y0047884D02*
X0018606Y0047884D01*
X0018606Y0047098D02*
X0044110Y0047098D01*
X0044436Y0046312D02*
X0018606Y0046312D01*
X0018606Y0045526D02*
X0045136Y0045526D01*
X0046348Y0044740D02*
X0018606Y0044740D01*
X0025837Y0029022D02*
X0026624Y0029022D01*
X0026624Y0028236D02*
X0025837Y0028236D01*
X0025837Y0027450D02*
X0026624Y0027450D01*
X0026624Y0026664D02*
X0025837Y0026664D01*
X0025837Y0025878D02*
X0026624Y0025878D01*
X0026624Y0025092D02*
X0025837Y0025092D01*
X0025837Y0024306D02*
X0026624Y0024306D01*
X0026624Y0023520D02*
X0025837Y0023520D01*
X0025837Y0022735D02*
X0026624Y0022735D01*
X0026624Y0021949D02*
X0025837Y0021949D01*
X0025837Y0021163D02*
X0026624Y0021163D01*
X0026624Y0020377D02*
X0025837Y0020377D01*
X0026624Y0019591D02*
X0048475Y0019591D01*
X0048475Y0020377D02*
X0036417Y0020377D01*
X0036302Y0021163D02*
X0048475Y0021163D01*
X0048475Y0021176D02*
X0048475Y0018044D01*
X0049673Y0015150D01*
X0051888Y0012935D01*
X0054782Y0011736D01*
X0057915Y0011736D01*
X0060809Y0012935D01*
X0063024Y0015150D01*
X0064223Y0018044D01*
X0064223Y0021176D01*
X0063024Y0024070D01*
X0060809Y0026285D01*
X0057915Y0027484D01*
X0054782Y0027484D01*
X0051888Y0026285D01*
X0049673Y0024070D01*
X0048475Y0021176D01*
X0048794Y0021949D02*
X0036122Y0021949D01*
X0035861Y0022735D02*
X0049120Y0022735D01*
X0049445Y0023520D02*
X0035537Y0023520D01*
X0035140Y0024306D02*
X0049909Y0024306D01*
X0050695Y0025092D02*
X0034646Y0025092D01*
X0034031Y0025878D02*
X0051481Y0025878D01*
X0052802Y0026664D02*
X0033281Y0026664D01*
X0032349Y0027450D02*
X0054700Y0027450D01*
X0057431Y0033230D02*
X0056307Y0034355D01*
X0055699Y0035823D01*
X0055699Y0037413D01*
X0056307Y0038882D01*
X0057431Y0040006D01*
X0058900Y0040614D01*
X0060490Y0040614D01*
X0061959Y0040006D01*
X0063083Y0038882D01*
X0063691Y0037413D01*
X0063691Y0035823D01*
X0063083Y0034355D01*
X0061959Y0033230D01*
X0060490Y0032622D01*
X0058900Y0032622D01*
X0057431Y0033230D01*
X0056924Y0033737D02*
X0050654Y0033737D01*
X0051342Y0034523D02*
X0056237Y0034523D01*
X0055912Y0035309D02*
X0051667Y0035309D01*
X0051880Y0036095D02*
X0055699Y0036095D01*
X0055699Y0036881D02*
X0051880Y0036881D01*
X0051775Y0037667D02*
X0055804Y0037667D01*
X0056130Y0038453D02*
X0051449Y0038453D01*
X0050915Y0039239D02*
X0056664Y0039239D01*
X0057477Y0040025D02*
X0050102Y0040025D01*
X0049420Y0044740D02*
X0058159Y0044740D01*
X0057431Y0045041D02*
X0058900Y0044433D01*
X0060490Y0044433D01*
X0061959Y0045041D01*
X0063083Y0046166D01*
X0063691Y0047634D01*
X0063691Y0049224D01*
X0063083Y0050693D01*
X0061959Y0051817D01*
X0060490Y0052425D01*
X0058900Y0052425D01*
X0057431Y0051817D01*
X0056307Y0050693D01*
X0055699Y0049224D01*
X0055699Y0047634D01*
X0056307Y0046166D01*
X0057431Y0045041D01*
X0056947Y0045526D02*
X0050632Y0045526D01*
X0051332Y0046312D02*
X0056247Y0046312D01*
X0055921Y0047098D02*
X0051658Y0047098D01*
X0051880Y0047884D02*
X0055699Y0047884D01*
X0055699Y0048670D02*
X0051880Y0048670D01*
X0051784Y0049456D02*
X0055795Y0049456D01*
X0056120Y0050241D02*
X0051459Y0050241D01*
X0050937Y0051027D02*
X0056642Y0051027D01*
X0057428Y0051813D02*
X0050151Y0051813D01*
X0049474Y0032951D02*
X0058105Y0032951D01*
X0057997Y0027450D02*
X0073204Y0027450D01*
X0073286Y0027484D02*
X0070392Y0026285D01*
X0068177Y0024070D01*
X0066978Y0021176D01*
X0066978Y0018044D01*
X0068177Y0015150D01*
X0070392Y0012935D01*
X0073286Y0011736D01*
X0076419Y0011736D01*
X0079313Y0012935D01*
X0081528Y0015150D01*
X0082726Y0018044D01*
X0082726Y0021176D01*
X0081528Y0024070D01*
X0079313Y0026285D01*
X0076419Y0027484D01*
X0073286Y0027484D01*
X0072301Y0032622D02*
X0073770Y0033230D01*
X0074894Y0034355D01*
X0075502Y0035823D01*
X0075502Y0037413D01*
X0074894Y0038882D01*
X0073770Y0040006D01*
X0072301Y0040614D01*
X0070711Y0040614D01*
X0069242Y0040006D01*
X0068118Y0038882D01*
X0067510Y0037413D01*
X0067510Y0035823D01*
X0068118Y0034355D01*
X0069242Y0033230D01*
X0070711Y0032622D01*
X0072301Y0032622D01*
X0073096Y0032951D02*
X0079568Y0032951D01*
X0079321Y0033199D02*
X0079898Y0032622D01*
X0086737Y0032622D01*
X0087313Y0033199D01*
X0087313Y0040038D01*
X0086737Y0040614D01*
X0079898Y0040614D01*
X0079321Y0040038D01*
X0079321Y0033199D01*
X0079321Y0033737D02*
X0074276Y0033737D01*
X0074964Y0034523D02*
X0079321Y0034523D01*
X0079321Y0035309D02*
X0075289Y0035309D01*
X0075502Y0036095D02*
X0079321Y0036095D01*
X0079321Y0036881D02*
X0075502Y0036881D01*
X0075397Y0037667D02*
X0079321Y0037667D01*
X0079321Y0038453D02*
X0075071Y0038453D01*
X0074537Y0039239D02*
X0079321Y0039239D01*
X0079321Y0040025D02*
X0073724Y0040025D01*
X0072301Y0044433D02*
X0073770Y0045041D01*
X0074894Y0046166D01*
X0075502Y0047634D01*
X0075502Y0049224D01*
X0074894Y0050693D01*
X0073770Y0051817D01*
X0072301Y0052425D01*
X0070711Y0052425D01*
X0069242Y0051817D01*
X0068118Y0050693D01*
X0067510Y0049224D01*
X0067510Y0047634D01*
X0068118Y0046166D01*
X0069242Y0045041D01*
X0070711Y0044433D01*
X0072301Y0044433D01*
X0073042Y0044740D02*
X0080899Y0044740D01*
X0081008Y0044661D02*
X0081626Y0044346D01*
X0082285Y0044132D01*
X0082923Y0044031D01*
X0082923Y0048035D01*
X0078919Y0048035D01*
X0079020Y0047398D01*
X0079234Y0046738D01*
X0079549Y0046120D01*
X0079957Y0045559D01*
X0080447Y0045069D01*
X0081008Y0044661D01*
X0079990Y0045526D02*
X0074254Y0045526D01*
X0074954Y0046312D02*
X0079451Y0046312D01*
X0079117Y0047098D02*
X0075280Y0047098D01*
X0075502Y0047884D02*
X0078943Y0047884D01*
X0079019Y0049456D02*
X0075406Y0049456D01*
X0075502Y0048670D02*
X0082923Y0048670D01*
X0082923Y0047884D02*
X0083711Y0047884D01*
X0083711Y0047098D02*
X0082923Y0047098D01*
X0082923Y0046312D02*
X0083711Y0046312D01*
X0083711Y0045526D02*
X0082923Y0045526D01*
X0082923Y0044740D02*
X0083711Y0044740D01*
X0080480Y0051813D02*
X0073773Y0051813D01*
X0074559Y0051027D02*
X0079759Y0051027D01*
X0079296Y0050241D02*
X0075081Y0050241D01*
X0069970Y0044740D02*
X0061231Y0044740D01*
X0062443Y0045526D02*
X0068758Y0045526D01*
X0068058Y0046312D02*
X0063143Y0046312D01*
X0063469Y0047098D02*
X0067732Y0047098D01*
X0067510Y0047884D02*
X0063691Y0047884D01*
X0063691Y0048670D02*
X0067510Y0048670D01*
X0067606Y0049456D02*
X0063595Y0049456D01*
X0063270Y0050241D02*
X0067931Y0050241D01*
X0068453Y0051027D02*
X0062748Y0051027D01*
X0061962Y0051813D02*
X0069239Y0051813D01*
X0069288Y0040025D02*
X0061913Y0040025D01*
X0062726Y0039239D02*
X0068475Y0039239D01*
X0067941Y0038453D02*
X0063260Y0038453D01*
X0063586Y0037667D02*
X0067615Y0037667D01*
X0067510Y0036881D02*
X0063691Y0036881D01*
X0063691Y0036095D02*
X0067510Y0036095D01*
X0067723Y0035309D02*
X0063478Y0035309D01*
X0063153Y0034523D02*
X0068048Y0034523D01*
X0068736Y0033737D02*
X0062465Y0033737D01*
X0061285Y0032951D02*
X0069916Y0032951D01*
X0071306Y0026664D02*
X0059895Y0026664D01*
X0061216Y0025878D02*
X0069985Y0025878D01*
X0069199Y0025092D02*
X0062002Y0025092D01*
X0062788Y0024306D02*
X0068413Y0024306D01*
X0067949Y0023520D02*
X0063252Y0023520D01*
X0063577Y0022735D02*
X0067624Y0022735D01*
X0067298Y0021949D02*
X0063903Y0021949D01*
X0064223Y0021163D02*
X0066978Y0021163D01*
X0066978Y0020377D02*
X0064223Y0020377D01*
X0064223Y0019591D02*
X0066978Y0019591D01*
X0066978Y0018805D02*
X0064223Y0018805D01*
X0064212Y0018019D02*
X0066989Y0018019D01*
X0067314Y0017233D02*
X0063887Y0017233D01*
X0063561Y0016447D02*
X0067640Y0016447D01*
X0067965Y0015661D02*
X0063236Y0015661D01*
X0062749Y0014875D02*
X0068452Y0014875D01*
X0069238Y0014089D02*
X0061963Y0014089D01*
X0061177Y0013304D02*
X0070024Y0013304D01*
X0071400Y0012518D02*
X0059801Y0012518D01*
X0052896Y0012518D02*
X0034001Y0012518D01*
X0034623Y0013304D02*
X0051520Y0013304D01*
X0050734Y0014089D02*
X0035117Y0014089D01*
X0035519Y0014875D02*
X0049948Y0014875D01*
X0049461Y0015661D02*
X0035848Y0015661D01*
X0036114Y0016447D02*
X0049136Y0016447D01*
X0048810Y0017233D02*
X0036293Y0017233D01*
X0036412Y0018019D02*
X0048485Y0018019D01*
X0048475Y0018805D02*
X0036482Y0018805D01*
X0033244Y0011732D02*
X0097957Y0011732D01*
X0097200Y0012518D02*
X0078305Y0012518D01*
X0079681Y0013304D02*
X0096578Y0013304D01*
X0096084Y0014089D02*
X0080467Y0014089D01*
X0081253Y0014875D02*
X0095682Y0014875D01*
X0095353Y0015661D02*
X0081740Y0015661D01*
X0082065Y0016447D02*
X0095087Y0016447D01*
X0094908Y0017233D02*
X0082391Y0017233D01*
X0082716Y0018019D02*
X0094789Y0018019D01*
X0094719Y0018805D02*
X0082726Y0018805D01*
X0082726Y0019591D02*
X0104577Y0019591D01*
X0104577Y0019610D02*
X0094719Y0019610D01*
X0094719Y0019792D01*
X0094848Y0020937D01*
X0095104Y0022059D01*
X0095484Y0023146D01*
X0095984Y0024183D01*
X0096596Y0025158D01*
X0097314Y0026059D01*
X0098128Y0026873D01*
X0099029Y0027591D01*
X0100004Y0028203D01*
X0101041Y0028703D01*
X0102128Y0029083D01*
X0103251Y0029340D01*
X0104395Y0029468D01*
X0104577Y0029468D01*
X0104577Y0019610D01*
X0104577Y0020377D02*
X0105364Y0020377D01*
X0105364Y0021163D02*
X0104577Y0021163D01*
X0104577Y0021949D02*
X0105364Y0021949D01*
X0105364Y0022735D02*
X0104577Y0022735D01*
X0104577Y0023520D02*
X0105364Y0023520D01*
X0105364Y0024306D02*
X0104577Y0024306D01*
X0104577Y0025092D02*
X0105364Y0025092D01*
X0105364Y0025878D02*
X0104577Y0025878D01*
X0104577Y0026664D02*
X0105364Y0026664D01*
X0105364Y0027450D02*
X0104577Y0027450D01*
X0104577Y0028236D02*
X0105364Y0028236D01*
X0105364Y0029022D02*
X0104577Y0029022D01*
X0101952Y0029022D02*
X0029249Y0029022D01*
X0031130Y0028236D02*
X0100071Y0028236D01*
X0098852Y0027450D02*
X0076501Y0027450D01*
X0078399Y0026664D02*
X0097920Y0026664D01*
X0097170Y0025878D02*
X0079720Y0025878D01*
X0080506Y0025092D02*
X0096555Y0025092D01*
X0096061Y0024306D02*
X0081292Y0024306D01*
X0081756Y0023520D02*
X0095664Y0023520D01*
X0095340Y0022735D02*
X0082081Y0022735D01*
X0082407Y0021949D02*
X0095079Y0021949D01*
X0094899Y0021163D02*
X0082726Y0021163D01*
X0082726Y0020377D02*
X0094784Y0020377D01*
X0087066Y0032951D02*
X0112595Y0032951D01*
X0112595Y0033737D02*
X0087313Y0033737D01*
X0087313Y0034523D02*
X0112595Y0034523D01*
X0112595Y0035309D02*
X0087313Y0035309D01*
X0087313Y0036095D02*
X0112595Y0036095D01*
X0112595Y0036881D02*
X0087313Y0036881D01*
X0087313Y0037667D02*
X0112595Y0037667D01*
X0112595Y0038453D02*
X0087313Y0038453D01*
X0087313Y0039239D02*
X0112595Y0039239D01*
X0112595Y0040025D02*
X0087313Y0040025D01*
X0107989Y0029022D02*
X0112595Y0029022D01*
X0112595Y0028236D02*
X0109870Y0028236D01*
X0111089Y0027450D02*
X0112595Y0027450D01*
X0112595Y0026664D02*
X0112021Y0026664D01*
X0079655Y0115472D02*
X0058293Y0115472D01*
X0059079Y0116258D02*
X0066610Y0116258D01*
X0065824Y0117044D02*
X0059865Y0117044D01*
X0060651Y0117830D02*
X0065038Y0117830D01*
X0064252Y0118616D02*
X0061437Y0118616D01*
X0062223Y0119402D02*
X0063466Y0119402D01*
X0062681Y0120188D02*
X0062648Y0120188D01*
X0061270Y0120398D02*
X0061270Y0128272D01*
X0062845Y0130634D02*
X0060482Y0132996D01*
X0050246Y0132996D01*
X0047884Y0135358D01*
X0061270Y0120398D02*
X0054183Y0113311D01*
X0062845Y0130634D02*
X0063632Y0130634D01*
X0062685Y0132762D02*
X0062665Y0132762D01*
X0063632Y0125122D02*
X0063632Y0121185D01*
X0067569Y0117248D01*
X0080955Y0117248D01*
X0080033Y0119402D02*
X0067364Y0119402D01*
X0095908Y0210568D02*
X0112595Y0210568D01*
X0112595Y0211354D02*
X0096694Y0211354D01*
X0097480Y0212140D02*
X0112595Y0212140D01*
X0112595Y0212925D02*
X0098266Y0212925D01*
X0099052Y0213711D02*
X0112595Y0213711D01*
X0112595Y0214497D02*
X0099656Y0214497D01*
X0099656Y0215283D02*
X0112595Y0215283D01*
X0112595Y0216069D02*
X0099656Y0216069D01*
X0099656Y0216855D02*
X0112595Y0216855D01*
X0112595Y0234931D02*
X0093750Y0234931D01*
X0093750Y0234145D02*
X0092963Y0234145D01*
X0092963Y0233359D02*
X0093750Y0233359D01*
X0093750Y0232573D02*
X0092963Y0232573D01*
X0092963Y0231787D02*
X0093750Y0231787D01*
X0093750Y0231001D02*
X0092963Y0231001D01*
X0093996Y0230216D02*
X0018606Y0230216D01*
X0018606Y0229430D02*
X0093210Y0229430D01*
X0092953Y0228644D02*
X0018606Y0228644D01*
X0018606Y0227858D02*
X0092953Y0227858D01*
X0093215Y0227072D02*
X0018606Y0227072D01*
X0018606Y0226286D02*
X0092429Y0226286D01*
X0092166Y0225500D02*
X0018606Y0225500D01*
X0018606Y0224714D02*
X0092166Y0224714D01*
X0092459Y0223928D02*
X0018606Y0223928D01*
X0018606Y0223142D02*
X0093245Y0223142D01*
X0094537Y0222356D02*
X0018606Y0222356D01*
X0018606Y0221570D02*
X0094537Y0221570D01*
X0094537Y0220785D02*
X0018606Y0220785D01*
X0018606Y0219999D02*
X0094537Y0219999D01*
X0094537Y0219213D02*
X0018606Y0219213D01*
X0018606Y0218427D02*
X0094537Y0218427D01*
X0094020Y0217641D02*
X0018606Y0217641D01*
X0018606Y0216855D02*
X0093741Y0216855D01*
X0093741Y0216069D02*
X0018606Y0216069D01*
X0018606Y0215283D02*
X0094017Y0215283D01*
X0094803Y0214497D02*
X0018606Y0214497D01*
X0084587Y0241218D02*
X0112595Y0241218D01*
X0112595Y0240432D02*
X0086327Y0240432D01*
X0087113Y0239646D02*
X0112595Y0239646D01*
X0112595Y0238861D02*
X0087757Y0238861D01*
X0094341Y0225122D02*
X0095915Y0223547D01*
X0095915Y0216461D01*
X0095154Y0213711D02*
X0089929Y0213711D01*
X0096703Y0226697D02*
X0095128Y0228272D01*
X0096703Y0226697D02*
X0096703Y0225122D01*
X0097490Y0224335D01*
X0097490Y0222760D01*
X0099065Y0221185D01*
X0101427Y0221185D01*
X0102215Y0220398D01*
X0098868Y0243576D02*
X0112595Y0243576D01*
X0112595Y0244362D02*
X0098868Y0244362D01*
X0098868Y0245148D02*
X0112595Y0245148D01*
X0112595Y0245934D02*
X0098868Y0245934D01*
X0098868Y0246720D02*
X0112595Y0246720D01*
X0112595Y0247506D02*
X0099040Y0247506D01*
X0099278Y0248292D02*
X0112595Y0248292D01*
X0112595Y0249077D02*
X0099278Y0249077D01*
X0091162Y0267153D02*
X0090818Y0267153D01*
X0094538Y0271083D02*
X0095325Y0271083D01*
X0095325Y0271869D02*
X0094538Y0271869D01*
X0094538Y0272655D02*
X0095325Y0272655D01*
X0093750Y0276584D02*
X0092963Y0276584D01*
X0092963Y0277370D02*
X0093750Y0277370D01*
X0093750Y0278156D02*
X0092963Y0278156D01*
X0092963Y0278942D02*
X0093750Y0278942D01*
X0093750Y0279728D02*
X0092963Y0279728D01*
X0092963Y0282086D02*
X0093750Y0282086D01*
X0093750Y0282872D02*
X0092963Y0282872D01*
X0092963Y0283658D02*
X0093750Y0283658D01*
X0099212Y0271869D02*
X0112595Y0271869D01*
X0112595Y0271083D02*
X0099278Y0271083D01*
X0099278Y0270297D02*
X0112595Y0270297D01*
X0112595Y0274227D02*
X0086118Y0274227D01*
X0086961Y0275013D02*
X0112595Y0275013D01*
X0112595Y0275798D02*
X0087694Y0275798D01*
X0104577Y0304877D02*
X0105364Y0304877D01*
X0105364Y0305663D02*
X0104577Y0305663D01*
X0104577Y0306449D02*
X0105364Y0306449D01*
X0105364Y0307235D02*
X0104577Y0307235D01*
X0104577Y0308021D02*
X0105364Y0308021D01*
X0105364Y0308807D02*
X0104577Y0308807D01*
X0104577Y0309593D02*
X0105364Y0309593D01*
X0105364Y0310379D02*
X0104577Y0310379D01*
X0104577Y0311165D02*
X0105364Y0311165D01*
X0105364Y0311950D02*
X0104577Y0311950D01*
X0104577Y0312736D02*
X0105364Y0312736D01*
X0105364Y0313522D02*
X0104577Y0313522D01*
M02*
